G04*
G04 #@! TF.GenerationSoftware,Altium Limited,Altium Designer,19.0.10 (269)*
G04*
G04 Layer_Color=8388736*
%FSLAX25Y25*%
%MOIN*%
G70*
G01*
G75*
%ADD14R,0.04343X0.03162*%
%ADD15O,0.04737X0.02769*%
%ADD16R,0.09265X0.12611*%
%ADD17R,0.17335X0.06706*%
%ADD18R,0.05328X0.03753*%
%ADD19O,0.01981X0.06115*%
%ADD20R,0.03162X0.04343*%
G04:AMPARAMS|DCode=21|XSize=17.84mil|YSize=35.56mil|CornerRadius=6.46mil|HoleSize=0mil|Usage=FLASHONLY|Rotation=270.000|XOffset=0mil|YOffset=0mil|HoleType=Round|Shape=RoundedRectangle|*
%AMROUNDEDRECTD21*
21,1,0.01784,0.02264,0,0,270.0*
21,1,0.00492,0.03556,0,0,270.0*
1,1,0.01292,-0.01132,-0.00246*
1,1,0.01292,-0.01132,0.00246*
1,1,0.01292,0.01132,0.00246*
1,1,0.01292,0.01132,-0.00246*
%
%ADD21ROUNDEDRECTD21*%
%ADD22R,0.07296X0.06115*%
%ADD23R,0.03950X0.03950*%
%ADD24R,0.07296X0.10170*%
%ADD25R,0.04343X0.05918*%
%ADD26R,0.05918X0.04343*%
%ADD27R,0.03950X0.03950*%
%ADD28R,0.05918X0.08674*%
%ADD29R,0.08674X0.08674*%
%ADD30R,0.03950X0.03162*%
%ADD31R,0.03359X0.05328*%
%ADD32R,0.09265X0.11627*%
%ADD33R,0.03162X0.04737*%
%ADD34R,0.06115X0.02375*%
%ADD35R,0.09461X0.04934*%
%ADD36R,0.04737X0.04737*%
%ADD37R,0.03162X0.03950*%
%ADD38O,0.04147X0.01587*%
%ADD39O,0.01587X0.04147*%
%ADD40R,0.18910X0.18910*%
%ADD41O,0.04737X0.01784*%
%ADD42O,0.01784X0.04737*%
%ADD43R,0.08595X0.08595*%
%ADD44R,0.06312X0.05524*%
%ADD45R,0.02769X0.02769*%
%ADD46R,0.04265X0.04698*%
%ADD47R,0.02769X0.02769*%
%ADD48R,0.05524X0.03950*%
%ADD49R,0.03162X0.05131*%
%ADD50R,0.06706X0.10249*%
%ADD51R,0.03753X0.05328*%
%ADD52R,0.06115X0.07296*%
%ADD53R,0.01784X0.03556*%
G04:AMPARAMS|DCode=54|XSize=86.74mil|YSize=39.5mil|CornerRadius=11.87mil|HoleSize=0mil|Usage=FLASHONLY|Rotation=0.000|XOffset=0mil|YOffset=0mil|HoleType=Round|Shape=RoundedRectangle|*
%AMROUNDEDRECTD54*
21,1,0.08674,0.01575,0,0,0.0*
21,1,0.06299,0.03950,0,0,0.0*
1,1,0.02375,0.03150,-0.00787*
1,1,0.02375,-0.03150,-0.00787*
1,1,0.02375,-0.03150,0.00787*
1,1,0.02375,0.03150,0.00787*
%
%ADD54ROUNDEDRECTD54*%
G04:AMPARAMS|DCode=55|XSize=86.74mil|YSize=39.5mil|CornerRadius=11.87mil|HoleSize=0mil|Usage=FLASHONLY|Rotation=270.000|XOffset=0mil|YOffset=0mil|HoleType=Round|Shape=RoundedRectangle|*
%AMROUNDEDRECTD55*
21,1,0.08674,0.01575,0,0,270.0*
21,1,0.06299,0.03950,0,0,270.0*
1,1,0.02375,-0.00787,-0.03150*
1,1,0.02375,-0.00787,0.03150*
1,1,0.02375,0.00787,0.03150*
1,1,0.02375,0.00787,-0.03150*
%
%ADD55ROUNDEDRECTD55*%
%ADD56C,0.12217*%
%ADD57C,0.08674*%
G04:AMPARAMS|DCode=58|XSize=86.74mil|YSize=82.8mil|CornerRadius=22.7mil|HoleSize=0mil|Usage=FLASHONLY|Rotation=90.000|XOffset=0mil|YOffset=0mil|HoleType=Round|Shape=RoundedRectangle|*
%AMROUNDEDRECTD58*
21,1,0.08674,0.03740,0,0,90.0*
21,1,0.04134,0.08280,0,0,90.0*
1,1,0.04540,0.01870,0.02067*
1,1,0.04540,0.01870,-0.02067*
1,1,0.04540,-0.01870,-0.02067*
1,1,0.04540,-0.01870,0.02067*
%
%ADD58ROUNDEDRECTD58*%
%ADD59C,0.06509*%
%ADD60C,0.03162*%
D14*
X129291Y333110D02*
D03*
Y327205D02*
D03*
X91850Y217402D02*
D03*
Y211496D02*
D03*
X72284Y223031D02*
D03*
Y228937D02*
D03*
X91929Y223071D02*
D03*
Y228976D02*
D03*
X33347Y156220D02*
D03*
Y150315D02*
D03*
X38583Y156537D02*
D03*
Y162443D02*
D03*
X43268Y156537D02*
D03*
Y162443D02*
D03*
X48031D02*
D03*
Y156537D02*
D03*
X29488Y95354D02*
D03*
Y101260D02*
D03*
X57008Y240709D02*
D03*
Y234803D02*
D03*
X40315Y240905D02*
D03*
Y235000D02*
D03*
X173779Y126181D02*
D03*
Y120276D02*
D03*
X65748Y87126D02*
D03*
Y81221D02*
D03*
X163622Y120276D02*
D03*
Y126181D02*
D03*
X168701D02*
D03*
Y120276D02*
D03*
X38583Y266890D02*
D03*
Y260984D02*
D03*
X120787Y180039D02*
D03*
Y174134D02*
D03*
X52028Y87126D02*
D03*
Y81221D02*
D03*
X38307Y87126D02*
D03*
Y81221D02*
D03*
X127520Y122953D02*
D03*
Y117047D02*
D03*
X93189Y87126D02*
D03*
Y81221D02*
D03*
X79469Y87126D02*
D03*
Y81221D02*
D03*
X147520Y199134D02*
D03*
Y193228D02*
D03*
X148150Y220709D02*
D03*
Y214803D02*
D03*
D15*
X109370Y231890D02*
D03*
Y235630D02*
D03*
Y239370D02*
D03*
X98740Y231890D02*
D03*
Y235630D02*
D03*
Y239370D02*
D03*
D16*
X52008Y203780D02*
D03*
Y186850D02*
D03*
X25591Y203780D02*
D03*
Y186850D02*
D03*
D17*
X16496Y140709D02*
D03*
Y126535D02*
D03*
D18*
X43602Y122441D02*
D03*
X53642Y126181D02*
D03*
Y118701D02*
D03*
X22913Y165080D02*
D03*
X12874Y161340D02*
D03*
Y168821D02*
D03*
D19*
X78268Y211437D02*
D03*
X80236D02*
D03*
X82205D02*
D03*
X84173D02*
D03*
X86142D02*
D03*
X78268Y228957D02*
D03*
X80236D02*
D03*
X82205D02*
D03*
X84173D02*
D03*
X86142D02*
D03*
D20*
X74331Y236535D02*
D03*
X80236D02*
D03*
X73543Y204016D02*
D03*
X79449D02*
D03*
X84409Y191614D02*
D03*
X78504D02*
D03*
X191142Y145118D02*
D03*
X185236D02*
D03*
X148228Y160646D02*
D03*
X155709D02*
D03*
X151969Y169701D02*
D03*
X29055Y66378D02*
D03*
X36535D02*
D03*
X32795Y75433D02*
D03*
X94646Y66378D02*
D03*
X102126D02*
D03*
X98386Y75433D02*
D03*
X162756Y66378D02*
D03*
X170236D02*
D03*
X166496Y75433D02*
D03*
X120118Y188347D02*
D03*
X126024D02*
D03*
D21*
X11752Y155750D02*
D03*
Y151813D02*
D03*
Y153781D02*
D03*
X22972Y155750D02*
D03*
Y151813D02*
D03*
Y153781D02*
D03*
X42992Y146398D02*
D03*
X54016D02*
D03*
X42992Y144626D02*
D03*
X54016D02*
D03*
Y148169D02*
D03*
Y149941D02*
D03*
Y142854D02*
D03*
Y141102D02*
D03*
X42992Y148169D02*
D03*
Y142854D02*
D03*
Y149941D02*
D03*
Y141083D02*
D03*
X54272Y131929D02*
D03*
Y135866D02*
D03*
Y133898D02*
D03*
X43051Y131929D02*
D03*
Y135866D02*
D03*
Y133898D02*
D03*
D22*
X17362Y153781D02*
D03*
X48661Y133898D02*
D03*
D23*
X83307Y203976D02*
D03*
X89213D02*
D03*
X185236Y140276D02*
D03*
X191142D02*
D03*
X185236Y135453D02*
D03*
X191142D02*
D03*
X185236Y130630D02*
D03*
X191142D02*
D03*
X168425Y115236D02*
D03*
X162520D02*
D03*
X174134Y115276D02*
D03*
X180039D02*
D03*
X119331Y332953D02*
D03*
X113425D02*
D03*
X119331Y328110D02*
D03*
X113425D02*
D03*
X119626Y235748D02*
D03*
X125532D02*
D03*
X119626Y240669D02*
D03*
X125532D02*
D03*
D24*
X48504Y145512D02*
D03*
D25*
X25236Y171614D02*
D03*
X32717D02*
D03*
D26*
X65905Y128898D02*
D03*
Y136378D02*
D03*
D27*
X35906Y136949D02*
D03*
Y142854D02*
D03*
X54016Y155945D02*
D03*
Y161850D02*
D03*
X108268Y180000D02*
D03*
Y185906D02*
D03*
X164685Y159961D02*
D03*
Y165866D02*
D03*
X101382Y171260D02*
D03*
Y165354D02*
D03*
X81024Y171299D02*
D03*
Y165394D02*
D03*
X38465Y272913D02*
D03*
Y278819D02*
D03*
X140016Y165870D02*
D03*
Y159965D02*
D03*
X127516Y165870D02*
D03*
Y159965D02*
D03*
X132323Y117045D02*
D03*
Y122951D02*
D03*
D28*
X74803Y145000D02*
D03*
X65748D02*
D03*
D29*
X70276Y160748D02*
D03*
D30*
X51811Y234842D02*
D03*
Y240551D02*
D03*
X46339Y235059D02*
D03*
Y240768D02*
D03*
X126299Y179842D02*
D03*
Y174134D02*
D03*
D31*
X56890Y230295D02*
D03*
X60630Y220256D02*
D03*
X53150D02*
D03*
X40276Y230335D02*
D03*
X44016Y220295D02*
D03*
X36535D02*
D03*
X55915Y106083D02*
D03*
X59655Y96043D02*
D03*
X52175D02*
D03*
X42205Y106083D02*
D03*
X45945Y96043D02*
D03*
X38465D02*
D03*
X83337Y106083D02*
D03*
X87077Y96043D02*
D03*
X79597D02*
D03*
X69626Y106083D02*
D03*
X73366Y96043D02*
D03*
X65886D02*
D03*
X97047Y106083D02*
D03*
X100787Y96043D02*
D03*
X93307D02*
D03*
D32*
X107165Y204803D02*
D03*
Y218583D02*
D03*
X154665Y84134D02*
D03*
Y97913D02*
D03*
X128661Y84134D02*
D03*
Y97913D02*
D03*
X180669Y84134D02*
D03*
Y97913D02*
D03*
D33*
X101413Y180689D02*
D03*
X93933D02*
D03*
Y191516D02*
D03*
X97673D02*
D03*
X101413D02*
D03*
D34*
X174724Y193622D02*
D03*
Y191063D02*
D03*
Y188504D02*
D03*
Y185945D02*
D03*
Y183386D02*
D03*
D35*
X183504Y319823D02*
D03*
Y308209D02*
D03*
D36*
X177598Y314016D02*
D03*
X189409D02*
D03*
D37*
X13701Y65498D02*
D03*
X19410D02*
D03*
X180059Y210551D02*
D03*
X174350D02*
D03*
X179764Y167087D02*
D03*
X174055D02*
D03*
X51476Y65498D02*
D03*
X45768D02*
D03*
X113760D02*
D03*
X119468D02*
D03*
X79311Y65669D02*
D03*
X85020D02*
D03*
X144193Y65498D02*
D03*
X149902D02*
D03*
D38*
X96799Y150343D02*
D03*
Y148768D02*
D03*
Y147193D02*
D03*
Y145618D02*
D03*
Y144043D02*
D03*
Y142469D02*
D03*
Y140894D02*
D03*
Y139319D02*
D03*
Y137744D02*
D03*
Y136169D02*
D03*
Y134595D02*
D03*
Y133020D02*
D03*
X119634D02*
D03*
Y134595D02*
D03*
Y136169D02*
D03*
Y137744D02*
D03*
Y139319D02*
D03*
Y140894D02*
D03*
Y142469D02*
D03*
Y144043D02*
D03*
Y145618D02*
D03*
Y147193D02*
D03*
Y148768D02*
D03*
Y150343D02*
D03*
D39*
X99555Y130264D02*
D03*
X101130D02*
D03*
X102705D02*
D03*
X104279D02*
D03*
X105854D02*
D03*
X107429D02*
D03*
X109004D02*
D03*
X110579D02*
D03*
X112154D02*
D03*
X113728D02*
D03*
X115303D02*
D03*
X116878D02*
D03*
Y153098D02*
D03*
X115303D02*
D03*
X113728D02*
D03*
X112154D02*
D03*
X110579D02*
D03*
X109004D02*
D03*
X107429D02*
D03*
X105854D02*
D03*
X104279D02*
D03*
X102705D02*
D03*
X101130D02*
D03*
X99555D02*
D03*
D40*
X108217Y141681D02*
D03*
D41*
X161201Y146221D02*
D03*
Y144252D02*
D03*
Y142283D02*
D03*
Y140315D02*
D03*
Y138347D02*
D03*
X176358D02*
D03*
Y140315D02*
D03*
Y142283D02*
D03*
Y144252D02*
D03*
Y146221D02*
D03*
D42*
X164842Y134705D02*
D03*
X166811D02*
D03*
X168780D02*
D03*
X170748D02*
D03*
X172717D02*
D03*
Y149862D02*
D03*
X170748D02*
D03*
X168780D02*
D03*
X166811D02*
D03*
X164842D02*
D03*
D43*
X168780Y142283D02*
D03*
D44*
X95473Y171850D02*
D03*
Y165157D02*
D03*
X86811Y171850D02*
D03*
Y165157D02*
D03*
D45*
X97716Y116244D02*
D03*
Y120181D02*
D03*
X101130Y116244D02*
D03*
Y120181D02*
D03*
X112756Y164724D02*
D03*
Y160787D02*
D03*
X109004Y164650D02*
D03*
Y160713D02*
D03*
X109724Y116244D02*
D03*
Y120181D02*
D03*
X106217Y116244D02*
D03*
Y120181D02*
D03*
X116740Y116213D02*
D03*
Y120150D02*
D03*
X113232Y116213D02*
D03*
Y120150D02*
D03*
X120248Y116213D02*
D03*
Y120150D02*
D03*
D46*
X130008Y137744D02*
D03*
X136425D02*
D03*
D47*
X133185Y142181D02*
D03*
X129248D02*
D03*
X133185Y133181D02*
D03*
X129248D02*
D03*
D48*
X30764Y278228D02*
D03*
X8764Y267205D02*
D03*
Y278228D02*
D03*
X30764Y267205D02*
D03*
D49*
X135559Y160061D02*
D03*
X132016D02*
D03*
D50*
X133787Y181912D02*
D03*
D51*
X136969Y194665D02*
D03*
X133228Y204705D02*
D03*
X140709D02*
D03*
X137047Y216299D02*
D03*
X133307Y226339D02*
D03*
X140787D02*
D03*
D52*
X124685Y200157D02*
D03*
X125827Y221260D02*
D03*
D53*
X124685Y194547D02*
D03*
X122717D02*
D03*
X126654D02*
D03*
X124685Y205768D02*
D03*
X122717D02*
D03*
X126654D02*
D03*
X125827Y215650D02*
D03*
X123858D02*
D03*
X127795D02*
D03*
X125827Y226870D02*
D03*
X123858D02*
D03*
X127795D02*
D03*
D54*
X154331Y279646D02*
D03*
Y284646D02*
D03*
Y289646D02*
D03*
Y294646D02*
D03*
Y299646D02*
D03*
Y274646D02*
D03*
Y269646D02*
D03*
D55*
X54331Y249646D02*
D03*
X59331D02*
D03*
X64331D02*
D03*
X69331D02*
D03*
X74331D02*
D03*
X99331D02*
D03*
X94331D02*
D03*
X89331D02*
D03*
X84331D02*
D03*
X79331D02*
D03*
X129331D02*
D03*
X134331D02*
D03*
X139331D02*
D03*
X144331D02*
D03*
X149331D02*
D03*
X124331D02*
D03*
X119331D02*
D03*
X114331D02*
D03*
X109331D02*
D03*
X104331D02*
D03*
Y319646D02*
D03*
X109331D02*
D03*
X114331D02*
D03*
X119331D02*
D03*
X124331D02*
D03*
X149331D02*
D03*
X144331D02*
D03*
X139331D02*
D03*
X134331D02*
D03*
X129331D02*
D03*
X79331D02*
D03*
X84331D02*
D03*
X89331D02*
D03*
X94331D02*
D03*
X99331D02*
D03*
X74331D02*
D03*
X69331D02*
D03*
X64331D02*
D03*
X59331D02*
D03*
X54331D02*
D03*
D56*
X31850Y301142D02*
D03*
X182992Y272874D02*
D03*
X64882Y68386D02*
D03*
X152717Y121102D02*
D03*
D57*
X15590Y228504D02*
D03*
Y238504D02*
D03*
Y248504D02*
D03*
X14921Y95512D02*
D03*
Y105512D02*
D03*
X149621Y47402D02*
D03*
Y37402D02*
D03*
Y27402D02*
D03*
X117038Y47402D02*
D03*
Y37402D02*
D03*
Y27402D02*
D03*
X84456Y47402D02*
D03*
Y37402D02*
D03*
Y27402D02*
D03*
X51874Y47402D02*
D03*
Y37402D02*
D03*
Y27402D02*
D03*
X19291Y47402D02*
D03*
Y37402D02*
D03*
Y27402D02*
D03*
X182165Y37543D02*
D03*
Y27543D02*
D03*
X167598Y260236D02*
D03*
Y250236D02*
D03*
X177598Y260236D02*
D03*
Y250236D02*
D03*
X187598Y260236D02*
D03*
Y250236D02*
D03*
X188031Y233858D02*
D03*
Y223858D02*
D03*
D58*
X185354Y202284D02*
D03*
Y174724D02*
D03*
D59*
X174724Y198346D02*
D03*
Y178661D02*
D03*
D60*
X192914Y330709D02*
D03*
Y299213D02*
D03*
X188977Y291339D02*
D03*
X192914Y283465D02*
D03*
Y267717D02*
D03*
X185040Y330709D02*
D03*
Y314961D02*
D03*
Y299213D02*
D03*
X181103Y291339D02*
D03*
X185040Y283465D02*
D03*
X177166Y330709D02*
D03*
Y299213D02*
D03*
X173229Y291339D02*
D03*
X177166Y283465D02*
D03*
X173229Y275591D02*
D03*
X177166Y267717D02*
D03*
X169291Y330709D02*
D03*
X165355Y322835D02*
D03*
X169291Y314961D02*
D03*
X165355Y307087D02*
D03*
Y291339D02*
D03*
Y275591D02*
D03*
X169291Y267717D02*
D03*
X161417Y330709D02*
D03*
X157481Y322835D02*
D03*
X161417Y314961D02*
D03*
X157481Y307087D02*
D03*
X161417Y299213D02*
D03*
Y283465D02*
D03*
Y267717D02*
D03*
X157481Y259843D02*
D03*
X153543Y330709D02*
D03*
Y314961D02*
D03*
X149607Y307087D02*
D03*
Y259843D02*
D03*
X145669Y330709D02*
D03*
X141733Y307087D02*
D03*
Y291339D02*
D03*
Y275591D02*
D03*
Y259843D02*
D03*
X137795Y330709D02*
D03*
X133858Y307087D02*
D03*
X137795Y299213D02*
D03*
X133858Y291339D02*
D03*
X137795Y283465D02*
D03*
X133858Y275591D02*
D03*
X137795Y267717D02*
D03*
X133858Y259843D02*
D03*
X125984Y307087D02*
D03*
X129921Y299213D02*
D03*
X125984Y291339D02*
D03*
X129921Y283465D02*
D03*
X125984Y275591D02*
D03*
X129921Y267717D02*
D03*
X125984Y259843D02*
D03*
X122047Y299213D02*
D03*
Y283465D02*
D03*
X118110Y275591D02*
D03*
X122047Y267717D02*
D03*
X118110Y259843D02*
D03*
X110236Y307087D02*
D03*
X114173Y299213D02*
D03*
X110236Y291339D02*
D03*
X114173Y267717D02*
D03*
X106299Y330709D02*
D03*
X102362Y307087D02*
D03*
X106299Y299213D02*
D03*
X102362Y291339D02*
D03*
X106299Y283465D02*
D03*
X102362Y275591D02*
D03*
X106299Y267717D02*
D03*
X102362Y259843D02*
D03*
X98425Y330709D02*
D03*
X94488Y307087D02*
D03*
X98425Y299213D02*
D03*
X94488Y291339D02*
D03*
X98425Y283465D02*
D03*
X94488Y275591D02*
D03*
X98425Y267717D02*
D03*
X94488Y259843D02*
D03*
X90551Y330709D02*
D03*
X86614Y307087D02*
D03*
X90551Y299213D02*
D03*
X86614Y291339D02*
D03*
X90551Y283465D02*
D03*
X86614Y275591D02*
D03*
X90551Y267717D02*
D03*
X86614Y259843D02*
D03*
X82677Y330709D02*
D03*
X78740Y307087D02*
D03*
X82677Y299213D02*
D03*
X78740Y291339D02*
D03*
X82677Y283465D02*
D03*
X78740Y275591D02*
D03*
X82677Y267717D02*
D03*
X78740Y259843D02*
D03*
X74803Y330709D02*
D03*
X70866Y307087D02*
D03*
X74803Y299213D02*
D03*
X70866Y291339D02*
D03*
X74803Y283465D02*
D03*
X70866Y275591D02*
D03*
X74803Y267717D02*
D03*
X70866Y259843D02*
D03*
X66929Y330709D02*
D03*
X62992Y307087D02*
D03*
X66929Y299213D02*
D03*
X62992Y291339D02*
D03*
X66929Y283465D02*
D03*
X62992Y275591D02*
D03*
X66929Y267717D02*
D03*
X62992Y259843D02*
D03*
X59055Y330709D02*
D03*
X55118Y307087D02*
D03*
X59055Y299213D02*
D03*
X55118Y291339D02*
D03*
X59055Y283465D02*
D03*
X55118Y275591D02*
D03*
X59055Y267717D02*
D03*
X55118Y259843D02*
D03*
X51181Y314961D02*
D03*
Y299213D02*
D03*
Y283465D02*
D03*
Y267717D02*
D03*
X47244Y259843D02*
D03*
X43307Y283465D02*
D03*
X35433D02*
D03*
X23622Y275591D02*
D03*
Y259843D02*
D03*
X15748Y275591D02*
D03*
X19685Y267717D02*
D03*
X15748Y259843D02*
D03*
M02*
