M48
;Layer_Color=9474304
;FILE_FORMAT=2:5
INCH,LZ
;TYPE=PLATED
T1F00S00C0.01181
T2F00S00C0.03937
T3F00S00C0.11417
;TYPE=NON_PLATED
T4F00S00C0.03346
T5F00S00C0.04331
%
T01
X0120472Y001811
X0130709
X0140945
X0151181
X0161417
X0171653
X018189
X0182054Y0045709
X0187598Y0043543
X0187008Y0048819
X0187795Y0054685
X0184173Y0057559
X0184015Y0061142
X0187008Y0069291
X0176772
X0170236Y0066102
X0162716Y0066339
X0161417Y0079527
X0171653
X0170591Y0075551
X0166535Y0089764
X0172874Y0097756
X0161417Y01
X0146535Y0097402
X0146063Y0089764
X0140945Y01
X0128701Y010748
X0157677Y0115157
X0168425Y0115236
X0174134Y0115276
X0184685Y0115512
X0187008Y0089764
X0180669Y0084134
X0140945Y0079527
X0125591Y0069291
X012559Y0062479
X0117953Y0059409
X0125591Y0048819
X0135827
X0140945Y0038583
X0130709
X0161417
X0160591Y0031693
X0171653Y0038583
X0166535Y0048819
X0156299
X0150394Y0060866
X0116063Y0080787
X0115354Y0069291
X0102402Y0066654
X0094693Y0066425
X0094252Y0074961
X0083523Y0059685
X0074409Y0048819
X0064173
X0069291Y0038583
X0059055
Y001811
X0069291
X0079527
X0089764
X01
X0110236
Y0038583
X01
X0038583
X0028346
X0033465Y0048819
X0043701
X0045827Y0060748
X0043701Y0069291
X0036378Y0066535
X0028858Y0066575
X0027815Y0075433
X001811Y0079527
X0023228Y0089764
X0033465
X0046339Y010126
X0043701Y0110236
X0064173
X0059331Y010126
X0073347Y0101654
X0074409Y0089764
X0087441Y0101457
X0084646Y0110236
X010311Y0106772
X0100787Y010315
X0023228Y0110236
X0012992Y0069291
X0019134Y0060945
X0012992Y0048819
X0007874Y0038583
X0012992Y0028346
X001811Y001811
X0028346
X0038583
X0048819
X0007874
X0012953Y0140905
X0016339Y0140827
X0020276Y0140905
X0011036Y0147102
X0017362Y0153781
X0033347Y0150315
X0038858Y0151969
X0045984Y0152835
X0049961Y0152756
X0050197Y0148125
X0047047Y0148189
X004689Y0143091
X0050354Y014315
X0050276Y0133819
X0047165Y0133858
X0053642Y0126181
X0061929Y012126
X0066102Y012374
X0069291Y0120472
X0079527
X0074409Y0130709
X0074331Y0144803
X0065748Y0145119
X0059606Y0142283
X0059655Y0152047
X0061339Y0156732
X0059055Y0161417
X0054016Y0166693
X0053937Y0171653
X0043701
X0025236Y0171614
X001811Y018189
X0012992Y0192126
X0016142Y0202716
X0032874Y0203006
X0032677Y0198779
X0038583Y0202362
X004311Y0203307
X0043583Y0207835
X004378Y0198661
X0052008Y0190551
X0059055Y0202362
X0061575Y0206457
X0065512Y0206535
X0069331
X0073779Y0204252
X0078504Y0191063
X0070433Y0174134
X0067733Y0171433
X0064949Y016865
X0067953Y0155
X0079527Y0161417
X0087362Y0156181
X0089645Y0154173
X0090039Y0151142
X0087283Y0146535
X009189Y0156732
X0097165Y0152992
X010172Y0148177
X0106051
X0110382
X0114713
Y0143846
X0110382
X0106051
X010172
Y0139516
X0106051
X0110382
X0114713
Y0135185
X0110382
X0106051
X010172
X0092768Y0136169
X0092441Y0133149
X0097598Y0120299
X0106217Y0120181
X0109665Y012024
X0113232
X0105089Y0126339
X0113661Y0156378
X0112756Y0160787
X0109665Y0175787
X0105984
X010189Y0175748
X0105118Y0192126
X0108345Y0192047
X01Y0202362
X0100354Y0218583
X0091929Y0223071
X0094882Y0233071
X009874Y023189
X01Y0243307
X0089764
X0086024Y0236575
X0080197Y0236457
X0074331Y0232874
X0072284Y0228937
X0072323Y0223071
X006563Y0219724
X005315Y0220256
X0048228Y0222008
X0036496Y0220197
X0032126Y0218583
X0033937Y0208701
X001811Y0222835
X0015472Y0220748
X0028346Y0243307
X0029921Y0262126
X0023622Y0259843
X0015748
X0008071Y0262126
X0019685Y0267717
X0051181
X0059055
X0066929
X0074803
X0082677
X0090551
X0098425
X0106299
X0114173
X0102362Y0259843
X0094488
X0086614
X007874
X0070866
X0062992
X0055118
X0047244
X0048504Y0249449
X0046339Y0235039
X0069291Y0243307
X0078268Y0217795
X0047126Y0118307
X011674Y0120047
X0120248Y012015
X0122362Y0127953
X0132323Y0128268
X0140748Y0129252
X0141966Y0133423
X0141614Y0137008
X0140945Y0140945
X0145315Y0146299
X0152402Y0143898
Y0149252
X0155591Y0160646
X0148382
X0144567Y0168937
X014315Y0172087
X0151969Y0174961
X0161417Y018189
X0164724Y0183268
X0168268Y0180354
Y0191575
X0171653Y0202362
X0166535Y0212598
X0171653Y0222835
X0166535Y0233071
X0156299
X0146063
X0140945Y0243307
X0130246Y0240866
X0133858Y0259843
X0141733
X0149607
X0149528Y0256614
X0157481Y0259843
X0161417Y0267717
X0169291
X0177166
X0192914
X0145905Y0270276
X0137795Y0267717
X0129921
X0122047
X0125984Y0259843
X011811
X0120039Y0221378
X0126929Y0211929
X0129587Y0205768
X0119606Y0200079
X0120248Y0188476
X0120748Y0174094
X011805Y015762
X0124134Y0145512
X0125815Y0142469
X0124252Y0139763
X0131496Y0148622
X013311Y0166417
X0140945Y018189
X0147638Y0193346
X014811Y0214764
X0161417Y0243307
X0164685Y0170905
Y0159724
X0170709Y0159961
X0174055Y0167087
X018189Y0161417
X0176772Y0151181
X0185236Y0149055
Y0140276
X0180748Y0138347
X0170945Y0140118
Y0144449
X0166614
Y0140118
X0176772Y0130709
X018189Y0120472
X0187835Y0126063
X0191299Y0125984
X0194685Y0144331
X0187008Y0192126
X0136221Y0120354
X0132322Y0117046
X0133858Y0275591
X0141733
X0145787Y0275
X0145591Y0284842
X0137795Y0283465
X0129921
X0122047
X0125984Y0291339
X0133858
X0141733
X0145905Y0294764
X0146181Y03
X0137795Y0299213
X0129921
X0122047
X0125984Y0307087
X0124055Y031063
X0133858Y0307087
X0141733
X0149607
X0149331Y0312205
X0153543Y0314961
X0161417
X0169291
X0165355Y0322835
X0157481
X0161417Y0330709
X0169291
X0177166
X018504
X0192914
X018504Y0314961
Y0299213
X0192914
X0188977Y0291339
X0181103
X0173229
X0165355
X0161417Y0299213
X0165355Y0307087
X0157481
X0177166Y0299213
Y0283465
X018504
X0192914
X0173229Y0275591
X0165355
X0161417Y0283465
X0125984Y0275591
X011811
X0137795Y0330709
X0145669
X0153543
X0106299
X0098425
X0090551
X0082677
X0074803
X0066929
X0059055
X0051181Y0314961
X0054125Y031189
X0055118Y0307087
X0062992
X0070866
X007874
X0086614
X0084134Y0311417
X0082677Y0299213
X0090551
X0098425
X0106299
X0114173
X0110236Y0307087
X0102362
X0094488
Y0291339
X0102362
X0110236
X0106299Y0283465
X0098425
X0090551
X0082677
X0074803
X0066929
X0059055
X0051181
X0043307
X0035433
X0023622Y0275591
X0015748
X0055118
X0062992
X0070866
X007874
X0086614
X0094488
X0102362
X0086614Y0291339
X007874
X0070866
X0062992
X0055118
X0059055Y0299213
X0066929
X0074803
X0051181
T02
X0117038Y0027402
Y0037402
Y0047402
X0149621
Y0037402
Y0027402
X0182165Y0027543
Y0037543
X0084456Y0037402
Y0047402
Y0027402
X0051874
Y0037402
Y0047402
X0019291
Y0037402
Y0027402
X0014921Y0095512
Y0105512
X001559Y0228504
Y0238504
Y0248504
X0167598Y0250236
Y0260236
X0177598
Y0250236
X0187598
Y0260236
X0188031Y0233858
Y0223858
T03
X0064882Y0068386
X0152717Y0121102
X0182992Y0272874
X003185Y0301142
T04
X0174724Y0178661
Y0198346
T05
X0185354Y0174724
Y0202284
M30
