G04*
G04 #@! TF.GenerationSoftware,Altium Limited,Altium Designer,19.0.10 (269)*
G04*
G04 Layer_Physical_Order=1*
G04 Layer_Color=255*
%FSLAX25Y25*%
%MOIN*%
G70*
G01*
G75*
%ADD12C,0.00787*%
%ADD61C,0.03150*%
%ADD62R,0.03543X0.02362*%
%ADD63O,0.03937X0.01968*%
%ADD64R,0.08465X0.11811*%
%ADD65R,0.16535X0.05906*%
%ADD66R,0.04528X0.02953*%
%ADD67O,0.01181X0.05315*%
%ADD68R,0.02362X0.03543*%
G04:AMPARAMS|DCode=69|XSize=9.84mil|YSize=27.56mil|CornerRadius=2.46mil|HoleSize=0mil|Usage=FLASHONLY|Rotation=270.000|XOffset=0mil|YOffset=0mil|HoleType=Round|Shape=RoundedRectangle|*
%AMROUNDEDRECTD69*
21,1,0.00984,0.02264,0,0,270.0*
21,1,0.00492,0.02756,0,0,270.0*
1,1,0.00492,-0.01132,-0.00246*
1,1,0.00492,-0.01132,0.00246*
1,1,0.00492,0.01132,0.00246*
1,1,0.00492,0.01132,-0.00246*
%
%ADD69ROUNDEDRECTD69*%
%ADD70R,0.06496X0.05315*%
%ADD71R,0.03150X0.03150*%
%ADD72R,0.06496X0.09370*%
%ADD73R,0.03543X0.05118*%
%ADD74R,0.05118X0.03543*%
%ADD75R,0.03150X0.03150*%
%ADD76R,0.05118X0.07874*%
%ADD77R,0.07874X0.07874*%
%ADD78R,0.03150X0.02362*%
%ADD79R,0.02559X0.04528*%
%ADD80R,0.08465X0.10827*%
%ADD81R,0.02362X0.03937*%
%ADD82R,0.05315X0.01575*%
%ADD83R,0.08661X0.04134*%
%ADD84R,0.03937X0.03937*%
%ADD85R,0.02362X0.03150*%
%ADD86O,0.03347X0.00787*%
%ADD87O,0.00787X0.03347*%
%ADD88R,0.18110X0.18110*%
%ADD89O,0.03937X0.00984*%
%ADD90O,0.00984X0.03937*%
%ADD91R,0.07795X0.07795*%
%ADD92R,0.05512X0.04724*%
%ADD93R,0.01968X0.01968*%
%ADD94R,0.03465X0.03898*%
%ADD95R,0.01968X0.01968*%
%ADD96R,0.04724X0.03150*%
%ADD97R,0.02362X0.04331*%
%ADD98R,0.05906X0.09449*%
%ADD99R,0.02953X0.04528*%
%ADD100R,0.05315X0.06496*%
%ADD101R,0.00984X0.02756*%
G04:AMPARAMS|DCode=102|XSize=78.74mil|YSize=31.5mil|CornerRadius=7.87mil|HoleSize=0mil|Usage=FLASHONLY|Rotation=0.000|XOffset=0mil|YOffset=0mil|HoleType=Round|Shape=RoundedRectangle|*
%AMROUNDEDRECTD102*
21,1,0.07874,0.01575,0,0,0.0*
21,1,0.06299,0.03150,0,0,0.0*
1,1,0.01575,0.03150,-0.00787*
1,1,0.01575,-0.03150,-0.00787*
1,1,0.01575,-0.03150,0.00787*
1,1,0.01575,0.03150,0.00787*
%
%ADD102ROUNDEDRECTD102*%
G04:AMPARAMS|DCode=103|XSize=78.74mil|YSize=31.5mil|CornerRadius=7.87mil|HoleSize=0mil|Usage=FLASHONLY|Rotation=270.000|XOffset=0mil|YOffset=0mil|HoleType=Round|Shape=RoundedRectangle|*
%AMROUNDEDRECTD103*
21,1,0.07874,0.01575,0,0,270.0*
21,1,0.06299,0.03150,0,0,270.0*
1,1,0.01575,-0.00787,-0.03150*
1,1,0.01575,-0.00787,0.03150*
1,1,0.01575,0.00787,0.03150*
1,1,0.01575,0.00787,-0.03150*
%
%ADD103ROUNDEDRECTD103*%
%ADD104C,0.01575*%
%ADD105C,0.11417*%
%ADD106C,0.07874*%
G04:AMPARAMS|DCode=107|XSize=78.74mil|YSize=74.8mil|CornerRadius=18.7mil|HoleSize=0mil|Usage=FLASHONLY|Rotation=90.000|XOffset=0mil|YOffset=0mil|HoleType=Round|Shape=RoundedRectangle|*
%AMROUNDEDRECTD107*
21,1,0.07874,0.03740,0,0,90.0*
21,1,0.04134,0.07480,0,0,90.0*
1,1,0.03740,0.01870,0.02067*
1,1,0.03740,0.01870,-0.02067*
1,1,0.03740,-0.01870,-0.02067*
1,1,0.03740,-0.01870,0.02067*
%
%ADD107ROUNDEDRECTD107*%
%ADD108C,0.05709*%
%ADD109C,0.02362*%
G36*
X195953Y13496D02*
X897D01*
Y338315D01*
X195953D01*
Y13496D01*
D02*
G37*
%LPC*%
G36*
X115787Y335315D02*
X113819D01*
Y333347D01*
X115787D01*
Y335315D01*
D02*
G37*
G36*
X113031D02*
X111063D01*
Y333347D01*
X113031D01*
Y335315D01*
D02*
G37*
G36*
X121535Y335157D02*
X117126D01*
Y330748D01*
X117126D01*
Y330315D01*
X117126D01*
Y325905D01*
X117886D01*
Y324060D01*
X117522Y323817D01*
X117208Y323348D01*
X117098Y322795D01*
Y316496D01*
X117208Y315943D01*
X117522Y315474D01*
X117886Y315231D01*
Y289811D01*
X108309Y280234D01*
X107996Y279766D01*
X107886Y279213D01*
Y254060D01*
X107521Y253817D01*
X107208Y253348D01*
X107166Y253135D01*
X106656D01*
X106602Y253410D01*
X106254Y253931D01*
X105733Y254279D01*
X105118Y254401D01*
X104724D01*
Y249646D01*
Y244890D01*
X105118D01*
X105733Y245013D01*
X106254Y245361D01*
X106602Y245882D01*
X106656Y246156D01*
X107166D01*
X107208Y245943D01*
X107521Y245474D01*
X107990Y245161D01*
X108543Y245051D01*
X109520D01*
X114668Y239903D01*
X115136Y239590D01*
X115689Y239480D01*
X117422D01*
Y238465D01*
X118181D01*
Y237953D01*
X117422D01*
Y237134D01*
X111009D01*
X110984Y237150D01*
X110815Y237184D01*
Y237816D01*
X110984Y237850D01*
X111518Y238206D01*
X111875Y238740D01*
X112000Y239370D01*
X111875Y240000D01*
X111518Y240534D01*
X110984Y240891D01*
X110354Y241016D01*
X108386D01*
X107756Y240891D01*
X107222Y240534D01*
X106865Y240000D01*
X106740Y239370D01*
X106865Y238740D01*
X107222Y238206D01*
X107756Y237850D01*
X107925Y237816D01*
Y237184D01*
X107756Y237150D01*
X107643Y237075D01*
X100467D01*
X100354Y237150D01*
X100185Y237184D01*
Y237816D01*
X100354Y237850D01*
X100888Y238206D01*
X101245Y238740D01*
X101370Y239370D01*
X101245Y240000D01*
X100888Y240534D01*
X100354Y240891D01*
X99724Y241016D01*
X97756D01*
X97126Y240891D01*
X96592Y240534D01*
X96235Y240000D01*
X96110Y239370D01*
X96235Y238740D01*
X96592Y238206D01*
X97126Y237850D01*
X97295Y237816D01*
Y237184D01*
X97126Y237150D01*
X96592Y236794D01*
X96235Y236260D01*
X96110Y235630D01*
X96235Y235000D01*
X96592Y234466D01*
X97126Y234109D01*
X97602Y234015D01*
Y233505D01*
X97126Y233410D01*
X96592Y233053D01*
X96235Y232520D01*
X96110Y231890D01*
X96235Y231260D01*
X96592Y230726D01*
X97126Y230369D01*
X97756Y230244D01*
X97944D01*
X98033Y230184D01*
X98740Y230043D01*
X99447Y230184D01*
X99537Y230244D01*
X99724D01*
X100354Y230369D01*
X100888Y230726D01*
X101245Y231260D01*
X101370Y231890D01*
X101245Y232520D01*
X100888Y233053D01*
X100354Y233410D01*
X99878Y233505D01*
Y234015D01*
X100354Y234109D01*
X100467Y234185D01*
X107643D01*
X107756Y234109D01*
X108232Y234015D01*
Y233505D01*
X107756Y233410D01*
X107222Y233053D01*
X106865Y232520D01*
X106740Y231890D01*
X106865Y231260D01*
X107222Y230726D01*
X107756Y230369D01*
X107925Y230336D01*
Y228453D01*
X102047D01*
X101494Y228343D01*
X101025Y228030D01*
X94793Y221797D01*
X94331Y221988D01*
Y224882D01*
X92107D01*
X91929Y224917D01*
X91751Y224882D01*
X89528D01*
Y221260D01*
X90886D01*
Y219213D01*
X89449D01*
Y215591D01*
X94252D01*
Y217169D01*
X101646Y224563D01*
X102146Y224356D01*
Y218976D01*
X106772D01*
Y224783D01*
X102698D01*
X102493Y225250D01*
X102741Y225563D01*
X112354D01*
X114657Y223260D01*
Y185047D01*
X111055Y181445D01*
X110472D01*
Y182205D01*
X106063D01*
Y181733D01*
X103224D01*
Y183287D01*
X101646D01*
X99345Y185589D01*
X99306Y185980D01*
X101364Y188038D01*
X101364Y188038D01*
X101590Y188376D01*
X101670Y188776D01*
X102131Y188917D01*
X103224D01*
Y192638D01*
X107903Y197317D01*
X107903Y197317D01*
X108130Y197656D01*
X108209Y198055D01*
X108209Y198055D01*
Y198760D01*
X112028D01*
Y210846D01*
X102303D01*
Y198760D01*
X105687D01*
X105894Y198260D01*
X101748Y194114D01*
X99642D01*
Y194272D01*
X98067D01*
Y191516D01*
X97280D01*
Y194272D01*
X95705D01*
Y194114D01*
X92122D01*
Y192658D01*
X86221D01*
Y194016D01*
X82598D01*
Y189213D01*
X83366D01*
Y184636D01*
X72769Y174039D01*
X72555Y174081D01*
X72259Y174236D01*
X72139Y174840D01*
X71739Y175440D01*
X71140Y175840D01*
X70433Y175980D01*
X70374Y176029D01*
Y205055D01*
X70636Y205230D01*
X71037Y205829D01*
X71177Y206535D01*
X71037Y207242D01*
X70636Y207841D01*
X70037Y208241D01*
X69331Y208382D01*
X68624Y208241D01*
X68025Y207841D01*
X67699Y207353D01*
X67537Y207316D01*
X67305D01*
X67143Y207353D01*
X66817Y207841D01*
X66218Y208241D01*
X65512Y208382D01*
X64805Y208241D01*
X64206Y207841D01*
X63806Y207242D01*
X63790Y207164D01*
X63282Y207163D01*
X63280Y207164D01*
X62880Y207762D01*
X62281Y208163D01*
X61575Y208303D01*
X60868Y208163D01*
X60269Y207762D01*
X59869Y207163D01*
X59728Y206457D01*
X59869Y205750D01*
X60269Y205151D01*
X60531Y204976D01*
Y172024D01*
X60531Y172024D01*
X60611Y171624D01*
X60837Y171286D01*
X63164Y168959D01*
X63102Y168650D01*
X63243Y167943D01*
X63643Y167344D01*
X64242Y166944D01*
X64846Y166823D01*
X65002Y166528D01*
X65043Y166313D01*
X60601Y161871D01*
X60374Y161532D01*
X60295Y161133D01*
X60295Y161133D01*
Y158213D01*
X60033Y158038D01*
X59633Y157439D01*
X59492Y156732D01*
X59633Y156026D01*
X60033Y155427D01*
X60552Y155080D01*
X60631Y154862D01*
X60638Y154821D01*
X60646Y154514D01*
X59965Y153832D01*
X59655Y153894D01*
X58949Y153753D01*
X58350Y153353D01*
X57950Y152754D01*
X57809Y152047D01*
X57950Y151341D01*
X58350Y150742D01*
X58925Y150357D01*
X58989Y150297D01*
X59100Y149824D01*
X58489Y149213D01*
X56435D01*
X56041Y149695D01*
Y150187D01*
X55973Y150529D01*
X55779Y150819D01*
X55489Y151012D01*
X55148Y151080D01*
X55059D01*
Y153740D01*
X56221D01*
Y158150D01*
X51811D01*
Y153740D01*
X52972D01*
Y151080D01*
X52884D01*
X52542Y151012D01*
X52500Y150984D01*
X48898D01*
Y145512D01*
Y140039D01*
X52423D01*
X54784Y137463D01*
X54583Y137005D01*
X53140D01*
X52697Y137343D01*
Y137343D01*
X49055D01*
Y133898D01*
X48268D01*
Y137343D01*
X44626D01*
Y137343D01*
X44183Y137166D01*
X43445D01*
Y135866D01*
X42658D01*
Y137166D01*
X41919D01*
X41862Y137213D01*
X41779Y137760D01*
X43962Y139944D01*
X44124D01*
X44148Y139948D01*
X44409D01*
X44655Y139997D01*
X44718Y140039D01*
X48110D01*
Y145512D01*
Y150984D01*
X44508D01*
X44466Y151012D01*
X44124Y151080D01*
X44036D01*
Y154726D01*
X45472D01*
Y154569D01*
X47638D01*
Y156537D01*
Y158505D01*
X45472D01*
Y158348D01*
X40936D01*
X40808Y158538D01*
X40600Y158677D01*
X40354Y158726D01*
X36508D01*
Y160632D01*
X50433D01*
Y164253D01*
X36508D01*
Y173576D01*
X36862Y173930D01*
X57472Y173915D01*
X57472Y173915D01*
X57473Y173915D01*
X57594Y173939D01*
X57718Y173963D01*
X57718Y173964D01*
X57718Y173964D01*
X57821Y174032D01*
X57926Y174102D01*
X57927Y174103D01*
X57927Y174103D01*
X57997Y174208D01*
X58066Y174311D01*
X58066Y174311D01*
X58066Y174311D01*
X58091Y174434D01*
X58115Y174557D01*
X58115Y174557D01*
X58115Y174557D01*
Y193504D01*
X58066Y193750D01*
X57927Y193958D01*
X57718Y194097D01*
X57473Y194146D01*
X20924Y194146D01*
X20678Y194097D01*
X20470Y193958D01*
X20331Y193750D01*
X20282Y193504D01*
Y180655D01*
X18050Y178424D01*
X17824Y178085D01*
X17744Y177685D01*
X17744Y177685D01*
Y168495D01*
X16268Y167018D01*
X15768Y167225D01*
Y170927D01*
X9980D01*
Y168190D01*
X8021Y166231D01*
X7559Y166422D01*
Y238997D01*
X13169Y244606D01*
X13287Y244515D01*
X14398Y244055D01*
X15590Y243898D01*
X16783Y244055D01*
X17894Y244515D01*
X18848Y245247D01*
X19580Y246201D01*
X20040Y247312D01*
X20197Y248504D01*
X20040Y249696D01*
X19580Y250807D01*
X18848Y251761D01*
X17894Y252493D01*
X16783Y252953D01*
X15590Y253110D01*
X14398Y252953D01*
X13287Y252493D01*
X12333Y251761D01*
X11601Y250807D01*
X11141Y249696D01*
X10984Y248504D01*
X11141Y247312D01*
X11601Y246201D01*
X11693Y246082D01*
X5778Y240167D01*
X5551Y239828D01*
X5472Y239429D01*
X5472Y239429D01*
Y153804D01*
X5472Y153804D01*
X5551Y153404D01*
X5778Y153066D01*
X9811Y149032D01*
Y148462D01*
X9730Y148408D01*
X9330Y147809D01*
X9189Y147102D01*
X9330Y146396D01*
X9730Y145796D01*
X10329Y145396D01*
X11036Y145256D01*
X11742Y145396D01*
X12341Y145796D01*
X12742Y146396D01*
X12882Y147102D01*
X12742Y147809D01*
X12341Y148408D01*
X11899Y148704D01*
Y149464D01*
X11819Y149864D01*
X11612Y150173D01*
X11660Y150395D01*
X11775Y150673D01*
X12884D01*
X13327Y150336D01*
Y150336D01*
X16969D01*
Y153781D01*
X17756D01*
Y150336D01*
X21398D01*
Y150336D01*
X21840Y150513D01*
X22579D01*
Y151813D01*
X23366D01*
Y150513D01*
X24104D01*
X24212Y150534D01*
X24712Y150174D01*
X24712Y147394D01*
X24726Y147326D01*
X24727Y147257D01*
X24750Y147204D01*
X24761Y147148D01*
X24799Y147091D01*
X24827Y147027D01*
X28331Y141988D01*
X28372Y141948D01*
X28404Y141900D01*
X28462Y141862D01*
X28511Y141814D01*
X28565Y141793D01*
X28613Y141761D01*
X28680Y141748D01*
X28745Y141722D01*
X28802Y141724D01*
X28858Y141712D01*
X33701D01*
Y140650D01*
X38110D01*
Y141712D01*
X40190D01*
X40382Y141250D01*
X38632Y139500D01*
X32992Y139500D01*
X32746Y139452D01*
X32538Y139312D01*
X32538Y139312D01*
X24813Y131587D01*
X7874D01*
X7628Y131538D01*
X7420Y131399D01*
X4979Y128958D01*
X4840Y128750D01*
X4791Y128504D01*
X4791Y128504D01*
Y124213D01*
X4840Y123967D01*
X4979Y123758D01*
X4979Y123758D01*
X8325Y120412D01*
X8534Y120273D01*
X8779Y120224D01*
X8780Y120224D01*
X46260Y120224D01*
X46506Y120273D01*
X46714Y120412D01*
X49588Y123286D01*
X49727Y123494D01*
X49776Y123740D01*
X49776Y123740D01*
X49776Y127827D01*
X50156Y128141D01*
X50591Y127982D01*
Y126575D01*
X53642D01*
Y126181D01*
X54035D01*
Y123917D01*
X55885D01*
Y121633D01*
X55059Y120807D01*
X50748D01*
Y116595D01*
X50313Y116437D01*
X37913D01*
X37913Y116437D01*
X37514Y116358D01*
X37175Y116132D01*
X37175Y116132D01*
X28750Y107706D01*
X28524Y107368D01*
X28444Y106968D01*
X28444Y106968D01*
Y103071D01*
X27087D01*
Y99449D01*
X31890D01*
Y103071D01*
X30532D01*
Y106536D01*
X38346Y114350D01*
X40803D01*
X40995Y113888D01*
X37727Y110620D01*
X37500Y110281D01*
X37421Y109882D01*
X37421Y109882D01*
Y98937D01*
X36555D01*
Y93150D01*
X37421D01*
Y88937D01*
X35906D01*
Y85315D01*
X40661D01*
X40709Y85315D01*
X41161Y85200D01*
Y83146D01*
X40709Y83031D01*
X40661Y83031D01*
X35906D01*
Y82264D01*
X29029D01*
X29029Y82264D01*
X28630Y82185D01*
X28291Y81959D01*
X28291Y81958D01*
X14036Y67703D01*
X11890D01*
Y63294D01*
X15512D01*
Y66227D01*
X16941Y67656D01*
X17441Y67449D01*
Y65892D01*
X19016D01*
Y67861D01*
X17852D01*
X17645Y68361D01*
X29462Y80177D01*
X35906D01*
Y79409D01*
X40661D01*
X40709Y79409D01*
X41161Y79295D01*
Y73661D01*
X39961Y72461D01*
X34974D01*
X34764Y72874D01*
X34764Y72961D01*
Y75039D01*
X32795D01*
X30827D01*
Y72961D01*
X30827Y72874D01*
X30617Y72461D01*
X27520D01*
X27520Y72461D01*
X27120Y72382D01*
X26782Y72155D01*
X26782Y72155D01*
X23632Y69006D01*
X23406Y68667D01*
X23326Y68268D01*
X23326Y68268D01*
Y52913D01*
X21713Y51300D01*
X21595Y51391D01*
X20483Y51851D01*
X19291Y52008D01*
X18099Y51851D01*
X16988Y51391D01*
X16034Y50659D01*
X15302Y49705D01*
X14842Y48594D01*
X14685Y47402D01*
X14842Y46209D01*
X15302Y45098D01*
X16034Y44144D01*
X16988Y43412D01*
X18099Y42952D01*
X19291Y42795D01*
X20483Y42952D01*
X21595Y43412D01*
X22548Y44144D01*
X23280Y45098D01*
X23741Y46209D01*
X23898Y47402D01*
X23741Y48594D01*
X23280Y49705D01*
X23189Y49824D01*
X25108Y51742D01*
X25108Y51742D01*
X25334Y52081D01*
X25414Y52480D01*
Y67835D01*
X27952Y70374D01*
X40394D01*
X40394Y70374D01*
X40793Y70453D01*
X41132Y70679D01*
X42943Y72490D01*
X42943Y72490D01*
X43169Y72829D01*
X43248Y73228D01*
Y103189D01*
X44114D01*
Y108976D01*
X40295D01*
Y103189D01*
X41161D01*
Y89052D01*
X40709Y88937D01*
X40661Y88937D01*
X39508D01*
Y93150D01*
X40374D01*
Y98937D01*
X39508D01*
Y109450D01*
X42991Y112933D01*
X54268D01*
X54459Y112471D01*
X51437Y109449D01*
X51211Y109110D01*
X51131Y108711D01*
X51131Y108711D01*
Y98937D01*
X50266D01*
Y93150D01*
X51131D01*
Y88937D01*
X49626D01*
Y85315D01*
X54372D01*
X54429Y85315D01*
X54872Y85176D01*
Y83170D01*
X54429Y83031D01*
X54372Y83031D01*
X49626D01*
Y79409D01*
X50984D01*
Y67703D01*
X49665D01*
Y63294D01*
X53287D01*
Y67703D01*
X53071D01*
Y79409D01*
X54372D01*
X54429Y79409D01*
X54872Y79271D01*
Y51876D01*
X54296Y51300D01*
X54177Y51391D01*
X53066Y51851D01*
X51874Y52008D01*
X50682Y51851D01*
X49571Y51391D01*
X48616Y50659D01*
X47885Y49705D01*
X47424Y48594D01*
X47267Y47402D01*
X47424Y46209D01*
X47885Y45098D01*
X48616Y44144D01*
X49571Y43412D01*
X50682Y42952D01*
X51874Y42795D01*
X53066Y42952D01*
X54177Y43412D01*
X55131Y44144D01*
X55863Y45098D01*
X56323Y46209D01*
X56480Y47402D01*
X56323Y48594D01*
X55863Y49705D01*
X55772Y49824D01*
X56653Y50705D01*
X56653Y50705D01*
X56880Y51044D01*
X56959Y51443D01*
X56959Y51443D01*
Y103189D01*
X57825D01*
Y108976D01*
X54624D01*
X54417Y109476D01*
X56456Y111515D01*
X66866D01*
X67058Y111053D01*
X65148Y109143D01*
X64922Y108805D01*
X64842Y108405D01*
X64842Y108405D01*
Y98937D01*
X63976D01*
Y93150D01*
X64842D01*
Y88937D01*
X63346D01*
Y85315D01*
X68150D01*
Y85315D01*
X68582Y85153D01*
Y83681D01*
X68582Y83681D01*
X68662Y83282D01*
X68888Y82943D01*
X80561Y71270D01*
X80561Y71270D01*
X80900Y71044D01*
X81299Y70964D01*
X81299Y70964D01*
X84646D01*
X87143Y68467D01*
X86872Y68032D01*
X86536Y68032D01*
X85413D01*
Y66063D01*
X86988D01*
Y67547D01*
X86988Y67915D01*
X87424Y68187D01*
X87972Y67639D01*
Y52394D01*
X86878Y51300D01*
X86759Y51391D01*
X85648Y51851D01*
X84456Y52008D01*
X83264Y51851D01*
X82153Y51391D01*
X81199Y50659D01*
X80467Y49705D01*
X80007Y48594D01*
X79850Y47402D01*
X80007Y46209D01*
X80467Y45098D01*
X81199Y44144D01*
X82153Y43412D01*
X83264Y42952D01*
X84456Y42795D01*
X85648Y42952D01*
X86759Y43412D01*
X87713Y44144D01*
X88445Y45098D01*
X88906Y46209D01*
X89062Y47402D01*
X88906Y48594D01*
X88445Y49705D01*
X88354Y49824D01*
X89754Y51223D01*
X89754Y51223D01*
X89980Y51562D01*
X90059Y51961D01*
X90059Y51961D01*
Y68071D01*
X90059Y68071D01*
X89980Y68470D01*
X89754Y68809D01*
X85817Y72746D01*
X85478Y72972D01*
X85079Y73052D01*
X85079Y73052D01*
X81731D01*
X70670Y84113D01*
Y103189D01*
X71535D01*
Y108976D01*
X68586D01*
X68395Y109438D01*
X69054Y110098D01*
X78913D01*
X79105Y109636D01*
X78829Y109360D01*
X78603Y109022D01*
X78523Y108622D01*
X78523Y108622D01*
Y98937D01*
X77687D01*
Y93150D01*
X78553D01*
Y88937D01*
X77067D01*
Y85315D01*
X81793D01*
X81870Y85315D01*
X82293Y85129D01*
Y83218D01*
X81870Y83031D01*
Y83031D01*
X77067D01*
Y79409D01*
X80394D01*
X90187Y69616D01*
X90526Y69390D01*
X90925Y69311D01*
X90925Y69311D01*
X108472D01*
X111841Y65942D01*
X111841Y65942D01*
X111949Y65869D01*
Y63294D01*
X115571D01*
Y67703D01*
X113073D01*
X113021Y67714D01*
X110468Y70266D01*
X110660Y70728D01*
X118150D01*
X120556Y68323D01*
X120364Y67861D01*
X119862D01*
Y65892D01*
X121437D01*
Y66603D01*
X121924Y66819D01*
X122185Y66612D01*
Y54024D01*
X119460Y51300D01*
X119342Y51391D01*
X118231Y51851D01*
X117038Y52008D01*
X115846Y51851D01*
X114735Y51391D01*
X113781Y50659D01*
X113049Y49705D01*
X112589Y48594D01*
X112432Y47402D01*
X112589Y46209D01*
X113049Y45098D01*
X113781Y44144D01*
X114735Y43412D01*
X115846Y42952D01*
X117038Y42795D01*
X118231Y42952D01*
X119342Y43412D01*
X120296Y44144D01*
X121028Y45098D01*
X121488Y46209D01*
X121645Y47402D01*
X121488Y48594D01*
X121028Y49705D01*
X120937Y49824D01*
X123966Y52854D01*
X124193Y53192D01*
X124272Y53592D01*
X124272Y53592D01*
Y60580D01*
X124772Y60847D01*
X124883Y60773D01*
X125590Y60633D01*
X125899Y60694D01*
X139929Y46664D01*
X139929Y46664D01*
X140268Y46437D01*
X140667Y46358D01*
X140667Y46358D01*
X145152D01*
X145171Y46209D01*
X145632Y45098D01*
X146364Y44144D01*
X147318Y43412D01*
X148429Y42952D01*
X149621Y42795D01*
X150813Y42952D01*
X151924Y43412D01*
X152878Y44144D01*
X153610Y45098D01*
X154070Y46209D01*
X154227Y47402D01*
X154070Y48594D01*
X153610Y49705D01*
X152878Y50659D01*
X151924Y51391D01*
X150813Y51851D01*
X149621Y52008D01*
X148429Y51851D01*
X147318Y51391D01*
X146364Y50659D01*
X145632Y49705D01*
X145171Y48594D01*
X145152Y48445D01*
X141100D01*
X127374Y62170D01*
X127436Y62479D01*
X127295Y63186D01*
X126895Y63785D01*
X126296Y64185D01*
X125590Y64326D01*
X124883Y64185D01*
X124772Y64111D01*
X124272Y64378D01*
Y67126D01*
X124272Y67126D01*
X124193Y67525D01*
X123966Y67864D01*
X119321Y72510D01*
X118982Y72736D01*
X118583Y72815D01*
X118583Y72815D01*
X100830D01*
X100354Y72874D01*
X100354Y73315D01*
Y75039D01*
X98386D01*
Y75433D01*
D01*
Y75039D01*
X96417D01*
X96417Y72874D01*
X95942Y72815D01*
X92046D01*
X84380Y80481D01*
Y103189D01*
X85246D01*
Y108976D01*
X82104D01*
X81897Y109476D01*
X89557Y117136D01*
X89557Y117136D01*
X89783Y117475D01*
X89862Y117874D01*
X89862Y117874D01*
Y129969D01*
X90324Y130160D01*
X92259Y128225D01*
Y98937D01*
X91398D01*
Y93150D01*
X92263D01*
Y88937D01*
X90787D01*
Y85315D01*
X95591D01*
Y88937D01*
X94351D01*
Y93150D01*
X95217D01*
Y98937D01*
X94346D01*
Y112461D01*
X94808Y112653D01*
X98023Y109438D01*
X97831Y108976D01*
X95138D01*
Y103189D01*
X96004D01*
Y92244D01*
X96004Y92244D01*
X96083Y91845D01*
X96309Y91506D01*
X105089Y82726D01*
X104898Y82264D01*
X95591D01*
Y83031D01*
X90787D01*
Y79409D01*
X95591D01*
Y80177D01*
X109686D01*
X114656Y75207D01*
X114656Y75207D01*
X114994Y74981D01*
X115394Y74901D01*
X115394Y74901D01*
X124331D01*
X134472Y64760D01*
X134811Y64534D01*
X135210Y64455D01*
X135210Y64455D01*
X142382D01*
Y63294D01*
X146004D01*
Y67703D01*
X142382D01*
Y66542D01*
X135643D01*
X125502Y76683D01*
X125163Y76909D01*
X124764Y76989D01*
X124764Y76989D01*
X115826D01*
X111486Y81329D01*
X111677Y81791D01*
X113583D01*
X114278Y81097D01*
X114216Y80787D01*
X114357Y80081D01*
X114757Y79482D01*
X115356Y79081D01*
X116063Y78941D01*
X116770Y79081D01*
X117369Y79482D01*
X117769Y80081D01*
X117910Y80787D01*
X117769Y81494D01*
X117369Y82093D01*
X116770Y82493D01*
X116063Y82634D01*
X115754Y82572D01*
X114754Y83573D01*
X114415Y83799D01*
X114016Y83878D01*
X114016Y83878D01*
X106889D01*
X98091Y92676D01*
Y103189D01*
X98909D01*
X98941Y103150D01*
X99081Y102443D01*
X99482Y101844D01*
X100081Y101444D01*
X100787Y101303D01*
X101494Y101444D01*
X102093Y101844D01*
X102493Y102443D01*
X102634Y103150D01*
X102493Y103856D01*
X102093Y104455D01*
X101831Y104630D01*
Y108150D01*
X101752Y108549D01*
X101525Y108888D01*
X101525Y108888D01*
X96441Y113972D01*
X96648Y114472D01*
X97323D01*
Y116244D01*
X98110D01*
Y114472D01*
X100736D01*
Y116244D01*
Y118016D01*
X98543D01*
X98354Y118516D01*
X98412Y118567D01*
X99331D01*
Y118567D01*
X99516D01*
Y118567D01*
X102744D01*
Y121795D01*
X102174D01*
Y127376D01*
X102311Y127489D01*
Y130264D01*
X103098D01*
Y127858D01*
X103166Y127872D01*
X103556Y128133D01*
X103676Y128156D01*
X103880Y128020D01*
X104279Y127941D01*
X104679Y128020D01*
X105067Y128221D01*
X105455Y128020D01*
X105854Y127941D01*
X106254Y128020D01*
X106592Y128246D01*
X106691D01*
X107030Y128020D01*
X107429Y127941D01*
X107828Y128020D01*
X108167Y128246D01*
X108266D01*
X108605Y128020D01*
X109004Y127941D01*
X109035Y127947D01*
X109535Y127552D01*
Y126956D01*
X105719Y123140D01*
X105616Y122985D01*
X105479Y122848D01*
X105252Y122510D01*
X105173Y122110D01*
X104828Y121795D01*
X104602D01*
Y121025D01*
X104511Y120888D01*
X104370Y120181D01*
X104511Y119474D01*
X104602Y119337D01*
Y118567D01*
X104870D01*
X105009Y118292D01*
X104833Y118016D01*
X104445D01*
Y116638D01*
X106217D01*
Y116244D01*
X106610D01*
Y114472D01*
X109331D01*
Y116244D01*
X110118D01*
Y114472D01*
X111461D01*
Y114441D01*
X112839D01*
Y116213D01*
X113626D01*
Y114441D01*
X116347D01*
Y116213D01*
X117134D01*
Y114441D01*
X119854D01*
Y116213D01*
X120248D01*
Y116606D01*
X122020D01*
Y117984D01*
X121632D01*
X121456Y118261D01*
X121594Y118535D01*
X121862D01*
Y119306D01*
X121954Y119443D01*
X122095Y120150D01*
X121954Y120856D01*
X121862Y120994D01*
Y121764D01*
X121292D01*
Y123059D01*
X121212Y123459D01*
X120986Y123797D01*
X120986Y123797D01*
X117922Y126861D01*
Y131543D01*
X117915Y131575D01*
X118322Y131982D01*
X118354Y131976D01*
X123674D01*
X126476Y129174D01*
Y124764D01*
X125118D01*
Y121142D01*
X129921D01*
X129961Y120658D01*
Y120589D01*
X131929D01*
Y122951D01*
Y125313D01*
X129961D01*
Y125248D01*
X129921Y124764D01*
X128563D01*
Y129606D01*
X128484Y130006D01*
X128258Y130344D01*
X128258Y130344D01*
X127465Y131137D01*
X127742Y131567D01*
X130862D01*
Y134342D01*
X131289Y134640D01*
X131413Y134590D01*
Y133575D01*
X133185D01*
Y133181D01*
X133579D01*
Y131409D01*
X134878D01*
Y125733D01*
X134685Y125313D01*
X132717D01*
Y122951D01*
Y120589D01*
X134182D01*
X134374Y120354D01*
X134494Y119750D01*
X134306Y119400D01*
X134179Y119250D01*
X130118D01*
X129921Y118858D01*
X125118D01*
Y115236D01*
X129921D01*
X130118Y114841D01*
X134480D01*
X134528Y114840D01*
X134980Y114726D01*
Y93677D01*
X134143Y92840D01*
X133681Y93032D01*
Y97520D01*
X129055D01*
Y91713D01*
X132362D01*
X132554Y91251D01*
X131480Y90177D01*
X123799D01*
Y78091D01*
X133524D01*
Y82689D01*
X149803D01*
Y78091D01*
X159528D01*
Y82689D01*
X175807D01*
Y78091D01*
X179224D01*
Y52370D01*
X160344Y33490D01*
X159884Y33399D01*
X159285Y32999D01*
X158885Y32399D01*
X158744Y31693D01*
X158760Y31612D01*
X158348Y31392D01*
X157973Y31696D01*
Y42273D01*
X164911Y49212D01*
X165137Y49550D01*
X165217Y49950D01*
X165217Y49950D01*
Y59883D01*
X169311Y63976D01*
X172047D01*
Y65924D01*
X172083Y66102D01*
X172047Y66281D01*
Y68779D01*
X168425D01*
Y66281D01*
X168390Y66102D01*
X168405Y66023D01*
X164261Y61879D01*
X163800Y62071D01*
Y63976D01*
X164567D01*
Y68779D01*
X160945D01*
Y66715D01*
X160870Y66339D01*
X160945Y65962D01*
Y63976D01*
X161712D01*
Y50969D01*
X152043Y41300D01*
X151924Y41391D01*
X150813Y41851D01*
X149621Y42008D01*
X148429Y41851D01*
X147318Y41391D01*
X146364Y40659D01*
X145632Y39705D01*
X145171Y38594D01*
X145015Y37402D01*
X145171Y36209D01*
X145632Y35098D01*
X146364Y34144D01*
X147318Y33412D01*
X148429Y32952D01*
X149621Y32795D01*
X150813Y32952D01*
X151924Y33412D01*
X152878Y34144D01*
X153610Y35098D01*
X154070Y36209D01*
X154227Y37402D01*
X154070Y38594D01*
X153610Y39705D01*
X153519Y39824D01*
X155423Y41728D01*
X155886Y41537D01*
Y31260D01*
X155885Y31260D01*
X155965Y30860D01*
X156191Y30522D01*
X159908Y26805D01*
X159908Y26805D01*
X160247Y26579D01*
X160646Y26499D01*
X160646Y26499D01*
X177696D01*
X177716Y26351D01*
X178176Y25240D01*
X178908Y24286D01*
X179862Y23554D01*
X180973Y23093D01*
X182165Y22937D01*
X183358Y23093D01*
X184468Y23554D01*
X185423Y24286D01*
X186155Y25240D01*
X186615Y26351D01*
X186772Y27543D01*
X186615Y28735D01*
X186155Y29846D01*
X185423Y30800D01*
X184468Y31532D01*
X183358Y31992D01*
X182165Y32149D01*
X180973Y31992D01*
X179862Y31532D01*
X178908Y30800D01*
X178176Y29846D01*
X177716Y28735D01*
X177696Y28587D01*
X161079D01*
X160263Y29402D01*
X160510Y29862D01*
X160591Y29846D01*
X161297Y29987D01*
X161896Y30387D01*
X162296Y30986D01*
X162388Y31447D01*
X181691Y50750D01*
X182004Y51219D01*
X182114Y51772D01*
Y56481D01*
X182614Y56632D01*
X182868Y56253D01*
X183467Y55853D01*
X184173Y55713D01*
X184880Y55853D01*
X185479Y56253D01*
X185879Y56852D01*
X186020Y57559D01*
X185958Y57871D01*
X186290Y58203D01*
X186752Y58012D01*
Y56166D01*
X186490Y55991D01*
X186089Y55392D01*
X185949Y54685D01*
X186089Y53978D01*
X186490Y53379D01*
X187089Y52979D01*
X187795Y52838D01*
X188502Y52979D01*
X189101Y53379D01*
X189501Y53978D01*
X189642Y54685D01*
X189501Y55392D01*
X189101Y55991D01*
X188839Y56166D01*
Y58748D01*
X194037Y63946D01*
X194264Y64285D01*
X194343Y64684D01*
Y103544D01*
X194264Y103944D01*
X194037Y104282D01*
X194037Y104282D01*
X189353Y108966D01*
X189015Y109193D01*
X188615Y109272D01*
X188615Y109272D01*
X153062D01*
X145414Y116920D01*
Y134138D01*
X145334Y134537D01*
X145108Y134876D01*
X143380Y136603D01*
X143461Y137008D01*
X143320Y137715D01*
X142920Y138313D01*
X142321Y138714D01*
X141614Y138854D01*
X140908Y138714D01*
X140308Y138313D01*
X139908Y137715D01*
X139768Y137008D01*
X139908Y136301D01*
X140308Y135702D01*
X140763Y135398D01*
X140823Y134935D01*
X140797Y134820D01*
X140661Y134729D01*
X140261Y134130D01*
X140120Y133423D01*
X140261Y132717D01*
X140661Y132117D01*
X140923Y131942D01*
Y131573D01*
X140753Y131111D01*
X140436Y131036D01*
X140041Y130958D01*
X139442Y130558D01*
X139042Y129959D01*
X138901Y129252D01*
X139042Y128545D01*
X139442Y127946D01*
X139704Y127771D01*
Y114999D01*
X139704Y114999D01*
X139784Y114600D01*
X140010Y114261D01*
X149795Y104476D01*
X149646Y104114D01*
X149646D01*
Y98307D01*
X154665D01*
X159685D01*
Y103570D01*
X175650D01*
Y98307D01*
X180669D01*
X185689D01*
Y103570D01*
X186686D01*
X188641Y101615D01*
Y67244D01*
X184324Y62927D01*
X184015Y62988D01*
X183309Y62848D01*
X182710Y62447D01*
X182614Y62305D01*
X182114Y62456D01*
Y78091D01*
X185531D01*
Y90177D01*
X175807D01*
Y85579D01*
X159528D01*
Y90177D01*
X149803D01*
Y85579D01*
X133524D01*
Y88134D01*
X137447Y92057D01*
X137760Y92526D01*
X137870Y93079D01*
Y119564D01*
X137926Y119648D01*
X138067Y120354D01*
X137926Y121061D01*
X137768Y121298D01*
Y135165D01*
X138787D01*
Y140323D01*
X137870D01*
Y143692D01*
X137760Y144245D01*
X137447Y144714D01*
X133293Y148868D01*
X133202Y149328D01*
X132801Y149927D01*
X132241Y150302D01*
X132164Y150406D01*
X132041Y150809D01*
X136297Y155065D01*
X136523Y155404D01*
X136603Y155803D01*
X136603Y155803D01*
Y157266D01*
X137370D01*
Y157617D01*
X137811Y157760D01*
Y157760D01*
X142220D01*
Y162169D01*
X137811D01*
Y162169D01*
X137370Y162312D01*
Y162857D01*
X130205D01*
Y162207D01*
X129720Y162169D01*
Y162169D01*
X125311D01*
Y157760D01*
X129720D01*
Y157760D01*
X130205Y157722D01*
Y157266D01*
X130972D01*
Y156228D01*
X124922Y150178D01*
X122634D01*
X122634Y150178D01*
X122426Y150136D01*
X122294Y150194D01*
X121988Y150415D01*
X121927Y150494D01*
X121878Y150742D01*
X121651Y151081D01*
X121313Y151307D01*
X120913Y151386D01*
X118354D01*
X118322Y151380D01*
X117915Y151787D01*
X117922Y151819D01*
Y154378D01*
X117842Y154777D01*
X117616Y155116D01*
X117618Y155361D01*
X118050Y155773D01*
X118756Y155914D01*
X119355Y156314D01*
X119755Y156913D01*
X119896Y157620D01*
X119755Y158326D01*
X119355Y158925D01*
X118756Y159326D01*
X118050Y159466D01*
X117343Y159326D01*
X116744Y158925D01*
X116343Y158326D01*
X116203Y157620D01*
X116264Y157311D01*
X115885Y156931D01*
X115412Y157041D01*
X115353Y157106D01*
X114967Y157683D01*
X114929Y158068D01*
X124654Y167793D01*
X125154Y167707D01*
Y166264D01*
X127516D01*
X129878D01*
Y167854D01*
X135913D01*
X135913Y167854D01*
X136312Y167933D01*
X136651Y168160D01*
X146283Y177792D01*
X146783Y177585D01*
Y163047D01*
X146417D01*
Y158244D01*
X150039D01*
Y159866D01*
X150088Y159939D01*
X150228Y160646D01*
X150088Y161352D01*
X150039Y161425D01*
Y163047D01*
X149673D01*
Y166777D01*
X150000Y167142D01*
X150173Y167142D01*
X151575D01*
Y169701D01*
Y172260D01*
X150173D01*
X150000Y172260D01*
X149673Y172625D01*
Y177551D01*
X153999Y181877D01*
X154387Y181558D01*
X154374Y181537D01*
X154264Y180984D01*
Y172625D01*
X153937Y172260D01*
X153764Y172260D01*
X152362D01*
Y169701D01*
Y167142D01*
X153764D01*
X153937Y167142D01*
X154264Y166777D01*
Y163047D01*
X153898D01*
Y161372D01*
X153885Y161352D01*
X153744Y160646D01*
X153885Y159939D01*
X153898Y159920D01*
Y158244D01*
X157520D01*
Y163047D01*
X157154D01*
Y180386D01*
X161268Y184500D01*
X162839D01*
X163075Y184059D01*
X163019Y183974D01*
X162878Y183268D01*
X163019Y182561D01*
X163419Y181962D01*
X164018Y181562D01*
X164724Y181421D01*
X165431Y181562D01*
X165998Y181941D01*
X166551D01*
X166815Y181441D01*
X166562Y181061D01*
X166421Y180354D01*
X166483Y180045D01*
X159931Y173494D01*
X159705Y173155D01*
X159626Y172756D01*
X159626Y172756D01*
Y157952D01*
X152711Y151037D01*
X152402Y151099D01*
X151695Y150958D01*
X151096Y150558D01*
X150696Y149959D01*
X150555Y149252D01*
X150696Y148545D01*
X151096Y147946D01*
X151312Y147802D01*
X151161Y147302D01*
X146823D01*
X146621Y147605D01*
X146022Y148005D01*
X145315Y148146D01*
X144608Y148005D01*
X144009Y147605D01*
X143609Y147006D01*
X143468Y146299D01*
X143609Y145593D01*
X144009Y144993D01*
X144608Y144593D01*
X145315Y144453D01*
X146022Y144593D01*
X146621Y144993D01*
X146768Y145214D01*
X150502D01*
X150769Y144714D01*
X150696Y144604D01*
X150555Y143898D01*
X150696Y143191D01*
X151096Y142592D01*
X151358Y142417D01*
Y131496D01*
X151358Y131496D01*
X151437Y131097D01*
X151664Y130758D01*
X154807Y127614D01*
X154542Y127172D01*
X153959Y127349D01*
X152717Y127472D01*
X151474Y127349D01*
X150279Y126987D01*
X149178Y126398D01*
X148213Y125606D01*
X147421Y124641D01*
X146832Y123540D01*
X146470Y122345D01*
X146347Y121102D01*
X146470Y119860D01*
X146832Y118665D01*
X147421Y117564D01*
X148213Y116599D01*
X149178Y115806D01*
X150279Y115218D01*
X151474Y114856D01*
X152717Y114733D01*
X153959Y114856D01*
X155154Y115218D01*
X156255Y115806D01*
X157220Y116599D01*
X158012Y117564D01*
X158601Y118665D01*
X158963Y119860D01*
X159086Y121102D01*
X158963Y122345D01*
X158786Y122928D01*
X159229Y123193D01*
X161200Y121221D01*
Y121063D01*
X161200Y121063D01*
X161221Y120962D01*
Y118465D01*
X165799D01*
X166161Y118465D01*
X166524Y118465D01*
X167578D01*
Y117441D01*
X166220D01*
Y113031D01*
X170630D01*
Y117441D01*
X169666D01*
Y118111D01*
X170019Y118465D01*
X171240Y118465D01*
X171602Y118465D01*
X172736D01*
Y117480D01*
X171929D01*
Y113071D01*
X176339D01*
Y117480D01*
X174823D01*
Y118465D01*
X176181D01*
Y122087D01*
X171602D01*
X171240Y122087D01*
X170878Y122087D01*
X166524D01*
X166161Y122087D01*
X165799Y122087D01*
X163186D01*
X162982Y122391D01*
X161504Y123870D01*
X161711Y124370D01*
X166024D01*
Y124370D01*
X166299D01*
Y124370D01*
X171102D01*
Y124370D01*
X171378D01*
Y124370D01*
X176181D01*
Y127992D01*
X174823D01*
Y128543D01*
X174744Y128943D01*
X174518Y129281D01*
X174518Y129281D01*
X172264Y131535D01*
X172276Y131662D01*
X172717Y132084D01*
X173154Y132171D01*
X173526Y132419D01*
X173774Y132791D01*
X173861Y133228D01*
Y133661D01*
X174390D01*
X174390Y133661D01*
X174789Y133740D01*
X175128Y133967D01*
X177096Y135935D01*
X177322Y136274D01*
X177402Y136673D01*
X177402Y136673D01*
Y137202D01*
X177835D01*
X178272Y137290D01*
X178292Y137303D01*
X179267D01*
X179442Y137041D01*
X180041Y136641D01*
X180748Y136500D01*
X181455Y136641D01*
X182054Y137041D01*
X182428Y137602D01*
X182505Y137660D01*
X182536Y137672D01*
X182975Y137696D01*
X183031Y137571D01*
Y133248D01*
X183031D01*
Y132835D01*
X183031D01*
Y128425D01*
X187441D01*
Y132835D01*
X187441D01*
Y133248D01*
X187441D01*
Y137657D01*
X187441D01*
Y138071D01*
X187441D01*
Y142480D01*
X187047Y142717D01*
Y147520D01*
X186990D01*
X186723Y148020D01*
X186942Y148348D01*
X187083Y149055D01*
X186942Y149762D01*
X186542Y150361D01*
X185943Y150761D01*
X185236Y150902D01*
X184927Y150840D01*
X175099Y160669D01*
Y164882D01*
X175866D01*
Y166908D01*
X175902Y167087D01*
X175866Y167265D01*
Y167773D01*
X175886Y167874D01*
Y169804D01*
X180435Y174353D01*
X180935Y174146D01*
Y172658D01*
X181129Y171682D01*
X181682Y170855D01*
X182509Y170302D01*
X183484Y170108D01*
X187224D01*
X188200Y170302D01*
X189027Y170855D01*
X189579Y171682D01*
X189773Y172658D01*
Y176791D01*
X189579Y177767D01*
X189027Y178594D01*
X188200Y179146D01*
X187224Y179340D01*
X183484D01*
X182509Y179146D01*
X181682Y178594D01*
X181426Y178210D01*
X180926Y178362D01*
Y198646D01*
X181426Y198798D01*
X181682Y198414D01*
X182509Y197862D01*
X183484Y197668D01*
X187224D01*
X188200Y197862D01*
X189027Y198414D01*
X189579Y199241D01*
X189773Y200217D01*
Y204350D01*
X189579Y205326D01*
X189027Y206153D01*
X188200Y206705D01*
X187224Y206899D01*
X183484D01*
X182509Y206705D01*
X181682Y206153D01*
X181129Y205326D01*
X180935Y204350D01*
Y201799D01*
X180435Y201592D01*
X175394Y206633D01*
Y208347D01*
X176161D01*
Y212266D01*
X176661Y212473D01*
X178140Y210994D01*
X178248Y210922D01*
Y208347D01*
X181870D01*
Y212756D01*
X179373D01*
X179320Y212766D01*
X177017Y215069D01*
X176679Y215295D01*
X176279Y215374D01*
X176279Y215374D01*
X171417D01*
X171417Y215374D01*
X171018Y215295D01*
X170679Y215069D01*
X170679Y215069D01*
X167530Y211919D01*
X167304Y211580D01*
X167224Y211181D01*
X167224Y211181D01*
Y193055D01*
X166962Y192880D01*
X166562Y192281D01*
X166421Y191575D01*
X166562Y190868D01*
X166842Y190449D01*
X166610Y189949D01*
X158583D01*
X158030Y189839D01*
X157561Y189526D01*
X153553Y185518D01*
X153091Y185709D01*
Y216221D01*
X166692Y229822D01*
X167449D01*
X167449Y229822D01*
X167848Y229902D01*
X168187Y230128D01*
X169478Y231420D01*
X169478Y231420D01*
X169704Y231758D01*
X169784Y232158D01*
X169784Y232158D01*
Y232914D01*
X178336Y241467D01*
X178336Y241467D01*
X178563Y241805D01*
X178642Y242205D01*
Y245767D01*
X178791Y245787D01*
X179902Y246247D01*
X180856Y246979D01*
X181588Y247933D01*
X182048Y249044D01*
X182205Y250236D01*
X182048Y251428D01*
X181588Y252539D01*
X180856Y253493D01*
X179902Y254225D01*
X178791Y254686D01*
X177598Y254843D01*
X176406Y254686D01*
X175295Y254225D01*
X174341Y253493D01*
X173609Y252539D01*
X173149Y251428D01*
X172992Y250236D01*
X173149Y249044D01*
X173609Y247933D01*
X174341Y246979D01*
X175295Y246247D01*
X176406Y245787D01*
X176555Y245767D01*
Y242637D01*
X168002Y234084D01*
X167776Y233746D01*
X167696Y233346D01*
X167696Y233346D01*
Y232590D01*
X167016Y231910D01*
X166260D01*
X165860Y231830D01*
X165522Y231604D01*
X165522Y231604D01*
X151309Y217391D01*
X151083Y217053D01*
X151014Y216705D01*
X150570Y216618D01*
X150525Y216614D01*
X150504Y216614D01*
X145748D01*
Y212992D01*
X147734D01*
X148110Y212917D01*
X148487Y212992D01*
X150504D01*
X150551Y212992D01*
X151004Y212877D01*
Y185464D01*
X135481Y169941D01*
X124282D01*
X124282Y169941D01*
X123883Y169862D01*
X123544Y169636D01*
X118520Y164611D01*
X118020Y164818D01*
Y171999D01*
X118386Y172323D01*
X118520Y172323D01*
X120372D01*
X120748Y172248D01*
X121124Y172323D01*
X123189D01*
Y175945D01*
X118386D01*
Y175945D01*
X117922Y175663D01*
X117886Y175668D01*
X117597Y176101D01*
X113697Y180000D01*
X117124Y183427D01*
X117437Y183896D01*
X117548Y184449D01*
Y223858D01*
X117437Y224411D01*
X117124Y224880D01*
X113975Y228030D01*
X113506Y228343D01*
X112953Y228453D01*
X110815D01*
Y230336D01*
X110984Y230369D01*
X111518Y230726D01*
X111598Y230846D01*
X124320D01*
X124511Y230384D01*
X123120Y228993D01*
X123043Y228878D01*
X122736D01*
Y225295D01*
X122382D01*
Y221654D01*
X125827D01*
Y220866D01*
X122382D01*
Y217224D01*
X122579D01*
Y216043D01*
X123858D01*
Y215650D01*
X124252D01*
Y213484D01*
X125138D01*
X125191Y213450D01*
X125331Y212797D01*
X125223Y212636D01*
X125083Y211929D01*
X125217Y211253D01*
X125217Y211210D01*
X124968Y210704D01*
X124889Y210689D01*
X124550Y210462D01*
X124550Y210462D01*
X121979Y207891D01*
X121902Y207776D01*
X121595D01*
Y204193D01*
X121240D01*
Y200551D01*
X124685D01*
Y199764D01*
X121240D01*
Y196122D01*
X121437D01*
Y194941D01*
X122717D01*
Y194547D01*
X123110D01*
Y192382D01*
X123996D01*
Y192539D01*
X125610D01*
Y190748D01*
X124213D01*
Y185945D01*
X127835D01*
Y190748D01*
X127697D01*
Y192539D01*
X127776D01*
Y194560D01*
X127812Y194567D01*
X128150Y194793D01*
X128582D01*
X129448Y193927D01*
X129787Y193701D01*
X130186Y193622D01*
X130186Y193622D01*
X134862D01*
Y191772D01*
X139075D01*
Y197559D01*
X134862D01*
Y195709D01*
X130619D01*
X129842Y196485D01*
X130325Y196968D01*
X130551Y197307D01*
X130630Y197706D01*
Y201791D01*
X131122Y201811D01*
Y201811D01*
X133859D01*
X137274Y198396D01*
X137274Y198396D01*
X137612Y198170D01*
X138012Y198090D01*
X138012Y198090D01*
X145118D01*
Y197323D01*
X149921D01*
Y200945D01*
X145118D01*
Y200178D01*
X138444D01*
X135335Y203287D01*
Y207598D01*
X132598D01*
X131978Y208219D01*
X132169Y208681D01*
X136044D01*
X138602Y206122D01*
Y201811D01*
X142815D01*
Y207598D01*
X140078D01*
X137214Y210462D01*
X136876Y210689D01*
X136476Y210768D01*
X136476Y210768D01*
X128862D01*
X128663Y211140D01*
X128644Y211268D01*
X128776Y211929D01*
X128655Y212535D01*
X128760Y212691D01*
X128839Y213090D01*
X128839Y213091D01*
Y213642D01*
X128917D01*
Y215663D01*
X128953Y215670D01*
X129292Y215896D01*
X129724D01*
X130059Y215561D01*
X130397Y215335D01*
X130797Y215255D01*
X130797Y215255D01*
X134941D01*
Y213405D01*
X139154D01*
Y218966D01*
X139154Y218966D01*
X139154Y218966D01*
X139187Y219427D01*
X139221Y219665D01*
X139288Y219665D01*
X145748D01*
Y218898D01*
X150551D01*
Y222520D01*
X145748D01*
Y221752D01*
X139369D01*
X135915Y225206D01*
X135577Y225433D01*
X135413Y225465D01*
Y229232D01*
X132677D01*
X132273Y229636D01*
X132464Y230098D01*
X136339D01*
X138681Y227756D01*
Y223445D01*
X142894D01*
Y229232D01*
X140157D01*
X137783Y231606D01*
X137991Y232106D01*
X139333D01*
X139333Y232106D01*
X139732Y232185D01*
X140071Y232412D01*
X157363Y249704D01*
X158110D01*
X158110Y249704D01*
X158510Y249784D01*
X158848Y250010D01*
X165176Y256338D01*
X165295Y256247D01*
X166406Y255787D01*
X167598Y255630D01*
X168791Y255787D01*
X169902Y256247D01*
X170856Y256979D01*
X171588Y257933D01*
X172048Y259044D01*
X172205Y260236D01*
X172048Y261428D01*
X171588Y262539D01*
X170856Y263493D01*
X169902Y264225D01*
X168791Y264686D01*
X167598Y264843D01*
X166406Y264686D01*
X165295Y264225D01*
X164341Y263493D01*
X163609Y262539D01*
X163149Y261428D01*
X162992Y260236D01*
X163149Y259044D01*
X163609Y257933D01*
X163700Y257814D01*
X157678Y251792D01*
X156931D01*
X156931Y251792D01*
X156532Y251712D01*
X156193Y251486D01*
X156193Y251486D01*
X152186Y247479D01*
X151724Y247670D01*
Y249252D01*
X149331D01*
Y249646D01*
X148937D01*
Y254401D01*
X148543D01*
X147929Y254279D01*
X147408Y253931D01*
X147060Y253410D01*
X147005Y253135D01*
X146495D01*
X146453Y253348D01*
X146140Y253817D01*
X145671Y254130D01*
X145118Y254240D01*
X143543D01*
X142990Y254130D01*
X142522Y253817D01*
X142208Y253348D01*
X142098Y252795D01*
Y246496D01*
X142208Y245943D01*
X142522Y245474D01*
X142990Y245161D01*
X143543Y245051D01*
X145118D01*
X145671Y245161D01*
X146140Y245474D01*
X146453Y245943D01*
X146495Y246156D01*
X147005D01*
X147060Y245882D01*
X147408Y245361D01*
X147929Y245013D01*
X148543Y244890D01*
X148944D01*
X149136Y244428D01*
X138900Y234193D01*
X127894D01*
Y235354D01*
X125532D01*
X123170D01*
Y233386D01*
X123170D01*
X123055Y232933D01*
X111598D01*
X111518Y233053D01*
X110984Y233410D01*
X110508Y233505D01*
Y234015D01*
X110984Y234109D01*
X111185Y234244D01*
X117422D01*
Y233543D01*
X121831D01*
Y237953D01*
X121072D01*
Y238465D01*
X121831D01*
Y242874D01*
X117422D01*
Y242370D01*
X116288D01*
X114069Y244589D01*
X114260Y245051D01*
X115118D01*
X115671Y245161D01*
X116140Y245474D01*
X116453Y245943D01*
X116563Y246496D01*
Y252795D01*
X116453Y253348D01*
X116140Y253817D01*
X115671Y254130D01*
X115118Y254240D01*
X113543D01*
X112990Y254130D01*
X112522Y253817D01*
X112208Y253348D01*
X112098Y252795D01*
Y247776D01*
X111598Y247509D01*
X111563Y247533D01*
Y252795D01*
X111453Y253348D01*
X111140Y253817D01*
X110776Y254060D01*
Y278614D01*
X120352Y288191D01*
X120666Y288660D01*
X120776Y289213D01*
Y315231D01*
X121140Y315474D01*
X121453Y315943D01*
X121495Y316156D01*
X122005D01*
X122060Y315882D01*
X122408Y315361D01*
X122929Y315013D01*
X123543Y314890D01*
X123937D01*
Y319646D01*
Y324401D01*
X123543D01*
X122929Y324279D01*
X122408Y323931D01*
X122060Y323410D01*
X122005Y323135D01*
X121495D01*
X121453Y323348D01*
X121140Y323817D01*
X120776Y324060D01*
Y325905D01*
X121535D01*
Y330315D01*
X121535D01*
Y330748D01*
X121535D01*
Y331586D01*
X126890D01*
Y331299D01*
X131693D01*
Y334921D01*
X126890D01*
Y334477D01*
X121535D01*
Y335157D01*
D02*
G37*
G36*
X115787Y332559D02*
X111063D01*
Y330972D01*
X111063Y330591D01*
X111063Y330090D01*
Y328504D01*
X115787D01*
Y330090D01*
X115787Y330472D01*
X115787Y330972D01*
Y332559D01*
D02*
G37*
G36*
Y327716D02*
X113819D01*
Y325748D01*
X115787D01*
Y327716D01*
D02*
G37*
G36*
X113031D02*
X111063D01*
Y325748D01*
X113031D01*
Y327716D01*
D02*
G37*
G36*
X148937Y324401D02*
X148543D01*
X147929Y324279D01*
X147408Y323931D01*
X147060Y323410D01*
X147005Y323135D01*
X146495D01*
X146453Y323348D01*
X146140Y323817D01*
X145671Y324130D01*
X145118Y324240D01*
X143543D01*
X142990Y324130D01*
X142522Y323817D01*
X142208Y323348D01*
X142098Y322795D01*
Y316496D01*
X142208Y315943D01*
X142522Y315474D01*
X142990Y315161D01*
X143543Y315051D01*
X145118D01*
X145671Y315161D01*
X146140Y315474D01*
X146453Y315943D01*
X146495Y316156D01*
X147005D01*
X147060Y315882D01*
X147408Y315361D01*
X147929Y315013D01*
X148543Y314890D01*
X148937D01*
Y319646D01*
Y324401D01*
D02*
G37*
G36*
X83937D02*
X83543D01*
X82929Y324279D01*
X82408Y323931D01*
X82060Y323410D01*
X82005Y323135D01*
X81495D01*
X81453Y323348D01*
X81140Y323817D01*
X80671Y324130D01*
X80118Y324240D01*
X78543D01*
X77990Y324130D01*
X77522Y323817D01*
X77208Y323348D01*
X77098Y322795D01*
Y316496D01*
X77208Y315943D01*
X77522Y315474D01*
X77990Y315161D01*
X78543Y315051D01*
X80118D01*
X80671Y315161D01*
X81140Y315474D01*
X81453Y315943D01*
X81495Y316156D01*
X82005D01*
X82060Y315882D01*
X82408Y315361D01*
X82929Y315013D01*
X83543Y314890D01*
X83937D01*
Y319646D01*
Y324401D01*
D02*
G37*
G36*
X131693Y329016D02*
X126890D01*
Y325394D01*
X127866D01*
Y324047D01*
X127522Y323817D01*
X127208Y323348D01*
X127166Y323135D01*
X126656D01*
X126602Y323410D01*
X126253Y323931D01*
X125733Y324279D01*
X125118Y324401D01*
X124724D01*
Y319646D01*
Y314890D01*
X125118D01*
X125733Y315013D01*
X126253Y315361D01*
X126602Y315882D01*
X126656Y316156D01*
X127166D01*
X127208Y315943D01*
X127522Y315474D01*
X127990Y315161D01*
X128543Y315051D01*
X130118D01*
X130671Y315161D01*
X131140Y315474D01*
X131453Y315943D01*
X131563Y316496D01*
Y322795D01*
X131453Y323348D01*
X131140Y323817D01*
X130756Y324074D01*
Y325394D01*
X131693D01*
Y329016D01*
D02*
G37*
G36*
X188622Y322677D02*
X183898D01*
Y320216D01*
X188622D01*
Y322677D01*
D02*
G37*
G36*
X183110D02*
X178386D01*
Y320216D01*
X183110D01*
Y322677D01*
D02*
G37*
G36*
X150118Y324401D02*
X149724D01*
Y320039D01*
X151724D01*
Y322795D01*
X151602Y323410D01*
X151253Y323931D01*
X150733Y324279D01*
X150118Y324401D01*
D02*
G37*
G36*
X53937D02*
X53543D01*
X52929Y324279D01*
X52408Y323931D01*
X52060Y323410D01*
X51938Y322795D01*
Y320039D01*
X53937D01*
Y324401D01*
D02*
G37*
G36*
X140118Y324240D02*
X138543D01*
X137990Y324130D01*
X137522Y323817D01*
X137208Y323348D01*
X137098Y322795D01*
Y316496D01*
X137208Y315943D01*
X137522Y315474D01*
X137990Y315161D01*
X138543Y315051D01*
X140118D01*
X140671Y315161D01*
X141140Y315474D01*
X141453Y315943D01*
X141563Y316496D01*
Y322795D01*
X141453Y323348D01*
X141140Y323817D01*
X140671Y324130D01*
X140118Y324240D01*
D02*
G37*
G36*
X135118D02*
X133543D01*
X132990Y324130D01*
X132521Y323817D01*
X132208Y323348D01*
X132098Y322795D01*
Y316496D01*
X132208Y315943D01*
X132521Y315474D01*
X132990Y315161D01*
X133543Y315051D01*
X135118D01*
X135671Y315161D01*
X136140Y315474D01*
X136453Y315943D01*
X136563Y316496D01*
Y322795D01*
X136453Y323348D01*
X136140Y323817D01*
X135671Y324130D01*
X135118Y324240D01*
D02*
G37*
G36*
X115118D02*
X113543D01*
X112990Y324130D01*
X112522Y323817D01*
X112208Y323348D01*
X112098Y322795D01*
Y316496D01*
X112208Y315943D01*
X112522Y315474D01*
X112990Y315161D01*
X113543Y315051D01*
X115118D01*
X115671Y315161D01*
X116140Y315474D01*
X116453Y315943D01*
X116563Y316496D01*
Y322795D01*
X116453Y323348D01*
X116140Y323817D01*
X115671Y324130D01*
X115118Y324240D01*
D02*
G37*
G36*
X110118D02*
X108543D01*
X107990Y324130D01*
X107521Y323817D01*
X107208Y323348D01*
X107098Y322795D01*
Y316496D01*
X107208Y315943D01*
X107521Y315474D01*
X107990Y315161D01*
X108543Y315051D01*
X110118D01*
X110671Y315161D01*
X111140Y315474D01*
X111453Y315943D01*
X111563Y316496D01*
Y322795D01*
X111453Y323348D01*
X111140Y323817D01*
X110671Y324130D01*
X110118Y324240D01*
D02*
G37*
G36*
X105118D02*
X103543D01*
X102990Y324130D01*
X102522Y323817D01*
X102208Y323348D01*
X102098Y322795D01*
Y316496D01*
X102208Y315943D01*
X102522Y315474D01*
X102990Y315161D01*
X103543Y315051D01*
X105118D01*
X105671Y315161D01*
X106140Y315474D01*
X106453Y315943D01*
X106563Y316496D01*
Y322795D01*
X106453Y323348D01*
X106140Y323817D01*
X105671Y324130D01*
X105118Y324240D01*
D02*
G37*
G36*
X100118D02*
X98543D01*
X97990Y324130D01*
X97522Y323817D01*
X97208Y323348D01*
X97098Y322795D01*
Y316496D01*
X97208Y315943D01*
X97522Y315474D01*
X97990Y315161D01*
X98543Y315051D01*
X100118D01*
X100671Y315161D01*
X101140Y315474D01*
X101453Y315943D01*
X101563Y316496D01*
Y322795D01*
X101453Y323348D01*
X101140Y323817D01*
X100671Y324130D01*
X100118Y324240D01*
D02*
G37*
G36*
X95118D02*
X93543D01*
X92990Y324130D01*
X92522Y323817D01*
X92208Y323348D01*
X92098Y322795D01*
Y316496D01*
X92208Y315943D01*
X92522Y315474D01*
X92990Y315161D01*
X93543Y315051D01*
X95118D01*
X95671Y315161D01*
X96140Y315474D01*
X96453Y315943D01*
X96563Y316496D01*
Y322795D01*
X96453Y323348D01*
X96140Y323817D01*
X95671Y324130D01*
X95118Y324240D01*
D02*
G37*
G36*
X85118Y324401D02*
X84724D01*
Y319646D01*
Y314890D01*
X85118D01*
X85733Y315013D01*
X86253Y315361D01*
X86602Y315882D01*
X86656Y316156D01*
X87166D01*
X87208Y315943D01*
X87521Y315474D01*
X87990Y315161D01*
X88543Y315051D01*
X90118D01*
X90671Y315161D01*
X91140Y315474D01*
X91453Y315943D01*
X91563Y316496D01*
Y322795D01*
X91453Y323348D01*
X91140Y323817D01*
X90671Y324130D01*
X90118Y324240D01*
X88543D01*
X87990Y324130D01*
X87521Y323817D01*
X87208Y323348D01*
X87166Y323135D01*
X86656D01*
X86602Y323410D01*
X86253Y323931D01*
X85733Y324279D01*
X85118Y324401D01*
D02*
G37*
G36*
X75118Y324240D02*
X73543D01*
X72990Y324130D01*
X72522Y323817D01*
X72208Y323348D01*
X72098Y322795D01*
Y316496D01*
X72208Y315943D01*
X72522Y315474D01*
X72990Y315161D01*
X73543Y315051D01*
X75118D01*
X75671Y315161D01*
X76140Y315474D01*
X76453Y315943D01*
X76563Y316496D01*
Y322795D01*
X76453Y323348D01*
X76140Y323817D01*
X75671Y324130D01*
X75118Y324240D01*
D02*
G37*
G36*
X70118D02*
X68543D01*
X67990Y324130D01*
X67522Y323817D01*
X67208Y323348D01*
X67098Y322795D01*
Y316496D01*
X67208Y315943D01*
X67522Y315474D01*
X67990Y315161D01*
X68543Y315051D01*
X70118D01*
X70671Y315161D01*
X71140Y315474D01*
X71453Y315943D01*
X71563Y316496D01*
Y322795D01*
X71453Y323348D01*
X71140Y323817D01*
X70671Y324130D01*
X70118Y324240D01*
D02*
G37*
G36*
X65118D02*
X63543D01*
X62990Y324130D01*
X62521Y323817D01*
X62208Y323348D01*
X62098Y322795D01*
Y316496D01*
X62208Y315943D01*
X62521Y315474D01*
X62990Y315161D01*
X63543Y315051D01*
X65118D01*
X65671Y315161D01*
X66140Y315474D01*
X66453Y315943D01*
X66563Y316496D01*
Y322795D01*
X66453Y323348D01*
X66140Y323817D01*
X65671Y324130D01*
X65118Y324240D01*
D02*
G37*
G36*
X55118Y324401D02*
X54724D01*
Y319646D01*
Y314890D01*
X55118D01*
X55733Y315013D01*
X56253Y315361D01*
X56602Y315882D01*
X56656Y316156D01*
X57166D01*
X57208Y315943D01*
X57521Y315474D01*
X57990Y315161D01*
X58543Y315051D01*
X60118D01*
X60671Y315161D01*
X61140Y315474D01*
X61453Y315943D01*
X61563Y316496D01*
Y322795D01*
X61453Y323348D01*
X61140Y323817D01*
X60671Y324130D01*
X60118Y324240D01*
X58543D01*
X57990Y324130D01*
X57521Y323817D01*
X57208Y323348D01*
X57166Y323135D01*
X56656D01*
X56602Y323410D01*
X56253Y323931D01*
X55733Y324279D01*
X55118Y324401D01*
D02*
G37*
G36*
X151724Y319252D02*
X149724D01*
Y314890D01*
X150118D01*
X150733Y315013D01*
X151253Y315361D01*
X151602Y315882D01*
X151724Y316496D01*
Y319252D01*
D02*
G37*
G36*
X53937D02*
X51938D01*
Y316496D01*
X52060Y315882D01*
X52408Y315361D01*
X52929Y315013D01*
X53543Y314890D01*
X53937D01*
Y319252D01*
D02*
G37*
G36*
X192165Y316772D02*
X189803D01*
Y314409D01*
X192165D01*
Y316772D01*
D02*
G37*
G36*
X188622Y319429D02*
X183898D01*
Y316968D01*
X186235D01*
X186653Y316772D01*
X186653Y316469D01*
Y314409D01*
X189016D01*
Y316783D01*
X188622Y316968D01*
X188622Y317272D01*
Y319429D01*
D02*
G37*
G36*
X192165Y313622D02*
X189803D01*
Y311260D01*
X192165D01*
Y313622D01*
D02*
G37*
G36*
X189016D02*
X186653D01*
Y311563D01*
X186653Y311260D01*
X186235Y311063D01*
X183898D01*
Y308602D01*
X188622D01*
Y310760D01*
X188622Y311063D01*
X189016Y311248D01*
Y313622D01*
D02*
G37*
G36*
X183110Y319429D02*
X178386D01*
Y317114D01*
X178386Y316968D01*
X178034Y316614D01*
X175000D01*
Y315886D01*
X173723Y315498D01*
X171972Y314563D01*
X170437Y313303D01*
X169178Y311768D01*
X168242Y310017D01*
X167666Y308118D01*
X167471Y306142D01*
X167476D01*
Y287520D01*
X167502Y287394D01*
X167325Y286053D01*
X166759Y284686D01*
X165858Y283512D01*
X164684Y282611D01*
X163317Y282045D01*
X161977Y281869D01*
X161850Y281894D01*
X158352D01*
X158117Y282357D01*
X158123Y282394D01*
X158616Y282723D01*
X158964Y283244D01*
X159086Y283858D01*
Y284252D01*
X149575D01*
Y283858D01*
X149698Y283244D01*
X150046Y282723D01*
X150567Y282375D01*
X150841Y282320D01*
Y281810D01*
X150628Y281768D01*
X150159Y281455D01*
X149846Y280986D01*
X149736Y280433D01*
Y278858D01*
X149846Y278305D01*
X150159Y277836D01*
X150628Y277523D01*
X150841Y277481D01*
Y276971D01*
X150567Y276917D01*
X150046Y276568D01*
X149698Y276047D01*
X149575Y275433D01*
Y275039D01*
X159086D01*
Y275433D01*
X158964Y276047D01*
X158616Y276568D01*
X158123Y276898D01*
X158117Y276935D01*
X158352Y277398D01*
X161850D01*
Y277392D01*
X163826Y277587D01*
X165726Y278163D01*
X167477Y279099D01*
X169012Y280359D01*
X170271Y281893D01*
X171207Y283644D01*
X171783Y285544D01*
X171978Y287520D01*
X171972D01*
Y306142D01*
X171947Y306268D01*
X172124Y307609D01*
X172690Y308976D01*
X173591Y310150D01*
X174765Y311050D01*
X175651Y311417D01*
X178034D01*
X178386Y311063D01*
X178386Y310917D01*
Y308602D01*
X183110D01*
Y311063D01*
X180549D01*
X180197Y311417D01*
X180197Y311563D01*
Y316469D01*
X180197Y316614D01*
X180549Y316968D01*
X183110D01*
Y319429D01*
D02*
G37*
G36*
X188622Y307815D02*
X183898D01*
Y305354D01*
X188622D01*
Y307815D01*
D02*
G37*
G36*
X183110D02*
X178386D01*
Y305354D01*
X183110D01*
Y307815D01*
D02*
G37*
G36*
X157480Y302039D02*
X154724D01*
Y300039D01*
X159086D01*
Y300433D01*
X158964Y301047D01*
X158616Y301568D01*
X158095Y301917D01*
X157480Y302039D01*
D02*
G37*
G36*
X153937D02*
X151181D01*
X150567Y301917D01*
X150046Y301568D01*
X149698Y301047D01*
X149575Y300433D01*
Y300039D01*
X153937D01*
Y302039D01*
D02*
G37*
G36*
X159086Y299252D02*
X149575D01*
Y298858D01*
X149698Y298244D01*
X150046Y297723D01*
X150507Y297414D01*
X150539Y297146D01*
X150507Y296877D01*
X150046Y296568D01*
X149698Y296047D01*
X149575Y295433D01*
Y295039D01*
X159086D01*
Y295433D01*
X158964Y296047D01*
X158616Y296568D01*
X158154Y296877D01*
X158122Y297146D01*
X158154Y297414D01*
X158616Y297723D01*
X158964Y298244D01*
X159086Y298858D01*
Y299252D01*
D02*
G37*
G36*
X31850Y307511D02*
X30608Y307389D01*
X29413Y307026D01*
X28312Y306438D01*
X27347Y305645D01*
X26555Y304680D01*
X25966Y303579D01*
X25604Y302384D01*
X25481Y301142D01*
X25604Y299899D01*
X25966Y298704D01*
X26555Y297603D01*
X27347Y296638D01*
X28312Y295846D01*
X29413Y295257D01*
X30608Y294895D01*
X31850Y294773D01*
X33093Y294895D01*
X34288Y295257D01*
X35389Y295846D01*
X36354Y296638D01*
X37146Y297603D01*
X37735Y298704D01*
X38097Y299899D01*
X38220Y301142D01*
X38097Y302384D01*
X37735Y303579D01*
X37146Y304680D01*
X36354Y305645D01*
X35389Y306438D01*
X34288Y307026D01*
X33093Y307389D01*
X31850Y307511D01*
D02*
G37*
G36*
X159086Y294252D02*
X149575D01*
Y293858D01*
X149698Y293244D01*
X150046Y292723D01*
X150567Y292375D01*
X150841Y292320D01*
Y291810D01*
X150628Y291768D01*
X150159Y291455D01*
X149846Y290986D01*
X149736Y290433D01*
Y288858D01*
X149846Y288305D01*
X150159Y287836D01*
X150628Y287523D01*
X150841Y287481D01*
Y286971D01*
X150567Y286916D01*
X150046Y286568D01*
X149698Y286048D01*
X149575Y285433D01*
Y285039D01*
X159086D01*
Y285433D01*
X158964Y286048D01*
X158616Y286568D01*
X158095Y286916D01*
X157820Y286971D01*
Y287481D01*
X158033Y287523D01*
X158502Y287836D01*
X158815Y288305D01*
X158925Y288858D01*
Y290433D01*
X158815Y290986D01*
X158502Y291455D01*
X158033Y291768D01*
X157820Y291810D01*
Y292320D01*
X158095Y292375D01*
X158616Y292723D01*
X158964Y293244D01*
X159086Y293858D01*
Y294252D01*
D02*
G37*
G36*
X33756Y280433D02*
X27772D01*
Y279272D01*
X11756D01*
Y280433D01*
X5772D01*
Y276024D01*
X11756D01*
Y277185D01*
X27772D01*
Y276024D01*
X29720D01*
Y274000D01*
X29720Y274000D01*
X29800Y273601D01*
X30026Y273262D01*
X31152Y272136D01*
X31152Y272136D01*
X31490Y271910D01*
X31890Y271830D01*
X31890Y271830D01*
X36260D01*
Y270709D01*
X37421D01*
Y268701D01*
X36181D01*
Y265079D01*
X40984D01*
Y268701D01*
X39508D01*
Y270709D01*
X40669D01*
Y275118D01*
X36260D01*
Y273918D01*
X32322D01*
X31808Y274432D01*
Y276024D01*
X33756D01*
Y280433D01*
D02*
G37*
G36*
X40827Y281181D02*
X38858D01*
Y279213D01*
X40827D01*
Y281181D01*
D02*
G37*
G36*
X38071D02*
X36102D01*
Y279213D01*
X38071D01*
Y281181D01*
D02*
G37*
G36*
X40827Y278425D02*
X38858D01*
Y276457D01*
X40827D01*
Y278425D01*
D02*
G37*
G36*
X38071D02*
X36102D01*
Y276457D01*
X38071D01*
Y278425D01*
D02*
G37*
G36*
X159086Y274252D02*
X149575D01*
Y273858D01*
X149698Y273244D01*
X150046Y272723D01*
X150507Y272414D01*
X150539Y272146D01*
X150507Y271877D01*
X150046Y271568D01*
X149698Y271047D01*
X149575Y270433D01*
Y270039D01*
X159086D01*
Y270433D01*
X158964Y271047D01*
X158616Y271568D01*
X158154Y271877D01*
X158122Y272146D01*
X158154Y272414D01*
X158616Y272723D01*
X158964Y273244D01*
X159086Y273858D01*
Y274252D01*
D02*
G37*
G36*
X33913Y269567D02*
X31157D01*
Y267598D01*
X33913D01*
Y269567D01*
D02*
G37*
G36*
X11913D02*
X9157D01*
Y267598D01*
X11913D01*
Y269567D01*
D02*
G37*
G36*
X30370D02*
X27614D01*
Y267598D01*
X30370D01*
Y269567D01*
D02*
G37*
G36*
X8370D02*
X5614D01*
Y267598D01*
X8370D01*
Y269567D01*
D02*
G37*
G36*
X159086Y269252D02*
X154724D01*
Y267253D01*
X157480D01*
X158095Y267375D01*
X158616Y267723D01*
X158964Y268244D01*
X159086Y268858D01*
Y269252D01*
D02*
G37*
G36*
X153937D02*
X149575D01*
Y268858D01*
X149698Y268244D01*
X150046Y267723D01*
X150567Y267375D01*
X151181Y267253D01*
X153937D01*
Y269252D01*
D02*
G37*
G36*
X182992Y279243D02*
X181749Y279121D01*
X180555Y278758D01*
X179454Y278170D01*
X178488Y277378D01*
X177696Y276413D01*
X177108Y275311D01*
X176745Y274117D01*
X176623Y272874D01*
X176745Y271631D01*
X177108Y270437D01*
X177696Y269335D01*
X178488Y268370D01*
X179454Y267578D01*
X180555Y266990D01*
X181749Y266627D01*
X182992Y266505D01*
X184235Y266627D01*
X185430Y266990D01*
X186531Y267578D01*
X187496Y268370D01*
X188288Y269335D01*
X188876Y270437D01*
X189239Y271631D01*
X189361Y272874D01*
X189239Y274117D01*
X188876Y275311D01*
X188288Y276413D01*
X187496Y277378D01*
X186531Y278170D01*
X185430Y278758D01*
X184235Y279121D01*
X182992Y279243D01*
D02*
G37*
G36*
X33913Y266811D02*
X31157D01*
Y264843D01*
X33913D01*
Y266811D01*
D02*
G37*
G36*
X30370D02*
X27614D01*
Y264843D01*
X30370D01*
Y266811D01*
D02*
G37*
G36*
X11913D02*
X9157D01*
Y264843D01*
X11913D01*
Y266811D01*
D02*
G37*
G36*
X8370D02*
X5614D01*
Y264843D01*
X8370D01*
Y266811D01*
D02*
G37*
G36*
X187992Y264950D02*
Y260630D01*
X192312D01*
X192201Y261470D01*
X191725Y262619D01*
X190968Y263606D01*
X189981Y264363D01*
X188832Y264839D01*
X187992Y264950D01*
D02*
G37*
G36*
X187205Y264950D02*
X186365Y264839D01*
X185216Y264363D01*
X184229Y263606D01*
X183472Y262619D01*
X182996Y261470D01*
X182885Y260630D01*
X187205D01*
Y264950D01*
D02*
G37*
G36*
X177598Y264843D02*
X176406Y264686D01*
X175295Y264225D01*
X174341Y263493D01*
X173609Y262539D01*
X173149Y261428D01*
X172992Y260236D01*
X173149Y259044D01*
X173609Y257933D01*
X174341Y256979D01*
X175295Y256247D01*
X176406Y255787D01*
X177598Y255630D01*
X178791Y255787D01*
X179902Y256247D01*
X180856Y256979D01*
X181588Y257933D01*
X182048Y259044D01*
X182205Y260236D01*
X182048Y261428D01*
X181588Y262539D01*
X180856Y263493D01*
X179902Y264225D01*
X178791Y264686D01*
X177598Y264843D01*
D02*
G37*
G36*
X187205Y259842D02*
X182885D01*
X182996Y259003D01*
X183472Y257854D01*
X184229Y256867D01*
X185216Y256109D01*
X186365Y255633D01*
X187205Y255523D01*
Y259842D01*
D02*
G37*
G36*
X192312D02*
X187992D01*
Y255523D01*
X188832Y255633D01*
X189981Y256109D01*
X190968Y256867D01*
X191725Y257854D01*
X192201Y259003D01*
X192312Y259842D01*
D02*
G37*
G36*
X103937Y254401D02*
X103543D01*
X102929Y254279D01*
X102408Y253931D01*
X102060Y253410D01*
X102005Y253135D01*
X101496D01*
X101453Y253348D01*
X101140Y253817D01*
X100671Y254130D01*
X100118Y254240D01*
X98543D01*
X97990Y254130D01*
X97522Y253817D01*
X97208Y253348D01*
X97098Y252795D01*
Y246496D01*
X97208Y245943D01*
X97522Y245474D01*
X97990Y245161D01*
X98543Y245051D01*
X100118D01*
X100671Y245161D01*
X101140Y245474D01*
X101453Y245943D01*
X101496Y246156D01*
X102005D01*
X102060Y245882D01*
X102408Y245361D01*
X102929Y245013D01*
X103543Y244890D01*
X103937D01*
Y249646D01*
Y254401D01*
D02*
G37*
G36*
X150118D02*
X149724D01*
Y250039D01*
X151724D01*
Y252795D01*
X151602Y253410D01*
X151253Y253931D01*
X150733Y254279D01*
X150118Y254401D01*
D02*
G37*
G36*
X53937D02*
X53543D01*
X52929Y254279D01*
X52408Y253931D01*
X52060Y253410D01*
X51938Y252795D01*
Y250039D01*
X53937D01*
Y254401D01*
D02*
G37*
G36*
X187598Y254843D02*
X186406Y254686D01*
X185295Y254225D01*
X184341Y253493D01*
X183609Y252539D01*
X183149Y251428D01*
X182992Y250236D01*
X183149Y249044D01*
X183609Y247933D01*
X184341Y246979D01*
X185295Y246247D01*
X186406Y245787D01*
X187598Y245630D01*
X188791Y245787D01*
X189902Y246247D01*
X190856Y246979D01*
X191588Y247933D01*
X192048Y249044D01*
X192205Y250236D01*
X192048Y251428D01*
X191588Y252539D01*
X190856Y253493D01*
X189902Y254225D01*
X188791Y254686D01*
X187598Y254843D01*
D02*
G37*
G36*
X167598D02*
X166406Y254686D01*
X165295Y254225D01*
X164341Y253493D01*
X163609Y252539D01*
X163149Y251428D01*
X162992Y250236D01*
X163149Y249044D01*
X163609Y247933D01*
X164341Y246979D01*
X165295Y246247D01*
X166406Y245787D01*
X167598Y245630D01*
X168791Y245787D01*
X169902Y246247D01*
X170856Y246979D01*
X171588Y247933D01*
X172048Y249044D01*
X172205Y250236D01*
X172048Y251428D01*
X171588Y252539D01*
X170856Y253493D01*
X169902Y254225D01*
X168791Y254686D01*
X167598Y254843D01*
D02*
G37*
G36*
X140118Y254240D02*
X138543D01*
X137990Y254130D01*
X137522Y253817D01*
X137208Y253348D01*
X137098Y252795D01*
Y246496D01*
X137208Y245943D01*
X137522Y245474D01*
X137990Y245161D01*
X138543Y245051D01*
X140118D01*
X140671Y245161D01*
X141140Y245474D01*
X141453Y245943D01*
X141563Y246496D01*
Y252795D01*
X141453Y253348D01*
X141140Y253817D01*
X140671Y254130D01*
X140118Y254240D01*
D02*
G37*
G36*
X135118D02*
X133543D01*
X132990Y254130D01*
X132521Y253817D01*
X132208Y253348D01*
X132098Y252795D01*
Y246496D01*
X132208Y245943D01*
X132521Y245474D01*
X132990Y245161D01*
X133543Y245051D01*
X135118D01*
X135671Y245161D01*
X136140Y245474D01*
X136453Y245943D01*
X136563Y246496D01*
Y252795D01*
X136453Y253348D01*
X136140Y253817D01*
X135671Y254130D01*
X135118Y254240D01*
D02*
G37*
G36*
X130118D02*
X128543D01*
X127990Y254130D01*
X127522Y253817D01*
X127208Y253348D01*
X127098Y252795D01*
Y246496D01*
X127208Y245943D01*
X127522Y245474D01*
X127990Y245161D01*
X128543Y245051D01*
X130118D01*
X130671Y245161D01*
X131140Y245474D01*
X131453Y245943D01*
X131563Y246496D01*
Y252795D01*
X131453Y253348D01*
X131140Y253817D01*
X130671Y254130D01*
X130118Y254240D01*
D02*
G37*
G36*
X125118D02*
X123543D01*
X122990Y254130D01*
X122521Y253817D01*
X122208Y253348D01*
X122098Y252795D01*
Y246496D01*
X122208Y245943D01*
X122521Y245474D01*
X122990Y245161D01*
X123543Y245051D01*
X125118D01*
X125671Y245161D01*
X126140Y245474D01*
X126453Y245943D01*
X126563Y246496D01*
Y252795D01*
X126453Y253348D01*
X126140Y253817D01*
X125671Y254130D01*
X125118Y254240D01*
D02*
G37*
G36*
X120118D02*
X118543D01*
X117990Y254130D01*
X117522Y253817D01*
X117208Y253348D01*
X117098Y252795D01*
Y246496D01*
X117208Y245943D01*
X117522Y245474D01*
X117990Y245161D01*
X118543Y245051D01*
X120118D01*
X120671Y245161D01*
X121140Y245474D01*
X121453Y245943D01*
X121563Y246496D01*
Y252795D01*
X121453Y253348D01*
X121140Y253817D01*
X120671Y254130D01*
X120118Y254240D01*
D02*
G37*
G36*
X90118Y254401D02*
X89724D01*
Y249646D01*
Y244890D01*
X90118D01*
X90733Y245013D01*
X91254Y245361D01*
X91602Y245882D01*
X91656Y246156D01*
X92166D01*
X92208Y245943D01*
X92522Y245474D01*
X92990Y245161D01*
X93543Y245051D01*
X95118D01*
X95671Y245161D01*
X96140Y245474D01*
X96453Y245943D01*
X96563Y246496D01*
Y252795D01*
X96453Y253348D01*
X96140Y253817D01*
X95671Y254130D01*
X95118Y254240D01*
X93543D01*
X92990Y254130D01*
X92522Y253817D01*
X92208Y253348D01*
X92166Y253135D01*
X91656D01*
X91602Y253410D01*
X91254Y253931D01*
X90733Y254279D01*
X90118Y254401D01*
D02*
G37*
G36*
X70118Y254240D02*
X68543D01*
X67990Y254130D01*
X67522Y253817D01*
X67208Y253348D01*
X67098Y252795D01*
Y246496D01*
X67208Y245943D01*
X67522Y245474D01*
X67990Y245161D01*
X68543Y245051D01*
X70118D01*
X70671Y245161D01*
X71140Y245474D01*
X71453Y245943D01*
X71563Y246496D01*
Y252795D01*
X71453Y253348D01*
X71140Y253817D01*
X70671Y254130D01*
X70118Y254240D01*
D02*
G37*
G36*
X65118D02*
X63543D01*
X62990Y254130D01*
X62521Y253817D01*
X62208Y253348D01*
X62098Y252795D01*
Y246496D01*
X62208Y245943D01*
X62521Y245474D01*
X62990Y245161D01*
X63543Y245051D01*
X65118D01*
X65671Y245161D01*
X66140Y245474D01*
X66453Y245943D01*
X66563Y246496D01*
Y252795D01*
X66453Y253348D01*
X66140Y253817D01*
X65671Y254130D01*
X65118Y254240D01*
D02*
G37*
G36*
X55118Y254401D02*
X54724D01*
Y249646D01*
Y244890D01*
X55118D01*
X55733Y245013D01*
X56253Y245361D01*
X56602Y245882D01*
X56656Y246156D01*
X57166D01*
X57208Y245943D01*
X57521Y245474D01*
X57990Y245161D01*
X58543Y245051D01*
X60118D01*
X60671Y245161D01*
X61140Y245474D01*
X61453Y245943D01*
X61563Y246496D01*
Y252795D01*
X61453Y253348D01*
X61140Y253817D01*
X60671Y254130D01*
X60118Y254240D01*
X58543D01*
X57990Y254130D01*
X57521Y253817D01*
X57208Y253348D01*
X57166Y253135D01*
X56656D01*
X56602Y253410D01*
X56253Y253931D01*
X55733Y254279D01*
X55118Y254401D01*
D02*
G37*
G36*
X40984Y262795D02*
X36181D01*
Y260649D01*
X30443Y254911D01*
X30217Y254573D01*
X30137Y254173D01*
X30137Y254173D01*
Y227758D01*
X29763Y227644D01*
X29637Y227636D01*
X20017Y237257D01*
X20040Y237312D01*
X20197Y238504D01*
X20040Y239696D01*
X19580Y240807D01*
X18848Y241761D01*
X17894Y242493D01*
X16783Y242953D01*
X15590Y243110D01*
X14398Y242953D01*
X13287Y242493D01*
X12333Y241761D01*
X11601Y240807D01*
X11141Y239696D01*
X10984Y238504D01*
X11141Y237312D01*
X11601Y236201D01*
X12333Y235247D01*
X13287Y234515D01*
X14398Y234055D01*
X15590Y233898D01*
X16783Y234055D01*
X16838Y234077D01*
X17581Y233334D01*
X17298Y232910D01*
X16824Y233107D01*
X15984Y233217D01*
Y228898D01*
X20304D01*
X20193Y229737D01*
X19997Y230211D01*
X20421Y230495D01*
X25823Y225093D01*
Y217849D01*
X25994Y216989D01*
X26481Y216260D01*
X30433Y212308D01*
X31163Y211821D01*
X32023Y211650D01*
X62022D01*
X63775Y209897D01*
X64504Y209409D01*
X65364Y209238D01*
X71267D01*
X73626Y206879D01*
X73435Y206417D01*
X71732D01*
Y201614D01*
X73878D01*
X77027Y198465D01*
Y194016D01*
X76693D01*
Y191241D01*
X76657Y191063D01*
X76693Y190885D01*
Y189213D01*
X80315D01*
Y190885D01*
X80350Y191063D01*
X80315Y191241D01*
Y194016D01*
X79115D01*
Y198898D01*
X79035Y199297D01*
X78809Y199636D01*
X75354Y203090D01*
Y203349D01*
X75485Y203545D01*
X75613Y204186D01*
X75834Y204315D01*
X76107Y204399D01*
X77221Y203284D01*
X77638Y203006D01*
Y201614D01*
X81260D01*
Y201772D01*
X85512D01*
Y205309D01*
X85591Y205374D01*
X85591Y205374D01*
X86261D01*
X87008Y204626D01*
Y201772D01*
X91417D01*
Y206181D01*
X88405D01*
X87431Y207155D01*
X87092Y207382D01*
X86693Y207461D01*
X86693Y207461D01*
X86248D01*
X86116Y207650D01*
X86118Y207681D01*
X86363Y208170D01*
X86618Y208220D01*
X87022Y208490D01*
X87291Y208894D01*
X87386Y209370D01*
Y210393D01*
X89449D01*
Y209685D01*
X94252D01*
Y213307D01*
X89449D01*
Y212481D01*
X87386D01*
Y213504D01*
X87291Y213980D01*
X87022Y214384D01*
X86618Y214654D01*
X86142Y214748D01*
X85666Y214654D01*
X85533Y214565D01*
X85158Y214423D01*
X84782Y214565D01*
X84649Y214654D01*
X84173Y214748D01*
X83697Y214654D01*
X83293Y214384D01*
X83085D01*
X82681Y214654D01*
X82205Y214748D01*
X81729Y214654D01*
X81596Y214565D01*
X81221Y214423D01*
X80845Y214565D01*
X80712Y214654D01*
X80236Y214748D01*
X79811Y214664D01*
X79716Y214683D01*
X79311Y214955D01*
Y216315D01*
X79573Y216490D01*
X79974Y217089D01*
X80114Y217795D01*
X80053Y218104D01*
X82943Y220994D01*
X82943Y220994D01*
X83169Y221333D01*
X83248Y221732D01*
Y225295D01*
X83748Y225569D01*
X83780Y225563D01*
Y228957D01*
Y232350D01*
X83636Y232322D01*
X83180Y232017D01*
X82682Y232172D01*
X82681Y232173D01*
X82205Y232268D01*
X81780Y232184D01*
X81684Y232203D01*
X81280Y232475D01*
Y234134D01*
X82047D01*
Y238937D01*
X78425D01*
Y236833D01*
X78350Y236457D01*
X78425Y236080D01*
Y234134D01*
X79193D01*
Y232475D01*
X78788Y232203D01*
X78693Y232184D01*
X78268Y232268D01*
X77792Y232173D01*
X77388Y231904D01*
X77118Y231500D01*
X77023Y231024D01*
Y229981D01*
X75039D01*
X74685Y230334D01*
X74685Y230748D01*
X74930Y231147D01*
X75037Y231168D01*
X75636Y231568D01*
X76037Y232167D01*
X76177Y232874D01*
X76037Y233581D01*
X75931Y233739D01*
X76142Y234134D01*
X76142D01*
Y238937D01*
X76617Y238996D01*
X77087D01*
X77087Y238996D01*
X77486Y239075D01*
X77825Y239301D01*
X83574Y245051D01*
X85118D01*
X85671Y245161D01*
X86140Y245474D01*
X86453Y245943D01*
X86496Y246156D01*
X87005D01*
X87060Y245882D01*
X87408Y245361D01*
X87929Y245013D01*
X88543Y244890D01*
X88937D01*
Y249646D01*
Y254401D01*
X88543D01*
X87929Y254279D01*
X87408Y253931D01*
X87060Y253410D01*
X87005Y253135D01*
X86496D01*
X86453Y253348D01*
X86140Y253817D01*
X85671Y254130D01*
X85118Y254240D01*
X83543D01*
X82990Y254130D01*
X82521Y253817D01*
X82208Y253348D01*
X82098Y252795D01*
Y247016D01*
X82063Y246993D01*
X81563Y247261D01*
Y252795D01*
X81453Y253348D01*
X81140Y253817D01*
X80671Y254130D01*
X80118Y254240D01*
X78543D01*
X77990Y254130D01*
X77522Y253817D01*
X77208Y253348D01*
X77098Y252795D01*
Y247016D01*
X77063Y246993D01*
X76563Y247261D01*
Y252795D01*
X76453Y253348D01*
X76140Y253817D01*
X75671Y254130D01*
X75118Y254240D01*
X73543D01*
X72990Y254130D01*
X72522Y253817D01*
X72208Y253348D01*
X72098Y252795D01*
Y246496D01*
X72208Y245943D01*
X72522Y245474D01*
X72990Y245161D01*
X73543Y245051D01*
X74915D01*
X75125Y244554D01*
X73072Y242500D01*
X71621D01*
X71621Y242500D01*
X71222Y242421D01*
X70883Y242195D01*
X70883Y242195D01*
X65543Y236855D01*
X65317Y236516D01*
X65238Y236117D01*
X65238Y236117D01*
Y229033D01*
X62445Y226240D01*
X40453D01*
X40053Y226161D01*
X39715Y225935D01*
X39715Y225935D01*
X36969Y223189D01*
X34626D01*
Y217402D01*
X38445D01*
Y221713D01*
X40885Y224153D01*
X53933D01*
X54125Y223691D01*
X53583Y223150D01*
X51240D01*
Y217362D01*
X55059D01*
Y221674D01*
X56121Y222736D01*
X58563D01*
Y220650D01*
X60630D01*
Y220256D01*
D01*
Y220650D01*
X62697D01*
Y222736D01*
X63464D01*
X63465Y222736D01*
X63864Y222815D01*
X64203Y223042D01*
X67610Y226449D01*
X68072Y226258D01*
Y225569D01*
X68072Y225569D01*
X68152Y225170D01*
X68378Y224831D01*
X69015Y224195D01*
X69133Y224115D01*
X69882Y223366D01*
Y221220D01*
X74685D01*
Y224843D01*
X72699D01*
X72323Y224917D01*
X71947Y224843D01*
X71358D01*
X70530Y225670D01*
X70411Y225750D01*
X70160Y226001D01*
Y227126D01*
X72105D01*
X72284Y227091D01*
X72462Y227126D01*
X74685D01*
Y227893D01*
X77023D01*
Y226890D01*
X77118Y226414D01*
X77388Y226010D01*
X77792Y225740D01*
X78268Y225645D01*
X78744Y225740D01*
X79148Y226010D01*
X79356D01*
X79760Y225740D01*
X80236Y225645D01*
X80661Y225730D01*
X80757Y225710D01*
X81161Y225438D01*
Y222165D01*
X78577Y219580D01*
X78268Y219642D01*
X77561Y219501D01*
X76962Y219101D01*
X76562Y218502D01*
X76421Y217795D01*
X76562Y217089D01*
X76962Y216490D01*
X77224Y216315D01*
Y214139D01*
X77118Y213980D01*
X77023Y213504D01*
Y210494D01*
X76561Y210302D01*
X73788Y213076D01*
X73059Y213563D01*
X72198Y213734D01*
X66295D01*
X64542Y215487D01*
X63813Y215974D01*
X62953Y216146D01*
X33072D01*
X32835Y216434D01*
X32957Y216960D01*
X33432Y217277D01*
X33832Y217876D01*
X33972Y218583D01*
X33832Y219289D01*
X33432Y219888D01*
X32833Y220289D01*
X32225Y220409D01*
Y253741D01*
X37657Y259173D01*
X40984D01*
Y262795D01*
D02*
G37*
G36*
X53937Y249252D02*
X51938D01*
Y246496D01*
X52060Y245882D01*
X52408Y245361D01*
X52929Y245013D01*
X53543Y244890D01*
X53937D01*
Y249252D01*
D02*
G37*
G36*
X59409Y242520D02*
X54606D01*
Y241595D01*
X54016D01*
Y242362D01*
X49606D01*
Y238740D01*
X54016D01*
Y239508D01*
X54606D01*
Y238898D01*
X59409D01*
Y242520D01*
D02*
G37*
G36*
X127894Y243032D02*
X125926D01*
Y241063D01*
X127894D01*
Y243032D01*
D02*
G37*
G36*
X125138D02*
X123170D01*
Y241063D01*
X125138D01*
Y243032D01*
D02*
G37*
G36*
X42717Y242717D02*
X37913D01*
Y239094D01*
X42717D01*
Y239724D01*
X44134D01*
Y238957D01*
X48543D01*
Y242579D01*
X44134D01*
Y241811D01*
X42717D01*
Y242717D01*
D02*
G37*
G36*
X127894Y240276D02*
X125532D01*
X123170D01*
Y238610D01*
X123170Y238307D01*
X123170Y237807D01*
Y236142D01*
X125532D01*
X127894D01*
Y237807D01*
X127894Y238110D01*
X127894Y238610D01*
Y240276D01*
D02*
G37*
G36*
X46339Y236886D02*
X46259Y236870D01*
X44134D01*
Y233248D01*
X46061D01*
X46339Y233193D01*
X46616Y233248D01*
X48543D01*
Y233799D01*
X49606D01*
Y233032D01*
X54016D01*
Y236654D01*
X49606D01*
Y235886D01*
X48543D01*
Y236870D01*
X46418D01*
X46339Y236886D01*
D02*
G37*
G36*
X86024Y238421D02*
X85317Y238281D01*
X84718Y237880D01*
X84318Y237281D01*
X84177Y236575D01*
X84318Y235868D01*
X84718Y235269D01*
X85098Y235015D01*
Y232618D01*
X84598Y232344D01*
X84567Y232350D01*
Y228957D01*
Y225563D01*
X84711Y225592D01*
X85167Y225896D01*
X85664Y225741D01*
X85666Y225740D01*
X86142Y225645D01*
X86618Y225740D01*
X87022Y226010D01*
X87291Y226414D01*
X87386Y226890D01*
Y227913D01*
X89528D01*
Y227165D01*
X94331D01*
Y230787D01*
X89528D01*
Y230000D01*
X87386D01*
Y231024D01*
X87291Y231500D01*
X87185Y231659D01*
Y235173D01*
X87329Y235269D01*
X87730Y235868D01*
X87870Y236575D01*
X87730Y237281D01*
X87329Y237880D01*
X86730Y238281D01*
X86024Y238421D01*
D02*
G37*
G36*
X188031Y238465D02*
X186839Y238308D01*
X185728Y237847D01*
X184774Y237115D01*
X184042Y236161D01*
X183582Y235051D01*
X183425Y233858D01*
X183582Y232666D01*
X184042Y231555D01*
X184774Y230601D01*
X185728Y229869D01*
X186839Y229409D01*
X188031Y229252D01*
X189224Y229409D01*
X190335Y229869D01*
X191289Y230601D01*
X192021Y231555D01*
X192481Y232666D01*
X192638Y233858D01*
X192481Y235051D01*
X192021Y236161D01*
X191289Y237115D01*
X190335Y237847D01*
X189224Y238308D01*
X188031Y238465D01*
D02*
G37*
G36*
X15197Y233217D02*
X14357Y233107D01*
X13208Y232631D01*
X12221Y231873D01*
X11464Y230887D01*
X10988Y229737D01*
X10877Y228898D01*
X15197D01*
Y233217D01*
D02*
G37*
G36*
X42717Y236811D02*
X37913D01*
Y233189D01*
X38366D01*
Y227441D01*
X42185D01*
Y233189D01*
X42717D01*
Y236811D01*
D02*
G37*
G36*
X59409Y236614D02*
X54606D01*
Y232992D01*
X54980D01*
Y227402D01*
X58799D01*
Y232992D01*
X59409D01*
Y236614D01*
D02*
G37*
G36*
X188425Y228572D02*
Y224252D01*
X192745D01*
X192634Y225092D01*
X192158Y226241D01*
X191401Y227228D01*
X190414Y227985D01*
X189265Y228461D01*
X188425Y228572D01*
D02*
G37*
G36*
X187638D02*
X186798Y228461D01*
X185649Y227985D01*
X184662Y227228D01*
X183905Y226241D01*
X183429Y225092D01*
X183318Y224252D01*
X187638D01*
Y228572D01*
D02*
G37*
G36*
X20304Y228110D02*
X15984D01*
Y223791D01*
X16824Y223901D01*
X17973Y224377D01*
X18960Y225134D01*
X19717Y226121D01*
X20193Y227271D01*
X20304Y228110D01*
D02*
G37*
G36*
X15197D02*
X10877D01*
X10988Y227271D01*
X11464Y226121D01*
X12221Y225134D01*
X13208Y224377D01*
X14357Y223901D01*
X15197Y223791D01*
Y228110D01*
D02*
G37*
G36*
X46083Y223346D02*
X44409D01*
Y220689D01*
X46083D01*
Y223346D01*
D02*
G37*
G36*
X43622D02*
X41949D01*
Y220689D01*
X43622D01*
Y223346D01*
D02*
G37*
G36*
X192745Y223465D02*
X188425D01*
Y219145D01*
X189265Y219255D01*
X190414Y219731D01*
X191401Y220489D01*
X192158Y221476D01*
X192634Y222625D01*
X192745Y223465D01*
D02*
G37*
G36*
X187638D02*
X183318D01*
X183429Y222625D01*
X183905Y221476D01*
X184662Y220489D01*
X185649Y219731D01*
X186798Y219255D01*
X187638Y219145D01*
Y223465D01*
D02*
G37*
G36*
X112185Y224783D02*
X107559D01*
Y218976D01*
X112185D01*
Y224783D01*
D02*
G37*
G36*
X46083Y219902D02*
X44409D01*
Y217244D01*
X46083D01*
Y219902D01*
D02*
G37*
G36*
X43622D02*
X41949D01*
Y217244D01*
X43622D01*
Y219902D01*
D02*
G37*
G36*
X62697Y219862D02*
X61024D01*
Y217205D01*
X62697D01*
Y219862D01*
D02*
G37*
G36*
X60236D02*
X58563D01*
Y217205D01*
X60236D01*
Y219862D01*
D02*
G37*
G36*
X123465Y215256D02*
X122579D01*
Y213484D01*
X123465D01*
Y215256D01*
D02*
G37*
G36*
X112185Y218189D02*
X107559D01*
Y212382D01*
X112185D01*
Y218189D01*
D02*
G37*
G36*
X106772D02*
X102146D01*
Y212382D01*
X106772D01*
Y218189D01*
D02*
G37*
G36*
X57028Y210472D02*
X52402D01*
Y204173D01*
X57028D01*
Y210472D01*
D02*
G37*
G36*
X30610D02*
X25984D01*
Y204173D01*
X30610D01*
Y210472D01*
D02*
G37*
G36*
X51614D02*
X46988D01*
Y204173D01*
X51614D01*
Y210472D01*
D02*
G37*
G36*
X25197D02*
X20571D01*
Y204173D01*
X25197D01*
Y210472D01*
D02*
G37*
G36*
X57028Y203386D02*
X52402D01*
Y197087D01*
X57028D01*
Y203386D01*
D02*
G37*
G36*
X51614D02*
X46988D01*
Y197087D01*
X51614D01*
Y203386D01*
D02*
G37*
G36*
X30610D02*
X25984D01*
Y197087D01*
X30610D01*
Y203386D01*
D02*
G37*
G36*
X25197D02*
X20571D01*
Y197087D01*
X25197D01*
Y203386D01*
D02*
G37*
G36*
X122323Y194153D02*
X121437D01*
Y192382D01*
X122323D01*
Y194153D01*
D02*
G37*
G36*
X147638Y195193D02*
X146931Y195052D01*
X146912Y195039D01*
X145118D01*
Y191417D01*
X149921D01*
Y195039D01*
X148364D01*
X148344Y195052D01*
X147638Y195193D01*
D02*
G37*
G36*
X110630Y188268D02*
X108661D01*
Y186299D01*
X110630D01*
Y188268D01*
D02*
G37*
G36*
X107874D02*
X105905D01*
Y186299D01*
X107874D01*
Y188268D01*
D02*
G37*
G36*
X121929Y190748D02*
X118307D01*
Y185945D01*
X121929D01*
Y187733D01*
X121954Y187770D01*
X122095Y188476D01*
X121954Y189183D01*
X121929Y189220D01*
Y190748D01*
D02*
G37*
G36*
X110630Y185512D02*
X108661D01*
Y183543D01*
X110630D01*
Y185512D01*
D02*
G37*
G36*
X107874D02*
X105905D01*
Y183543D01*
X107874D01*
Y185512D01*
D02*
G37*
G36*
X123189Y181850D02*
X118386D01*
Y178228D01*
X123189D01*
Y178799D01*
X124094D01*
Y178032D01*
X128504D01*
Y181653D01*
X124094D01*
Y180886D01*
X123189D01*
Y181850D01*
D02*
G37*
G36*
X137370Y187266D02*
X130205D01*
Y176558D01*
X137370D01*
Y187266D01*
D02*
G37*
G36*
X128661Y176102D02*
X126693D01*
Y174528D01*
X128661D01*
Y176102D01*
D02*
G37*
G36*
X125906D02*
X123937D01*
Y174528D01*
X125906D01*
Y176102D01*
D02*
G37*
G36*
X128661Y173740D02*
X126693D01*
Y172165D01*
X128661D01*
Y173740D01*
D02*
G37*
G36*
X125906D02*
X123937D01*
Y172165D01*
X125906D01*
Y173740D01*
D02*
G37*
G36*
X142378Y168232D02*
X140410D01*
Y166264D01*
X142378D01*
Y168232D01*
D02*
G37*
G36*
X139622D02*
X137654D01*
Y166264D01*
X139622D01*
Y168232D01*
D02*
G37*
G36*
X142378Y165476D02*
X140410D01*
Y163508D01*
X142378D01*
Y165476D01*
D02*
G37*
G36*
X139622D02*
X137654D01*
Y163508D01*
X139622D01*
Y165476D01*
D02*
G37*
G36*
X129878D02*
X127910D01*
Y163508D01*
X129878D01*
Y165476D01*
D02*
G37*
G36*
X127122D02*
X125154D01*
Y163508D01*
X127122D01*
Y165476D01*
D02*
G37*
G36*
X56378Y164213D02*
X54409D01*
Y162244D01*
X56378D01*
Y164213D01*
D02*
G37*
G36*
X53622D02*
X51654D01*
Y162244D01*
X53622D01*
Y164213D01*
D02*
G37*
G36*
X56378Y161457D02*
X54409D01*
Y159488D01*
X56378D01*
Y161457D01*
D02*
G37*
G36*
X53622D02*
X51654D01*
Y159488D01*
X53622D01*
Y161457D01*
D02*
G37*
G36*
X50591Y158505D02*
X48425D01*
Y156931D01*
X50591D01*
Y158505D01*
D02*
G37*
G36*
Y156143D02*
X48425D01*
Y154569D01*
X50591D01*
Y156143D01*
D02*
G37*
G36*
X181575Y169291D02*
X177953D01*
Y164882D01*
X181575D01*
Y166043D01*
X184213D01*
X190098Y160158D01*
Y147520D01*
X189331D01*
X189331Y142717D01*
X188863Y142638D01*
X188779D01*
Y140669D01*
X191142D01*
X193504D01*
Y142638D01*
X193420D01*
X192953Y142717D01*
X192953Y143138D01*
Y147520D01*
X192185D01*
Y160591D01*
X192185Y160591D01*
X192106Y160990D01*
X191880Y161328D01*
X185384Y167825D01*
X185045Y168051D01*
X184646Y168130D01*
X184646Y168130D01*
X181575D01*
Y169291D01*
D02*
G37*
G36*
X25394Y144291D02*
X7598D01*
Y137126D01*
X25394D01*
Y144291D01*
D02*
G37*
G36*
X193504Y139882D02*
X191142D01*
X188779D01*
Y138315D01*
X188779Y137913D01*
X188779Y137413D01*
Y135846D01*
X191142D01*
X193504D01*
Y137413D01*
X193504Y137815D01*
X193504Y138315D01*
Y139882D01*
D02*
G37*
G36*
X132791Y132787D02*
X131413D01*
Y131409D01*
X132791D01*
Y132787D01*
D02*
G37*
G36*
X193504Y135059D02*
X191142D01*
X188779D01*
Y133492D01*
X188779Y133090D01*
X188779Y132590D01*
Y131024D01*
X191142D01*
X193504D01*
Y132590D01*
X193504Y132992D01*
X193504Y133492D01*
Y135059D01*
D02*
G37*
G36*
Y130236D02*
X191535D01*
Y128268D01*
X193504D01*
Y130236D01*
D02*
G37*
G36*
X190748D02*
X188779D01*
Y128268D01*
X190748D01*
Y130236D01*
D02*
G37*
G36*
X53248Y125787D02*
X50591D01*
Y123917D01*
X53248D01*
Y125787D01*
D02*
G37*
G36*
X102902Y118016D02*
X101524D01*
Y116638D01*
X102902D01*
Y118016D01*
D02*
G37*
G36*
X182402Y117638D02*
X180433D01*
Y115669D01*
X182402D01*
Y117638D01*
D02*
G37*
G36*
X179646D02*
X177677D01*
Y115669D01*
X179646D01*
Y117638D01*
D02*
G37*
G36*
X164882Y117598D02*
X162913D01*
Y115630D01*
X164882D01*
Y117598D01*
D02*
G37*
G36*
X162126D02*
X160158D01*
Y115630D01*
X162126D01*
Y117598D01*
D02*
G37*
G36*
X105823Y115850D02*
X104445D01*
Y114472D01*
X105823D01*
Y115850D01*
D02*
G37*
G36*
X102902Y115850D02*
X101524D01*
Y114472D01*
X102902D01*
Y115850D01*
D02*
G37*
G36*
X122020Y115819D02*
X120642D01*
Y114441D01*
X122020D01*
Y115819D01*
D02*
G37*
G36*
X182402Y114882D02*
X180433D01*
Y112913D01*
X182402D01*
Y114882D01*
D02*
G37*
G36*
X179646D02*
X177677D01*
Y112913D01*
X179646D01*
Y114882D01*
D02*
G37*
G36*
X164882Y114842D02*
X162913D01*
Y112874D01*
X164882D01*
Y114842D01*
D02*
G37*
G36*
X162126D02*
X160158D01*
Y112874D01*
X162126D01*
Y114842D01*
D02*
G37*
G36*
X15315Y110225D02*
Y105905D01*
X19635D01*
X19524Y106745D01*
X19048Y107894D01*
X18291Y108881D01*
X17304Y109639D01*
X16155Y110115D01*
X15315Y110225D01*
D02*
G37*
G36*
X14528D02*
X13688Y110115D01*
X12539Y109639D01*
X11552Y108881D01*
X10795Y107894D01*
X10318Y106745D01*
X10208Y105905D01*
X14528D01*
Y110225D01*
D02*
G37*
G36*
X19635Y105118D02*
X15315D01*
Y100798D01*
X16155Y100909D01*
X17304Y101385D01*
X18291Y102142D01*
X19048Y103129D01*
X19524Y104279D01*
X19635Y105118D01*
D02*
G37*
G36*
X14528D02*
X10208D01*
X10318Y104279D01*
X10795Y103129D01*
X11552Y102142D01*
X12539Y101385D01*
X13688Y100909D01*
X14528Y100798D01*
Y105118D01*
D02*
G37*
G36*
X133681Y104114D02*
X129055D01*
Y98307D01*
X133681D01*
Y104114D01*
D02*
G37*
G36*
X128268D02*
X123642D01*
Y98307D01*
X128268D01*
Y104114D01*
D02*
G37*
G36*
X48012Y99094D02*
X46339D01*
Y96437D01*
X48012D01*
Y99094D01*
D02*
G37*
G36*
X102854D02*
X101181D01*
Y96437D01*
X102854D01*
Y99094D01*
D02*
G37*
G36*
X61722D02*
X60049D01*
Y96437D01*
X61722D01*
Y99094D01*
D02*
G37*
G36*
X89144D02*
X87471D01*
Y96437D01*
X89144D01*
Y99094D01*
D02*
G37*
G36*
X75433D02*
X73760D01*
Y96437D01*
X75433D01*
Y99094D01*
D02*
G37*
G36*
X86683D02*
X85010D01*
Y96437D01*
X86683D01*
Y99094D01*
D02*
G37*
G36*
X72972D02*
X71299D01*
Y96437D01*
X72972D01*
Y99094D01*
D02*
G37*
G36*
X100394D02*
X98721D01*
Y96437D01*
X100394D01*
Y99094D01*
D02*
G37*
G36*
X59262D02*
X57589D01*
Y96437D01*
X59262D01*
Y99094D01*
D02*
G37*
G36*
X45551D02*
X43878D01*
Y96437D01*
X45551D01*
Y99094D01*
D02*
G37*
G36*
X14921Y100118D02*
X13729Y99961D01*
X12618Y99501D01*
X11664Y98769D01*
X10932Y97815D01*
X10472Y96704D01*
X10315Y95512D01*
X10472Y94320D01*
X10932Y93209D01*
X11664Y92255D01*
X12618Y91523D01*
X13729Y91062D01*
X14921Y90905D01*
X16114Y91062D01*
X17224Y91523D01*
X18178Y92255D01*
X18911Y93209D01*
X19371Y94320D01*
X19390Y94468D01*
X27087D01*
Y93543D01*
X31890D01*
Y97165D01*
X27087D01*
Y96556D01*
X19390D01*
X19371Y96704D01*
X18911Y97815D01*
X18178Y98769D01*
X17224Y99501D01*
X16114Y99961D01*
X14921Y100118D01*
D02*
G37*
G36*
X102854Y95650D02*
X101181D01*
Y92992D01*
X102854D01*
Y95650D01*
D02*
G37*
G36*
X100394D02*
X98721D01*
Y92992D01*
X100394D01*
Y95650D01*
D02*
G37*
G36*
X89144D02*
X87471D01*
Y92992D01*
X89144D01*
Y95650D01*
D02*
G37*
G36*
X86683D02*
X85010D01*
Y92992D01*
X86683D01*
Y95650D01*
D02*
G37*
G36*
X75433D02*
X73760D01*
Y92992D01*
X75433D01*
Y95650D01*
D02*
G37*
G36*
X72972D02*
X71299D01*
Y92992D01*
X72972D01*
Y95650D01*
D02*
G37*
G36*
X61722D02*
X60049D01*
Y92992D01*
X61722D01*
Y95650D01*
D02*
G37*
G36*
X59262D02*
X57589D01*
Y92992D01*
X59262D01*
Y95650D01*
D02*
G37*
G36*
X48012D02*
X46339D01*
Y92992D01*
X48012D01*
Y95650D01*
D02*
G37*
G36*
X45551D02*
X43878D01*
Y92992D01*
X45551D01*
Y95650D01*
D02*
G37*
G36*
X185689Y97520D02*
X181063D01*
Y91713D01*
X185689D01*
Y97520D01*
D02*
G37*
G36*
X180276D02*
X175650D01*
Y91713D01*
X180276D01*
Y97520D01*
D02*
G37*
G36*
X159685D02*
X155059D01*
Y91713D01*
X159685D01*
Y97520D01*
D02*
G37*
G36*
X154272D02*
X149646D01*
Y91713D01*
X154272D01*
Y97520D01*
D02*
G37*
G36*
X128268D02*
X123642D01*
Y91713D01*
X128268D01*
Y97520D01*
D02*
G37*
G36*
X100354Y77992D02*
X98779D01*
Y75827D01*
X100354D01*
Y77992D01*
D02*
G37*
G36*
X168465D02*
X166890D01*
Y75827D01*
X168465D01*
Y77992D01*
D02*
G37*
G36*
X34764D02*
X33189D01*
Y75827D01*
X34764D01*
Y77992D01*
D02*
G37*
G36*
X166102D02*
X164528D01*
Y75827D01*
X166102D01*
Y77992D01*
D02*
G37*
G36*
X32402D02*
X30827D01*
Y75827D01*
X32402D01*
Y77992D01*
D02*
G37*
G36*
X97992D02*
X96417D01*
Y75827D01*
X97992D01*
Y77992D01*
D02*
G37*
G36*
X168465Y75039D02*
X166890D01*
Y72874D01*
X168465D01*
Y75039D01*
D02*
G37*
G36*
X166102D02*
X164528D01*
Y72874D01*
X166102D01*
Y75039D01*
D02*
G37*
G36*
X84626Y68032D02*
X83051D01*
Y66063D01*
X84626D01*
Y68032D01*
D02*
G37*
G36*
X47736Y67861D02*
X46161D01*
Y65892D01*
X47736D01*
Y67861D01*
D02*
G37*
G36*
X151870D02*
X150295D01*
Y65892D01*
X151870D01*
Y67861D01*
D02*
G37*
G36*
X149508D02*
X147933D01*
Y65892D01*
X149508D01*
Y67861D01*
D02*
G37*
G36*
X119075D02*
X117500D01*
Y65892D01*
X119075D01*
Y67861D01*
D02*
G37*
G36*
X21378D02*
X19803D01*
Y65892D01*
X21378D01*
Y67861D01*
D02*
G37*
G36*
X45374D02*
X43799D01*
Y65892D01*
X45374D01*
Y67861D01*
D02*
G37*
G36*
X68150Y83031D02*
X63346D01*
Y79409D01*
X66674D01*
X71122Y74961D01*
Y72815D01*
X71122Y72815D01*
X71201Y72416D01*
X71427Y72077D01*
X77500Y66004D01*
Y63465D01*
X81122D01*
Y67874D01*
X78582D01*
X73209Y73247D01*
Y75394D01*
X73209Y75394D01*
X73130Y75793D01*
X72903Y76132D01*
X68150Y80885D01*
Y83031D01*
D02*
G37*
G36*
X86988Y65276D02*
X85413D01*
Y63307D01*
X86988D01*
Y65276D01*
D02*
G37*
G36*
X84626D02*
X83051D01*
Y63307D01*
X84626D01*
Y65276D01*
D02*
G37*
G36*
X151870Y65105D02*
X150295D01*
Y63136D01*
X151870D01*
Y65105D01*
D02*
G37*
G36*
X149508D02*
X147933D01*
Y63136D01*
X149508D01*
Y65105D01*
D02*
G37*
G36*
X121437D02*
X119862D01*
Y63136D01*
X121437D01*
Y65105D01*
D02*
G37*
G36*
X119075D02*
X117500D01*
Y63136D01*
X119075D01*
Y65105D01*
D02*
G37*
G36*
X47736D02*
X46161D01*
Y63136D01*
X47736D01*
Y65105D01*
D02*
G37*
G36*
X45374D02*
X43799D01*
Y63136D01*
X45374D01*
Y65105D01*
D02*
G37*
G36*
X21378D02*
X19803D01*
Y63136D01*
X21378D01*
Y65105D01*
D02*
G37*
G36*
X19016D02*
X17441D01*
Y63136D01*
X19016D01*
Y65105D01*
D02*
G37*
G36*
X64882Y74755D02*
X63639Y74633D01*
X62445Y74270D01*
X61343Y73682D01*
X60378Y72890D01*
X59586Y71924D01*
X58997Y70823D01*
X58635Y69628D01*
X58513Y68386D01*
X58635Y67143D01*
X58997Y65948D01*
X59586Y64847D01*
X60378Y63882D01*
X61343Y63090D01*
X62445Y62501D01*
X63639Y62139D01*
X64882Y62017D01*
X66124Y62139D01*
X67319Y62501D01*
X68420Y63090D01*
X69386Y63882D01*
X70178Y64847D01*
X70766Y65948D01*
X71129Y67143D01*
X71251Y68386D01*
X71129Y69628D01*
X70766Y70823D01*
X70178Y71924D01*
X69386Y72890D01*
X68420Y73682D01*
X67319Y74270D01*
X66124Y74633D01*
X64882Y74755D01*
D02*
G37*
G36*
X96457Y68779D02*
X92835D01*
Y63976D01*
X93602D01*
Y48024D01*
X86878Y41300D01*
X86759Y41391D01*
X85648Y41851D01*
X84456Y42008D01*
X83264Y41851D01*
X82153Y41391D01*
X81199Y40659D01*
X80467Y39705D01*
X80007Y38594D01*
X79850Y37402D01*
X80007Y36209D01*
X80467Y35098D01*
X81199Y34144D01*
X82153Y33412D01*
X83264Y32952D01*
X84456Y32795D01*
X85648Y32952D01*
X86759Y33412D01*
X87713Y34144D01*
X88445Y35098D01*
X88906Y36209D01*
X89062Y37402D01*
X88906Y38594D01*
X88445Y39705D01*
X88354Y39824D01*
X95384Y46853D01*
X95384Y46853D01*
X95610Y47192D01*
X95689Y47591D01*
Y63976D01*
X96457D01*
Y66010D01*
X96539Y66425D01*
X96457Y66840D01*
Y68779D01*
D02*
G37*
G36*
X30866D02*
X27244D01*
Y67419D01*
X27152Y67281D01*
X27012Y66575D01*
X27152Y65868D01*
X27244Y65731D01*
Y63976D01*
X28012D01*
Y47047D01*
X22025Y41060D01*
X21595Y41391D01*
X20483Y41851D01*
X19291Y42008D01*
X18099Y41851D01*
X16988Y41391D01*
X16034Y40659D01*
X15302Y39705D01*
X14842Y38594D01*
X14685Y37402D01*
X14842Y36209D01*
X15302Y35098D01*
X16034Y34144D01*
X16988Y33412D01*
X18099Y32952D01*
X19291Y32795D01*
X20483Y32952D01*
X21595Y33412D01*
X22548Y34144D01*
X23280Y35098D01*
X23741Y36209D01*
X23898Y37402D01*
X23741Y38594D01*
X23381Y39463D01*
X29793Y45876D01*
X29793Y45876D01*
X30019Y46215D01*
X30099Y46614D01*
Y63976D01*
X30866D01*
Y68779D01*
D02*
G37*
G36*
X182559Y42256D02*
Y37936D01*
X186879D01*
X186768Y38776D01*
X186292Y39925D01*
X185535Y40912D01*
X184548Y41670D01*
X183399Y42146D01*
X182559Y42256D01*
D02*
G37*
G36*
X181772D02*
X180932Y42146D01*
X179783Y41670D01*
X178796Y40912D01*
X178039Y39925D01*
X177562Y38776D01*
X177452Y37936D01*
X181772D01*
Y42256D01*
D02*
G37*
G36*
X186879Y37149D02*
X182559D01*
Y32829D01*
X183399Y32940D01*
X184548Y33416D01*
X185535Y34173D01*
X186292Y35160D01*
X186768Y36309D01*
X186879Y37149D01*
D02*
G37*
G36*
X181772D02*
X177452D01*
X177562Y36309D01*
X178039Y35160D01*
X178796Y34173D01*
X179783Y33416D01*
X180932Y32940D01*
X181772Y32829D01*
Y37149D01*
D02*
G37*
G36*
X103937Y68779D02*
X100315D01*
Y63976D01*
X101082D01*
Y52314D01*
X101082Y52314D01*
X101162Y51915D01*
X101388Y51576D01*
X113140Y39824D01*
X113049Y39705D01*
X112589Y38594D01*
X112432Y37402D01*
X112589Y36209D01*
X113049Y35098D01*
X113781Y34144D01*
X114735Y33412D01*
X115846Y32952D01*
X117038Y32795D01*
X118231Y32952D01*
X119342Y33412D01*
X120296Y34144D01*
X121028Y35098D01*
X121488Y36209D01*
X121645Y37402D01*
X121488Y38594D01*
X121028Y39705D01*
X120296Y40659D01*
X119342Y41391D01*
X118231Y41851D01*
X117038Y42008D01*
X115846Y41851D01*
X114735Y41391D01*
X114616Y41300D01*
X103170Y52746D01*
Y63976D01*
X103937D01*
Y65692D01*
X104107Y65947D01*
X104248Y66654D01*
X104107Y67360D01*
X103937Y67615D01*
Y68779D01*
D02*
G37*
G36*
X38346D02*
X34724D01*
Y67321D01*
X34672Y67242D01*
X34532Y66535D01*
X34672Y65829D01*
X34724Y65750D01*
Y63976D01*
X35492D01*
Y52740D01*
X35492Y52740D01*
X35571Y52340D01*
X35798Y52002D01*
X47976Y39824D01*
X47885Y39705D01*
X47424Y38594D01*
X47267Y37402D01*
X47424Y36209D01*
X47885Y35098D01*
X48616Y34144D01*
X49571Y33412D01*
X50682Y32952D01*
X51874Y32795D01*
X53066Y32952D01*
X54177Y33412D01*
X55131Y34144D01*
X55863Y35098D01*
X56323Y36209D01*
X56480Y37402D01*
X56323Y38594D01*
X55863Y39705D01*
X55131Y40659D01*
X54177Y41391D01*
X53066Y41851D01*
X51874Y42008D01*
X50682Y41851D01*
X49571Y41391D01*
X49452Y41300D01*
X37579Y53172D01*
Y63976D01*
X38346D01*
Y68779D01*
D02*
G37*
G36*
X149621Y32008D02*
X148429Y31851D01*
X147318Y31391D01*
X146364Y30659D01*
X145632Y29705D01*
X145276Y28847D01*
X121383D01*
X121028Y29705D01*
X120296Y30659D01*
X119342Y31391D01*
X118231Y31851D01*
X117038Y32008D01*
X115846Y31851D01*
X114735Y31391D01*
X113781Y30659D01*
X113049Y29705D01*
X112694Y28847D01*
X88801D01*
X88445Y29705D01*
X87713Y30659D01*
X86759Y31391D01*
X85648Y31851D01*
X84456Y32008D01*
X83264Y31851D01*
X82153Y31391D01*
X81199Y30659D01*
X80467Y29705D01*
X80111Y28847D01*
X56218D01*
X55863Y29705D01*
X55131Y30659D01*
X54177Y31391D01*
X53066Y31851D01*
X51874Y32008D01*
X50682Y31851D01*
X49571Y31391D01*
X48616Y30659D01*
X47885Y29705D01*
X47529Y28847D01*
X23636D01*
X23280Y29705D01*
X22548Y30659D01*
X21595Y31391D01*
X20483Y31851D01*
X19291Y32008D01*
X18099Y31851D01*
X16988Y31391D01*
X16034Y30659D01*
X15302Y29705D01*
X14842Y28594D01*
X14685Y27402D01*
X14842Y26209D01*
X15302Y25098D01*
X16034Y24144D01*
X16988Y23412D01*
X18099Y22952D01*
X19291Y22795D01*
X20483Y22952D01*
X21595Y23412D01*
X22548Y24144D01*
X23280Y25098D01*
X23636Y25956D01*
X47529D01*
X47885Y25098D01*
X48616Y24144D01*
X49571Y23412D01*
X50682Y22952D01*
X51874Y22795D01*
X53066Y22952D01*
X54177Y23412D01*
X55131Y24144D01*
X55863Y25098D01*
X56218Y25956D01*
X80111D01*
X80467Y25098D01*
X81199Y24144D01*
X82153Y23412D01*
X83264Y22952D01*
X84456Y22795D01*
X85648Y22952D01*
X86759Y23412D01*
X87713Y24144D01*
X88445Y25098D01*
X88801Y25956D01*
X112694D01*
X113049Y25098D01*
X113781Y24144D01*
X114735Y23412D01*
X115846Y22952D01*
X117038Y22795D01*
X118231Y22952D01*
X119342Y23412D01*
X120296Y24144D01*
X121028Y25098D01*
X121383Y25956D01*
X145276D01*
X145632Y25098D01*
X146364Y24144D01*
X147318Y23412D01*
X148429Y22952D01*
X149621Y22795D01*
X150813Y22952D01*
X151924Y23412D01*
X152878Y24144D01*
X153610Y25098D01*
X154070Y26209D01*
X154227Y27402D01*
X154070Y28594D01*
X153610Y29705D01*
X152878Y30659D01*
X151924Y31391D01*
X150813Y31851D01*
X149621Y32008D01*
D02*
G37*
%LPD*%
G36*
X131201Y227756D02*
Y223445D01*
X134289D01*
X134390Y223425D01*
X134745D01*
X138199Y219971D01*
X138199Y219971D01*
X138538Y219744D01*
X138722Y219708D01*
X138797Y219693D01*
X138747Y219193D01*
X138654Y219193D01*
X134941D01*
Y217343D01*
X131229D01*
X130552Y218020D01*
Y224932D01*
X130472Y225331D01*
X130246Y225670D01*
X130246Y225670D01*
X129292Y226624D01*
X128953Y226850D01*
X128917Y226857D01*
Y228681D01*
X130276D01*
X131201Y227756D01*
D02*
G37*
G36*
X175371Y213256D02*
X175104Y212756D01*
X172539D01*
Y208347D01*
X173307D01*
Y206201D01*
X173307Y206201D01*
X173386Y205801D01*
X173612Y205463D01*
X178838Y200237D01*
Y175708D01*
X174104Y170974D01*
X173878Y170636D01*
X173799Y170236D01*
X173799Y170236D01*
Y169291D01*
X172244D01*
Y167265D01*
X172209Y167087D01*
X172244Y166908D01*
Y164882D01*
X173011D01*
Y160236D01*
X173011Y160236D01*
X173091Y159837D01*
X173317Y159498D01*
X183451Y149364D01*
X183390Y149055D01*
X183530Y148348D01*
X183750Y148020D01*
X183483Y147520D01*
X183425D01*
Y145355D01*
X179207D01*
X178988Y145652D01*
X178906Y145855D01*
X178979Y146221D01*
X178892Y146658D01*
X178644Y147029D01*
X178272Y147277D01*
X177835Y147364D01*
X174882D01*
X174444Y147277D01*
X174073Y147029D01*
X173965Y146867D01*
X173465Y146968D01*
X173363Y147468D01*
X173526Y147577D01*
X173774Y147948D01*
X173861Y148386D01*
Y151339D01*
X173774Y151776D01*
X173526Y152147D01*
X173154Y152395D01*
X172717Y152483D01*
X172279Y152395D01*
X172252Y152378D01*
X171752Y152645D01*
Y158480D01*
X172014Y158655D01*
X172415Y159254D01*
X172555Y159961D01*
X172415Y160667D01*
X172014Y161266D01*
X171415Y161667D01*
X170709Y161807D01*
X170002Y161667D01*
X169403Y161266D01*
X169003Y160667D01*
X168862Y159961D01*
X169003Y159254D01*
X169403Y158655D01*
X169665Y158480D01*
Y152698D01*
X169264Y152427D01*
X169165Y152406D01*
X168780Y152483D01*
X168342Y152395D01*
X167971Y152147D01*
X167620D01*
X167249Y152395D01*
X166811Y152483D01*
X166386Y152398D01*
X166373Y152396D01*
X165886Y152671D01*
Y157756D01*
X166890D01*
Y162165D01*
X162480D01*
Y157756D01*
X163799D01*
Y151796D01*
X163786Y151776D01*
X163698Y151339D01*
Y148386D01*
X163786Y147948D01*
X164034Y147577D01*
X164196Y147468D01*
X164094Y146968D01*
X163594Y146867D01*
X163486Y147029D01*
X163115Y147277D01*
X162677Y147364D01*
X159724D01*
X159409Y147302D01*
X153643D01*
X153491Y147802D01*
X153707Y147946D01*
X154107Y148545D01*
X154248Y149252D01*
X154187Y149561D01*
X161407Y156782D01*
X161407Y156782D01*
X161634Y157120D01*
X161713Y157520D01*
Y172324D01*
X167959Y178569D01*
X168268Y178508D01*
X168974Y178648D01*
X169573Y179049D01*
X169974Y179648D01*
X170114Y180354D01*
X169974Y181061D01*
X169720Y181441D01*
X169985Y181941D01*
X172453D01*
X172623Y181441D01*
X172239Y181146D01*
X171681Y180419D01*
X171330Y179571D01*
X171210Y178661D01*
X171330Y177752D01*
X171681Y176904D01*
X172239Y176176D01*
X172967Y175618D01*
X173815Y175267D01*
X174724Y175147D01*
X175634Y175267D01*
X176482Y175618D01*
X177209Y176176D01*
X177768Y176904D01*
X178119Y177752D01*
X178239Y178661D01*
X178119Y179571D01*
X177768Y180419D01*
X177209Y181146D01*
X176790Y181468D01*
X176959Y181968D01*
X178012D01*
Y184528D01*
Y187087D01*
Y189646D01*
Y192205D01*
Y195039D01*
X176959D01*
X176790Y195539D01*
X177209Y195861D01*
X177768Y196589D01*
X178119Y197437D01*
X178239Y198346D01*
X178119Y199256D01*
X177768Y200104D01*
X177209Y200831D01*
X176482Y201390D01*
X175634Y201741D01*
X174724Y201861D01*
X173815Y201741D01*
X172967Y201390D01*
X172239Y200831D01*
X171681Y200104D01*
X171330Y199256D01*
X171210Y198346D01*
X171330Y197437D01*
X171681Y196589D01*
X172239Y195861D01*
X172659Y195539D01*
X172489Y195039D01*
X171437D01*
Y192205D01*
Y189949D01*
X169926D01*
X169694Y190449D01*
X169974Y190868D01*
X170114Y191575D01*
X169974Y192281D01*
X169573Y192880D01*
X169311Y193055D01*
Y210749D01*
X171850Y213287D01*
X175350D01*
X175371Y213256D01*
D02*
G37*
G36*
X57473Y174557D02*
X35866Y174573D01*
Y158084D01*
X40354D01*
Y155000D01*
X31614Y155079D01*
Y166772D01*
X30591Y168150D01*
X30487Y174589D01*
X20924Y180039D01*
Y193504D01*
X57473Y193504D01*
Y174557D01*
D02*
G37*
G36*
X67699Y205718D02*
X68025Y205230D01*
X68287Y205055D01*
Y175236D01*
X68287Y175236D01*
X68366Y174837D01*
X68593Y174498D01*
X68648Y174443D01*
X68587Y174134D01*
X68701Y173558D01*
X68613Y173417D01*
X68449Y173254D01*
X68308Y173166D01*
X67733Y173280D01*
X67424Y173219D01*
X66556Y174087D01*
Y205055D01*
X66817Y205230D01*
X67143Y205718D01*
X67305Y205755D01*
X67537D01*
X67699Y205718D01*
D02*
G37*
G36*
X63806Y205828D02*
X64206Y205230D01*
X64468Y205055D01*
Y173654D01*
X64468Y173654D01*
X64548Y173255D01*
X64774Y172916D01*
X65948Y171743D01*
X65886Y171433D01*
X66027Y170727D01*
X66049Y170694D01*
X65688Y170334D01*
X65655Y170355D01*
X64949Y170496D01*
X64640Y170435D01*
X62618Y172456D01*
Y204976D01*
X62880Y205151D01*
X63281Y205750D01*
X63296Y205828D01*
X63804Y205829D01*
X63806Y205828D01*
D02*
G37*
G36*
X92122Y188917D02*
X93677D01*
Y188311D01*
X93677Y188311D01*
X93756Y187912D01*
X93982Y187573D01*
X95082Y186474D01*
X94890Y186012D01*
X89331D01*
X88778Y185902D01*
X88309Y185589D01*
X80002Y177282D01*
X79689Y176813D01*
X79579Y176260D01*
Y173504D01*
X78819D01*
Y169095D01*
X83228D01*
X83425Y168858D01*
Y168858D01*
X90197D01*
Y174843D01*
X83425D01*
Y173922D01*
X83228Y173504D01*
X82469D01*
Y175661D01*
X89929Y183122D01*
X92122D01*
Y178091D01*
X95744D01*
Y183122D01*
X97724D01*
X99602Y181244D01*
Y178091D01*
X103224D01*
Y179645D01*
X106063D01*
Y177795D01*
X110472D01*
Y178555D01*
X111055D01*
X115130Y174480D01*
Y165512D01*
X115028Y165444D01*
X114528Y165711D01*
Y166496D01*
X113150D01*
Y164724D01*
X112362D01*
Y166496D01*
X111245D01*
X110984Y166496D01*
X110515Y166421D01*
X109398D01*
Y164650D01*
X108610D01*
Y166421D01*
X107398D01*
X107232Y166421D01*
X106898Y166783D01*
Y169854D01*
X106898Y169854D01*
X106819Y170254D01*
X106592Y170592D01*
X106592Y170592D01*
X105187Y171998D01*
X104848Y172224D01*
X104449Y172303D01*
X104449Y172303D01*
X103587D01*
Y173465D01*
X99177D01*
X98858Y173832D01*
Y174843D01*
X92087D01*
Y168858D01*
X98858D01*
Y168858D01*
X99177Y169055D01*
X103587D01*
Y170047D01*
X104087Y170146D01*
X104811Y169422D01*
Y157949D01*
X104349Y157757D01*
X99614Y162492D01*
X99618Y162566D01*
X99774Y162992D01*
X100988D01*
Y165354D01*
Y167717D01*
X99020Y167717D01*
X99016Y168215D01*
Y168307D01*
X95866D01*
Y165157D01*
X95473D01*
Y164764D01*
X91929D01*
Y162815D01*
X91023D01*
X90197Y163641D01*
Y168150D01*
X83642D01*
X83642Y168150D01*
X83425Y168150D01*
X83169Y167756D01*
X82925Y167756D01*
X81417D01*
Y165394D01*
Y163031D01*
X83386Y163031D01*
X83425Y162548D01*
Y162165D01*
X88679D01*
X88927Y161860D01*
X88725Y161398D01*
X88300D01*
X87900Y161318D01*
X87562Y161092D01*
X87562Y161092D01*
X82513Y156043D01*
X75286D01*
X74843Y156181D01*
Y165315D01*
X67650D01*
X67459Y165777D01*
X85147Y183466D01*
X85147Y183466D01*
X85374Y183804D01*
X85453Y184204D01*
X85453Y184204D01*
Y189213D01*
X86221D01*
Y190570D01*
X92122D01*
Y188917D01*
D02*
G37*
G36*
X27660Y175461D02*
X27528Y174961D01*
X25630D01*
Y172008D01*
X27795D01*
Y174808D01*
X28220Y175141D01*
X29850Y174212D01*
X29948Y168139D01*
X29964Y168067D01*
X29968Y167993D01*
X29990Y167946D01*
X30001Y167894D01*
X30043Y167833D01*
X30075Y167767D01*
X30972Y166559D01*
Y158156D01*
X30531Y157890D01*
X27729Y160691D01*
Y167591D01*
X27694Y167768D01*
X27795Y168268D01*
X27795Y168476D01*
Y171221D01*
X22677D01*
X22677Y168268D01*
X22192Y168233D01*
X19831D01*
Y177253D01*
X21532Y178954D01*
X27660Y175461D01*
D02*
G37*
G36*
X92410Y150863D02*
X92748Y150637D01*
X93148Y150557D01*
X93829D01*
X94488Y149898D01*
X94782Y149506D01*
X94555Y149167D01*
X94476Y148768D01*
X94555Y148368D01*
X94782Y148030D01*
Y147931D01*
X94555Y147592D01*
X94476Y147193D01*
X94482Y147162D01*
X94088Y146662D01*
X91081D01*
X90682Y146582D01*
X90343Y146356D01*
X90343Y146356D01*
X89922Y145935D01*
X89461Y146181D01*
X89531Y146535D01*
X89360Y147396D01*
X88873Y148125D01*
X88144Y148612D01*
X87283Y148783D01*
X86423Y148612D01*
X85694Y148125D01*
X78612Y141043D01*
X78150Y141234D01*
Y144606D01*
X75197D01*
Y140276D01*
X77191D01*
X77383Y139814D01*
X75986Y138417D01*
X69107D01*
Y148898D01*
X69058Y149143D01*
X68937Y149324D01*
Y149567D01*
X69147Y149980D01*
X71063D01*
X71457Y149724D01*
Y145394D01*
X78150D01*
Y149724D01*
X78544Y149980D01*
X88638D01*
X88734Y149836D01*
X89333Y149436D01*
X90039Y149295D01*
X90746Y149436D01*
X91345Y149836D01*
X91745Y150435D01*
X91809Y150756D01*
X92352Y150921D01*
X92410Y150863D01*
D02*
G37*
G36*
X27087Y160425D02*
X30866Y156646D01*
Y148496D01*
X34095D01*
X39252Y143339D01*
X44370D01*
X44370Y142355D01*
X28858Y142355D01*
X25354Y147394D01*
X25354Y155271D01*
X21575Y155265D01*
X21575Y157237D01*
X13110Y157158D01*
Y155544D01*
X10394D01*
X10394Y157827D01*
X11614Y159047D01*
X16378D01*
Y164205D01*
X19764Y167591D01*
X27087D01*
Y160425D01*
D02*
G37*
G36*
X68465Y137047D02*
X64921Y137211D01*
Y134606D01*
X58274D01*
X52716Y140669D01*
X55354Y141496D01*
X57244Y140669D01*
X63313Y139767D01*
X63189Y148898D01*
X68465D01*
Y137047D01*
D02*
G37*
G36*
X44409Y141575D02*
Y140591D01*
X43701D01*
X40905Y137795D01*
Y133189D01*
X41457Y132638D01*
X44409Y132638D01*
Y130590D01*
X52874Y130590D01*
X52874Y132402D01*
X55827Y132402D01*
X55827Y130787D01*
X53976Y128937D01*
X49646Y128937D01*
X49134Y128425D01*
X49134Y123740D01*
X46260Y120866D01*
X8779Y120866D01*
X5433Y124213D01*
Y128504D01*
X7874Y130945D01*
X25079D01*
X32992Y138858D01*
X38898Y138858D01*
X41614Y141575D01*
X44409Y141575D01*
D02*
G37*
G36*
X83523Y138889D02*
Y120068D01*
X78475Y115020D01*
X58342D01*
X58150Y115482D01*
X62120Y119451D01*
X62636Y119554D01*
X63235Y119954D01*
X63635Y120553D01*
X63776Y121260D01*
X63635Y121967D01*
X63235Y122565D01*
X62636Y122966D01*
X61929Y123106D01*
X61222Y122966D01*
X60624Y122565D01*
X60223Y121967D01*
X60083Y121260D01*
X60223Y120553D01*
X60242Y120525D01*
X56997Y117281D01*
X56535Y117472D01*
Y119331D01*
X57667Y120463D01*
X57667Y120463D01*
X57893Y120801D01*
X57973Y121201D01*
Y133514D01*
X57992Y133569D01*
X58152Y133817D01*
X58274Y133964D01*
X64921D01*
X64983Y133976D01*
X65838D01*
X66114Y133921D01*
X76917D01*
X77778Y134092D01*
X78507Y134580D01*
X83023Y139096D01*
X83523Y138889D01*
D02*
G37*
G36*
X158684Y144714D02*
X158668Y144690D01*
X158580Y144252D01*
X158668Y143814D01*
X158712Y143747D01*
X158802Y143206D01*
X158519Y142783D01*
X158498Y142677D01*
X161201D01*
Y141890D01*
X158498D01*
X158519Y141784D01*
X158802Y141361D01*
X158712Y140820D01*
X158668Y140753D01*
X158580Y140315D01*
X158668Y139877D01*
X158915Y139506D01*
Y139155D01*
X158668Y138784D01*
X158580Y138347D01*
X158668Y137909D01*
X158915Y137538D01*
X159287Y137290D01*
X159724Y137202D01*
X162677D01*
X163115Y137290D01*
X163486Y137538D01*
X163594Y137700D01*
X164094Y137598D01*
X164196Y137098D01*
X164034Y136990D01*
X163786Y136619D01*
X163698Y136181D01*
Y133228D01*
X163786Y132791D01*
X164034Y132419D01*
X164405Y132171D01*
X164842Y132084D01*
X165014Y132118D01*
X165260Y131658D01*
X162884Y129281D01*
X162658Y128943D01*
X162578Y128543D01*
X162578Y128543D01*
Y127992D01*
X161221D01*
Y124860D01*
X160721Y124653D01*
X153445Y131928D01*
Y142417D01*
X153707Y142592D01*
X154107Y143191D01*
X154248Y143898D01*
X154107Y144604D01*
X154034Y144714D01*
X154301Y145214D01*
X158417D01*
X158684Y144714D01*
D02*
G37*
G36*
X98518Y131575D02*
X98511Y131543D01*
Y128984D01*
X98591Y128585D01*
X98817Y128246D01*
X99156Y128020D01*
X99555Y127941D01*
X99586Y127947D01*
X100086Y127552D01*
Y121795D01*
X99516D01*
Y121795D01*
X99331D01*
Y121795D01*
X98619D01*
X98305Y122005D01*
X97598Y122146D01*
X96892Y122005D01*
X96578Y121795D01*
X96102D01*
X95764Y122155D01*
Y129245D01*
X95764Y129245D01*
X95748Y129322D01*
Y131772D01*
X95952Y131976D01*
X98079D01*
X98111Y131982D01*
X98518Y131575D01*
D02*
G37*
%LPC*%
G36*
X167047Y168228D02*
X165079D01*
Y166260D01*
X167047D01*
Y168228D01*
D02*
G37*
G36*
X164291D02*
X162323D01*
Y166260D01*
X164291D01*
Y168228D01*
D02*
G37*
G36*
X167047Y165472D02*
X165079D01*
Y163504D01*
X167047D01*
Y165472D01*
D02*
G37*
G36*
X164291D02*
X162323D01*
Y163504D01*
X164291D01*
Y165472D01*
D02*
G37*
G36*
X80630Y167756D02*
X78661D01*
Y165787D01*
X80630D01*
Y167756D01*
D02*
G37*
G36*
X101776Y167717D02*
Y165748D01*
X103744D01*
Y167717D01*
X101776D01*
D02*
G37*
G36*
X95079Y168307D02*
X91929D01*
Y165551D01*
X95079D01*
Y168307D01*
D02*
G37*
G36*
X80630Y165000D02*
X78661D01*
Y163031D01*
X80630D01*
Y165000D01*
D02*
G37*
G36*
X103744Y164961D02*
X101776D01*
Y162992D01*
X103744D01*
Y164961D01*
D02*
G37*
G36*
X24843Y174961D02*
X22677D01*
Y172008D01*
X24843D01*
Y174961D01*
D02*
G37*
G36*
X74410Y144606D02*
X71457D01*
Y140276D01*
X74410D01*
Y144606D01*
D02*
G37*
G36*
X69252Y131457D02*
X66299D01*
Y129291D01*
X69252D01*
Y131457D01*
D02*
G37*
G36*
X65512D02*
X62559D01*
Y129291D01*
X65512D01*
Y131457D01*
D02*
G37*
G36*
X69252Y128504D02*
X66299D01*
Y126339D01*
X69252D01*
Y128504D01*
D02*
G37*
G36*
X65512D02*
X62559D01*
Y126339D01*
X65512D01*
Y128504D01*
D02*
G37*
%LPD*%
D12*
X168740Y233346D02*
X177598Y242205D01*
X168740Y232158D02*
Y233346D01*
X167449Y230866D02*
X168740Y232158D01*
X166260Y230866D02*
X167449D01*
X152047Y216653D02*
X166260Y230866D01*
X152047Y185032D02*
Y216653D01*
X177598Y242205D02*
Y250236D01*
X156931Y250748D02*
X158110D01*
X167598Y260236D01*
X139333Y233150D02*
X156931Y250748D01*
X84567Y119635D02*
Y139104D01*
X85984Y119048D02*
Y138517D01*
X87401Y118461D02*
Y137930D01*
X80082Y111142D02*
X87401Y118461D01*
X88819Y117874D02*
Y137343D01*
X79567Y108622D02*
X88819Y117874D01*
X90236Y131724D02*
Y136756D01*
Y131724D02*
X93303Y128658D01*
Y96048D02*
Y128658D01*
X115394Y75945D02*
X124764D01*
X110118Y81221D02*
X115394Y75945D01*
X93189Y81221D02*
X110118D01*
X118583Y71772D02*
X123228Y67126D01*
X91614Y71772D02*
X118583D01*
X108904Y70354D02*
X112579Y66680D01*
X90925Y70354D02*
X108904D01*
X101130Y120181D02*
Y130264D01*
X84567Y139104D02*
X91081Y145618D01*
X85984Y138517D02*
X91511Y144043D01*
X91940Y142469D02*
X96799D01*
X87401Y137930D02*
X91940Y142469D01*
X92370Y140894D02*
X96799D01*
X88819Y137343D02*
X92370Y140894D01*
X92768Y136169D02*
X96799D01*
X141614Y136893D02*
X144370Y134138D01*
Y116488D02*
Y134138D01*
X141614Y136893D02*
Y137008D01*
X144370Y116488D02*
X152630Y108228D01*
X80236Y228957D02*
Y236457D01*
X141966Y131151D02*
Y133423D01*
Y131151D02*
X142953Y130165D01*
Y128339D02*
Y130165D01*
X142165Y127551D02*
X142953Y128339D01*
X142165Y116137D02*
Y127551D01*
Y116137D02*
X151881Y106421D01*
X140748Y114999D02*
Y129252D01*
Y114999D02*
X151133Y104614D01*
X174055Y160236D02*
X185236Y149055D01*
X174055Y160236D02*
Y167087D01*
X13701Y65892D02*
X29029Y81221D01*
X13701Y65498D02*
Y65892D01*
X29029Y81221D02*
X38307D01*
X189685Y66811D02*
Y102047D01*
X184015Y61142D02*
X189685Y66811D01*
X151881Y106421D02*
X187315D01*
X191102Y102634D01*
Y64492D02*
Y102634D01*
X184173Y57562D02*
X191102Y64492D01*
X184173Y57559D02*
Y57562D01*
X187795Y54685D02*
Y59180D01*
X193299Y64684D01*
X78248Y228937D02*
X78268Y228957D01*
X72284Y228937D02*
X78248D01*
X72284D02*
X72284D01*
X123358Y140894D02*
X124252Y140000D01*
X119634Y140894D02*
X123358D01*
X124252Y139763D02*
Y140000D01*
X86024Y236575D02*
X86142Y236457D01*
X91909Y228957D02*
X91929Y228976D01*
X86142Y228957D02*
X91909D01*
X86142D02*
Y236457D01*
X122665Y144043D02*
X124134Y145512D01*
X119634Y144043D02*
X122665D01*
X119634Y142469D02*
X125815D01*
X193299Y64684D02*
Y103544D01*
X188615Y108228D02*
X193299Y103544D01*
X152630Y108228D02*
X188615D01*
X187118Y104614D02*
X189685Y102047D01*
X151133Y104614D02*
X187118D01*
X61339Y161133D02*
X84409Y184204D01*
X61339Y156732D02*
Y161133D01*
X84409Y184204D02*
Y191614D01*
X88300Y160354D02*
X97588D01*
X102705Y153098D02*
Y155237D01*
X97588Y160354D02*
X102705Y155237D01*
X82946Y155000D02*
X88300Y160354D01*
X67953Y155000D02*
X82946D01*
X38583Y260787D02*
Y260984D01*
X37992D02*
X38583D01*
X31181Y219528D02*
Y254173D01*
X37992Y260984D01*
X31181Y219528D02*
X32126Y218583D01*
X94398Y134595D02*
X96799D01*
X92953Y133149D02*
X94398Y134595D01*
X92441Y133149D02*
X92953D01*
X79331Y247284D02*
Y249646D01*
X73504Y241457D02*
X79331Y247284D01*
X71621Y241457D02*
X73504D01*
X66281Y228601D02*
Y236117D01*
X71621Y241457D01*
X62878Y225197D02*
X66281Y228601D01*
X40453Y225197D02*
X62878D01*
X36535Y221280D02*
X40453Y225197D01*
X36535Y220295D02*
Y221280D01*
X84331Y247284D02*
Y249646D01*
X77087Y240039D02*
X84331Y247284D01*
X72208Y240039D02*
X77087D01*
X67699Y228013D02*
Y235530D01*
X72208Y240039D01*
X63465Y223780D02*
X67699Y228013D01*
X53150Y221240D02*
X55689Y223780D01*
X63465D01*
X53150Y220256D02*
Y221240D01*
X61575Y172024D02*
X64949Y168650D01*
X61575Y172024D02*
Y206457D01*
X65512Y173654D02*
X67733Y171433D01*
X65512Y173654D02*
Y206535D01*
X69331Y175236D02*
X70433Y174134D01*
X69331Y175236D02*
Y206535D01*
X78504Y191063D02*
Y191614D01*
X52008Y186850D02*
Y190551D01*
X25591Y184488D02*
Y186850D01*
X18788Y177685D02*
X25591Y184488D01*
X18788Y168062D02*
Y177685D01*
X14744Y164019D02*
X18788Y168062D01*
X21752Y183012D02*
X25591Y186850D01*
X46339Y235059D02*
X46555Y234842D01*
X51811D01*
X74331Y232874D02*
Y236535D01*
X14744Y162423D02*
Y164019D01*
X12874Y161340D02*
X13661D01*
X14744Y162423D01*
X7933Y164667D02*
X12087Y168821D01*
X12874D02*
X13112Y168583D01*
X36496Y155394D02*
X37639Y156537D01*
X36496Y150335D02*
Y155394D01*
X37992Y156537D02*
X38583D01*
X37639D02*
X37992D01*
X37205Y157324D02*
X37992Y156537D01*
X63386Y153858D02*
X70276Y160748D01*
X63192Y152441D02*
X87914D01*
X63779Y151024D02*
X89921D01*
X59153Y146398D02*
X63779Y151024D01*
X61466Y153858D02*
X63386D01*
X38465Y267008D02*
X38583Y266890D01*
X38465Y267008D02*
Y272913D01*
X38425Y272874D02*
X38465Y272913D01*
X31890Y272874D02*
X38425D01*
X109370Y231890D02*
X125488D01*
X126748Y233150D01*
X139333D01*
X135913Y168898D02*
X152047Y185032D01*
X124282Y168898D02*
X135913D01*
X113967Y158582D02*
X124282Y168898D01*
X112748Y158582D02*
X113967D01*
X110579Y156413D02*
X112748Y158582D01*
X110579Y153098D02*
Y156413D01*
X105854Y153098D02*
Y169854D01*
X109004Y153098D02*
Y160713D01*
X140667Y47402D02*
X149621D01*
X125590Y62479D02*
X140667Y47402D01*
X78071Y192047D02*
Y198898D01*
Y192047D02*
X78504Y191614D01*
X73543Y203425D02*
X78071Y198898D01*
X73543Y203425D02*
Y204016D01*
X56586Y115394D02*
X61929Y120737D01*
Y121260D01*
X59035Y142854D02*
X59606Y142283D01*
X54016Y144626D02*
X65374D01*
X37913Y115394D02*
X56586D01*
X29488Y106968D02*
X37913Y115394D01*
X29488Y101260D02*
Y106968D01*
X6516Y153804D02*
Y239429D01*
X15590Y248504D01*
X6516Y153804D02*
X10855Y149464D01*
Y147283D02*
Y149464D01*
Y147283D02*
X11036Y147102D01*
X126745Y231142D02*
X136772D01*
X123858Y228255D02*
X126745Y231142D01*
X127332Y229724D02*
X130709D01*
X125827Y228219D02*
X127332Y229724D01*
X130709D02*
X133307Y227126D01*
X136772Y231142D02*
X140787Y227126D01*
X125827Y226870D02*
Y228219D01*
X70709Y236535D02*
X74331D01*
X69116Y234943D02*
X70709Y236535D01*
X69116Y225569D02*
Y234943D01*
Y225569D02*
X69753Y224933D01*
X69792D01*
X71693Y223031D01*
X91081Y145618D02*
X96799D01*
X91511Y144043D02*
X96799D01*
X92799Y139319D02*
X96799D01*
X90236Y136756D02*
X92799Y139319D01*
X120118Y188347D02*
X120248Y188476D01*
X87362Y156181D02*
X90118Y158937D01*
X87914Y152441D02*
X89645Y154173D01*
X89921Y151024D02*
X90039Y151142D01*
X91890Y152859D02*
Y156732D01*
Y152859D02*
X93148Y151601D01*
X94261D01*
X95520Y150343D01*
X96799D01*
X78268Y211437D02*
Y217795D01*
X80236Y205439D02*
Y211437D01*
X79370Y204573D02*
X80236Y205439D01*
X8764Y278228D02*
X30764D01*
X38858Y149977D02*
Y151969D01*
X42894Y148268D02*
X42992Y148169D01*
X40567Y148268D02*
X42894D01*
X54016Y142854D02*
X59035D01*
X38858Y149977D02*
X40567Y148268D01*
X59655Y152047D02*
X61466Y153858D01*
X58921Y148169D02*
X63192Y152441D01*
X54016Y146398D02*
X59153D01*
X54016Y148169D02*
X58921D01*
X133185Y133181D02*
Y142181D01*
X145315Y146299D02*
X145356Y146258D01*
X161163D01*
X161201Y146221D01*
X127473Y147716D02*
X135559Y155803D01*
X123221Y147716D02*
X127473D01*
X135559Y155803D02*
Y160061D01*
X151969Y169701D02*
Y174961D01*
X164685Y165866D02*
Y170905D01*
X170709Y149902D02*
Y159961D01*
Y149902D02*
X170748Y149862D01*
X171417Y214331D02*
X176279D01*
X178878Y211732D01*
X179272D01*
X180059Y210945D01*
Y210551D02*
Y210945D01*
X168268Y211181D02*
X171417Y214331D01*
X168268Y191575D02*
Y211181D01*
X160669Y172756D02*
X168268Y180354D01*
X160669Y157520D02*
Y172756D01*
X152402Y149252D02*
X160669Y157520D01*
X152402Y131496D02*
Y143898D01*
Y131496D02*
X162244Y121653D01*
Y121063D02*
Y121653D01*
Y121063D02*
X163031Y120276D01*
X163622D01*
X174350Y206201D02*
Y210551D01*
Y206201D02*
X179882Y200669D01*
Y175276D02*
Y200669D01*
X174843Y170236D02*
X179882Y175276D01*
X174843Y167874D02*
Y170236D01*
X174055Y167087D02*
X174843Y167874D01*
X48661Y133898D02*
X54272D01*
X148110Y214764D02*
X148150Y214803D01*
X128366Y196485D02*
X129587Y197706D01*
Y205768D01*
X126929Y212224D02*
X127795Y213090D01*
X126929Y211929D02*
Y212224D01*
X127795Y213090D02*
Y215650D01*
X125288Y209724D02*
X136476D01*
X125875Y208307D02*
X130413D01*
X122717Y207153D02*
X125288Y209724D01*
X136476D02*
X140709Y205492D01*
X130413Y208307D02*
X133228Y205492D01*
X124685Y207117D02*
X125875Y208307D01*
X126654Y205768D02*
X129587D01*
X17362Y153781D02*
X19331Y151813D01*
X22972D01*
X30764Y274000D02*
Y278228D01*
Y274000D02*
X31890Y272874D01*
X120748Y174094D02*
X120787Y174134D01*
X168425Y115236D02*
X168622Y115433D01*
X107429Y142469D02*
Y153098D01*
X102705Y136169D02*
X108217Y141681D01*
X110382Y139516D02*
X110579Y139319D01*
X108217Y141681D02*
X110382Y139516D01*
X110579Y139319D02*
X119634D01*
X107429Y142469D02*
X108217Y141681D01*
X102705Y130264D02*
Y136169D01*
X164842Y149862D02*
Y159724D01*
X176358Y138347D02*
X180748D01*
X184961Y140551D02*
X185236Y140276D01*
X179835Y140551D02*
X184961D01*
X179599Y140315D02*
X179835Y140551D01*
X176358Y140315D02*
X179599D01*
X168780Y142283D02*
X176358D01*
X161201D02*
X168780D01*
X174390Y134705D02*
X176358Y136673D01*
X172717Y134705D02*
X174390D01*
X176358Y136673D02*
Y138347D01*
X100787Y103150D02*
Y108150D01*
X94720Y114217D02*
X100787Y108150D01*
X94720Y114217D02*
Y129245D01*
X94705Y129260D02*
X94720Y129245D01*
X129823Y137559D02*
X130008Y137744D01*
X123338Y137559D02*
X129823D01*
X123153Y137744D02*
X123338Y137559D01*
X119634Y137744D02*
X123153D01*
X125354Y149134D02*
X132016Y155795D01*
X122634Y149134D02*
X125354D01*
X122267Y148768D02*
X122634Y149134D01*
X119634Y148768D02*
X122267D01*
X122697Y147193D02*
X123221Y147716D01*
X119634Y147193D02*
X122697D01*
X91850Y217402D02*
X92441D01*
X97165Y152992D02*
X99555D01*
X113661Y156378D02*
X113728Y156310D01*
Y153098D02*
Y156310D01*
X115303Y154874D02*
X118050Y157620D01*
X115303Y153098D02*
Y154874D01*
X104449Y171260D02*
X105854Y169854D01*
X99555Y152992D02*
Y153098D01*
X90118Y158937D02*
X97001D01*
X101130Y154807D01*
Y153098D02*
Y154807D01*
X104279Y153098D02*
Y156351D01*
X98859Y161771D02*
X104279Y156351D01*
X90591Y161771D02*
X98859D01*
X87205Y165157D02*
X90591Y161771D01*
X86811Y165157D02*
X87205D01*
X132323Y122951D02*
Y128268D01*
X14921Y95512D02*
X29331D01*
X29488Y95354D01*
X93835Y191614D02*
X93933Y191516D01*
X84409Y191614D02*
X93835D01*
X120787Y180039D02*
X120984Y179842D01*
X126299D01*
X126024Y188347D02*
X126654Y188976D01*
Y194547D01*
X156929Y31260D02*
X160646Y27543D01*
X182165D01*
X156929Y31260D02*
Y42706D01*
X164173Y60315D02*
X170236Y66378D01*
X156929Y42706D02*
X164173Y49950D01*
Y60315D01*
X117038Y47402D02*
X123228Y53592D01*
Y67126D01*
X83337Y80049D02*
X91614Y71772D01*
X83337Y80049D02*
Y106083D01*
X97047Y92244D02*
X106457Y82835D01*
X97047Y92244D02*
Y106083D01*
X106457Y82835D02*
X114016D01*
X116063Y80787D01*
X124764Y75945D02*
X135210Y65498D01*
X144193D01*
X112579Y66680D02*
X112972D01*
X113760Y65892D01*
Y65498D02*
Y65892D01*
X80059Y81221D02*
X90925Y70354D01*
X79469Y81221D02*
X80059D01*
X51476Y65498D02*
X52028Y66050D01*
Y81221D01*
X66339D02*
X72165Y75394D01*
Y72815D02*
Y75394D01*
Y72815D02*
X79311Y65669D01*
X65748Y81221D02*
X66339D01*
X89016Y51961D02*
Y68071D01*
X85079Y72008D02*
X89016Y68071D01*
X81299Y72008D02*
X85079D01*
X69626Y83681D02*
X81299Y72008D01*
X69626Y83681D02*
Y106083D01*
X84456Y47402D02*
X89016Y51961D01*
X19291Y47402D02*
X24370Y52480D01*
Y68268D01*
X27520Y71417D01*
X40394D01*
X42205Y73228D01*
Y106083D01*
X51874Y47402D02*
X55915Y51443D01*
Y106083D01*
X38307Y87126D02*
X38465Y87283D01*
Y96043D01*
X52028Y87126D02*
X52175Y87274D01*
Y96043D01*
X93189Y87126D02*
X93307Y87244D01*
Y96043D01*
X79469Y87126D02*
X79597Y87254D01*
Y96043D01*
X65748Y87126D02*
X65886Y87264D01*
Y96043D01*
X40276Y230335D02*
X40315Y230374D01*
Y235000D01*
Y240905D02*
X40453Y240768D01*
X46339D01*
X56850Y240551D02*
X57008Y240709D01*
X51811Y240551D02*
X56850D01*
X56890Y234685D02*
X57008Y234803D01*
X56890Y230295D02*
Y234685D01*
X100626Y188776D02*
Y190728D01*
X98268Y186417D02*
X100626Y188776D01*
X96614Y186417D02*
X98268D01*
X100626Y190728D02*
X101413Y191516D01*
X94721Y188311D02*
X96614Y186417D01*
X94721Y188311D02*
Y190728D01*
X93933Y191516D02*
X94721Y190728D01*
X101413Y192303D02*
X107165Y198055D01*
X101413Y191516D02*
Y192303D01*
X107165Y198055D02*
Y204803D01*
X107579Y180689D02*
X108268Y180000D01*
X101413Y180689D02*
X107579D01*
X78268Y217795D02*
X82205Y221732D01*
Y228957D01*
X91850Y217402D02*
X91929Y217480D01*
Y223071D01*
X91791Y211437D02*
X91850Y211496D01*
X86142Y211437D02*
X91791D01*
X86693Y206417D02*
X89173Y203937D01*
X85590Y206417D02*
X86693D01*
X84249Y207759D02*
X85590Y206417D01*
X84249Y207759D02*
Y211362D01*
X84173Y211437D02*
X84249Y211362D01*
X82205Y205000D02*
X83268Y203937D01*
X82205Y205000D02*
Y211437D01*
X32717Y171614D02*
Y172402D01*
Y171614D02*
X33189Y172087D01*
X43602Y122441D02*
X44578Y121465D01*
X65374Y144626D02*
X65748Y145000D01*
X38583Y162443D02*
X43268D01*
X48031D01*
X54016Y149941D02*
Y155945D01*
X42992Y156261D02*
X43268Y156537D01*
X42992Y149941D02*
Y156261D01*
X36496Y150335D02*
X40433Y146398D01*
X42992D01*
X33937Y150315D02*
X39626Y144626D01*
X33347Y150315D02*
X33937D01*
X39626Y144626D02*
X42992D01*
X43937Y131929D02*
X44035Y131831D01*
X43051Y131929D02*
X43937D01*
X53642Y118701D02*
X54429D01*
X56929Y121201D02*
Y134414D01*
X55477Y135866D02*
X56929Y134414D01*
X9350Y158604D02*
X12087Y161340D01*
X135177Y224468D02*
X138937Y220709D01*
X134390Y224468D02*
X135177D01*
X133307Y225551D02*
X134390Y224468D01*
X133307Y225551D02*
Y226339D01*
X138937Y220709D02*
X148150D01*
X138012Y199134D02*
X147520D01*
X133228Y203917D02*
X138012Y199134D01*
X133228Y203917D02*
Y204705D01*
X122717Y205768D02*
Y207153D01*
X140709Y204705D02*
Y205492D01*
X124685Y205768D02*
Y207117D01*
X133228Y204705D02*
Y205492D01*
X128366Y196485D02*
X130186Y194665D01*
X136969D01*
X127412Y195531D02*
X128366Y196485D01*
X126752Y195531D02*
X127412D01*
X126654Y195433D02*
X126752Y195531D01*
X126654Y194547D02*
Y195433D01*
X123858Y226870D02*
Y228255D01*
X133307Y226339D02*
Y227126D01*
X10547Y153781D02*
X11752D01*
X9350Y154978D02*
X10547Y153781D01*
X7933Y154391D02*
X10511Y151813D01*
X12087Y161340D02*
X12874D01*
X9350Y154978D02*
Y158604D01*
X7933Y154391D02*
Y164667D01*
X140787Y226339D02*
Y227126D01*
X129508Y217588D02*
X130797Y216299D01*
X137047D01*
X127795Y225984D02*
Y226870D01*
Y225984D02*
X127894Y225886D01*
X128554D01*
X129508Y224932D01*
Y217588D02*
Y224932D01*
X128554Y216634D02*
X129508Y217588D01*
X127894Y216634D02*
X128554D01*
X127795Y216535D02*
X127894Y216634D01*
X127795Y215650D02*
Y216535D01*
X21988Y155848D02*
Y156508D01*
X22087Y155750D02*
X22972D01*
X21988Y155848D02*
X22087Y155750D01*
X54429Y118701D02*
X56929Y121201D01*
X54272Y135866D02*
X55477D01*
X53287Y131831D02*
X53386Y131929D01*
X54272D01*
X55158D01*
X42559Y113976D02*
X78908D01*
X38465Y109882D02*
X42559Y113976D01*
X38465Y96043D02*
Y109882D01*
X78908Y113976D02*
X84567Y119635D01*
X56024Y112559D02*
X79495D01*
X68622Y111142D02*
X80082D01*
X52175Y108711D02*
X56024Y112559D01*
X65886Y108405D02*
X68622Y111142D01*
X79495Y112559D02*
X85984Y119048D01*
X52175Y96043D02*
Y108711D01*
X65886Y96043D02*
Y108405D01*
X79567Y96073D02*
Y108622D01*
Y96073D02*
X79597Y96043D01*
X93303Y96048D02*
X93307Y96043D01*
X94705Y129260D02*
Y132205D01*
X95520Y133020D01*
X96799D01*
X21969Y37323D02*
Y39528D01*
X139919Y160061D02*
X140016Y159965D01*
X135559Y160061D02*
X139919D01*
X131919Y159965D02*
X132016Y160061D01*
X127516Y159965D02*
X131919D01*
X132016Y155795D02*
Y160061D01*
X168622Y115433D02*
Y120276D01*
X100791Y171850D02*
X101382Y171260D01*
X95473Y171850D02*
X100791D01*
X101382Y171260D02*
X104449D01*
X170236Y66378D02*
X170236Y66378D01*
X162756Y50537D02*
Y66378D01*
X162716Y66339D02*
X162756Y66378D01*
X84456Y37402D02*
X94646Y47591D01*
X102126Y66378D02*
X102402Y66654D01*
X102126Y52314D02*
Y66378D01*
X94646D02*
X94693Y66425D01*
X36378Y66535D02*
X36535Y66378D01*
X28858Y66575D02*
X29055Y66378D01*
X149621Y37402D02*
X162756Y50537D01*
X169213Y120276D02*
X169644Y119844D01*
X168622Y120276D02*
X168701D01*
X169213D01*
X173779Y115630D02*
Y120276D01*
Y115630D02*
X174134Y115276D01*
X168780Y126260D02*
Y134705D01*
X163622Y128543D02*
X166773Y131695D01*
Y134667D01*
X170768Y131555D02*
X173779Y128543D01*
X166773Y134667D02*
X166811Y134705D01*
X163622Y126181D02*
Y128543D01*
X170748Y134705D02*
X170768Y134685D01*
Y131555D02*
Y134685D01*
X173779Y126181D02*
Y128543D01*
X168701Y126181D02*
X168780Y126260D01*
X184646Y167087D02*
X191142Y160591D01*
X179764Y167087D02*
X184646D01*
X191142Y145118D02*
Y160591D01*
X185236Y144705D02*
Y145118D01*
X184843Y144311D02*
X185236Y144705D01*
X176417Y144311D02*
X184843D01*
X176358Y144252D02*
X176417Y144311D01*
X185236Y135453D02*
Y140276D01*
X102126Y52314D02*
X117038Y37402D01*
X94646Y47591D02*
Y66378D01*
X36535Y52740D02*
X51874Y37402D01*
X36535Y52740D02*
Y66378D01*
X29055Y46614D02*
Y66378D01*
X21969Y39528D02*
X29055Y46614D01*
X19449Y37244D02*
X21890D01*
X21969Y37323D01*
X19291Y37402D02*
X19449Y37244D01*
X97598Y120299D02*
X97716Y120181D01*
X109606Y120299D02*
X109665Y120240D01*
X109724Y120181D01*
X106457Y122402D02*
X110579Y126524D01*
X106457Y122350D02*
Y122402D01*
X106217Y122110D02*
X106457Y122350D01*
X106217Y120181D02*
Y122110D01*
X110579Y126524D02*
Y130264D01*
X113232Y120150D02*
Y120240D01*
Y123980D01*
X112154Y124949D02*
Y130264D01*
X109606Y122402D02*
X112154Y124949D01*
X109606Y120299D02*
Y122402D01*
X113232Y123980D02*
X113728Y124476D01*
X116740Y120047D02*
Y120150D01*
X113728Y124476D02*
Y130264D01*
X185236Y130630D02*
Y135453D01*
X127520Y122953D02*
Y129606D01*
X124106Y133020D02*
X127520Y129606D01*
X119634Y133020D02*
X124106D01*
X97716Y120181D02*
X101130D01*
X129248Y138504D02*
X130008Y137744D01*
X129248Y138504D02*
Y142181D01*
Y136984D02*
X130008Y137744D01*
X129248Y133181D02*
Y136984D01*
X120248Y120150D02*
Y123059D01*
X116878Y126429D02*
X120248Y123059D01*
X116878Y126429D02*
Y130264D01*
X116740Y120150D02*
Y123260D01*
X115303Y124697D02*
X116740Y123260D01*
X115303Y124697D02*
Y130264D01*
D61*
X177598Y314016D02*
G03*
X169724Y306142I0J-7874D01*
G01*
X161850Y279646D02*
G03*
X169724Y287520I0J7874D01*
G01*
X76917Y136169D02*
X87283Y146535D01*
X66114Y136169D02*
X76917D01*
X65905Y136378D02*
X66114Y136169D01*
X28071Y217849D02*
Y226024D01*
X32023Y213898D02*
X62953D01*
X28071Y217849D02*
X32023Y213898D01*
X65364Y211486D02*
X72198D01*
X62953Y213898D02*
X65364Y211486D01*
X15590Y238504D02*
X28071Y226024D01*
X72198Y211486D02*
X78811Y204874D01*
X169724Y287520D02*
Y306142D01*
X154331Y279646D02*
X161850D01*
D62*
X129291Y333110D02*
D03*
Y327205D02*
D03*
X91850Y217402D02*
D03*
Y211496D02*
D03*
X72284Y223031D02*
D03*
Y228937D02*
D03*
X91929Y223071D02*
D03*
Y228976D02*
D03*
X33347Y156220D02*
D03*
Y150315D02*
D03*
X38583Y156537D02*
D03*
Y162443D02*
D03*
X43268Y156537D02*
D03*
Y162443D02*
D03*
X48031D02*
D03*
Y156537D02*
D03*
X29488Y95354D02*
D03*
Y101260D02*
D03*
X57008Y240709D02*
D03*
Y234803D02*
D03*
X40315Y240905D02*
D03*
Y235000D02*
D03*
X173779Y126181D02*
D03*
Y120276D02*
D03*
X65748Y87126D02*
D03*
Y81221D02*
D03*
X163622Y120276D02*
D03*
Y126181D02*
D03*
X168701D02*
D03*
Y120276D02*
D03*
X38583Y266890D02*
D03*
Y260984D02*
D03*
X120787Y180039D02*
D03*
Y174134D02*
D03*
X52028Y87126D02*
D03*
Y81221D02*
D03*
X38307Y87126D02*
D03*
Y81221D02*
D03*
X127520Y122953D02*
D03*
Y117047D02*
D03*
X93189Y87126D02*
D03*
Y81221D02*
D03*
X79469Y87126D02*
D03*
Y81221D02*
D03*
X147520Y199134D02*
D03*
Y193228D02*
D03*
X148150Y220709D02*
D03*
Y214803D02*
D03*
D63*
X109370Y231890D02*
D03*
Y235630D02*
D03*
Y239370D02*
D03*
X98740Y231890D02*
D03*
Y235630D02*
D03*
Y239370D02*
D03*
D64*
X52008Y203780D02*
D03*
Y186850D02*
D03*
X25591Y203780D02*
D03*
Y186850D02*
D03*
D65*
X16496Y140709D02*
D03*
Y126535D02*
D03*
D66*
X43602Y122441D02*
D03*
X53642Y126181D02*
D03*
Y118701D02*
D03*
X22913Y165080D02*
D03*
X12874Y161340D02*
D03*
Y168821D02*
D03*
D67*
X78268Y211437D02*
D03*
X80236D02*
D03*
X82205D02*
D03*
X84173D02*
D03*
X86142D02*
D03*
X78268Y228957D02*
D03*
X80236D02*
D03*
X82205D02*
D03*
X84173D02*
D03*
X86142D02*
D03*
D68*
X74331Y236535D02*
D03*
X80236D02*
D03*
X73543Y204016D02*
D03*
X79449D02*
D03*
X84409Y191614D02*
D03*
X78504D02*
D03*
X191142Y145118D02*
D03*
X185236D02*
D03*
X148228Y160646D02*
D03*
X155709D02*
D03*
X151969Y169701D02*
D03*
X29055Y66378D02*
D03*
X36535D02*
D03*
X32795Y75433D02*
D03*
X94646Y66378D02*
D03*
X102126D02*
D03*
X98386Y75433D02*
D03*
X162756Y66378D02*
D03*
X170236D02*
D03*
X166496Y75433D02*
D03*
X120118Y188347D02*
D03*
X126024D02*
D03*
D69*
X11752Y155750D02*
D03*
Y151813D02*
D03*
Y153781D02*
D03*
X22972Y155750D02*
D03*
Y151813D02*
D03*
Y153781D02*
D03*
X42992Y146398D02*
D03*
X54016D02*
D03*
X42992Y144626D02*
D03*
X54016D02*
D03*
Y148169D02*
D03*
Y149941D02*
D03*
Y142854D02*
D03*
Y141102D02*
D03*
X42992Y148169D02*
D03*
Y142854D02*
D03*
Y149941D02*
D03*
Y141083D02*
D03*
X54272Y131929D02*
D03*
Y135866D02*
D03*
Y133898D02*
D03*
X43051Y131929D02*
D03*
Y135866D02*
D03*
Y133898D02*
D03*
D70*
X17362Y153781D02*
D03*
X48661Y133898D02*
D03*
D71*
X83307Y203976D02*
D03*
X89213D02*
D03*
X185236Y140276D02*
D03*
X191142D02*
D03*
X185236Y135453D02*
D03*
X191142D02*
D03*
X185236Y130630D02*
D03*
X191142D02*
D03*
X168425Y115236D02*
D03*
X162520D02*
D03*
X174134Y115276D02*
D03*
X180039D02*
D03*
X119331Y332953D02*
D03*
X113425D02*
D03*
X119331Y328110D02*
D03*
X113425D02*
D03*
X119626Y235748D02*
D03*
X125532D02*
D03*
X119626Y240669D02*
D03*
X125532D02*
D03*
D72*
X48504Y145512D02*
D03*
D73*
X25236Y171614D02*
D03*
X32717D02*
D03*
D74*
X65905Y128898D02*
D03*
Y136378D02*
D03*
D75*
X35906Y136949D02*
D03*
Y142854D02*
D03*
X54016Y155945D02*
D03*
Y161850D02*
D03*
X108268Y180000D02*
D03*
Y185906D02*
D03*
X164685Y159961D02*
D03*
Y165866D02*
D03*
X101382Y171260D02*
D03*
Y165354D02*
D03*
X81024Y171299D02*
D03*
Y165394D02*
D03*
X38465Y272913D02*
D03*
Y278819D02*
D03*
X140016Y165870D02*
D03*
Y159965D02*
D03*
X127516Y165870D02*
D03*
Y159965D02*
D03*
X132323Y117045D02*
D03*
Y122951D02*
D03*
D76*
X74803Y145000D02*
D03*
X65748D02*
D03*
D77*
X70276Y160748D02*
D03*
D78*
X51811Y234842D02*
D03*
Y240551D02*
D03*
X46339Y235059D02*
D03*
Y240768D02*
D03*
X126299Y179842D02*
D03*
Y174134D02*
D03*
D79*
X56890Y230295D02*
D03*
X60630Y220256D02*
D03*
X53150D02*
D03*
X40276Y230335D02*
D03*
X44016Y220295D02*
D03*
X36535D02*
D03*
X55915Y106083D02*
D03*
X59655Y96043D02*
D03*
X52175D02*
D03*
X42205Y106083D02*
D03*
X45945Y96043D02*
D03*
X38465D02*
D03*
X83337Y106083D02*
D03*
X87077Y96043D02*
D03*
X79597D02*
D03*
X69626Y106083D02*
D03*
X73366Y96043D02*
D03*
X65886D02*
D03*
X97047Y106083D02*
D03*
X100787Y96043D02*
D03*
X93307D02*
D03*
D80*
X107165Y204803D02*
D03*
Y218583D02*
D03*
X154665Y84134D02*
D03*
Y97913D02*
D03*
X128661Y84134D02*
D03*
Y97913D02*
D03*
X180669Y84134D02*
D03*
Y97913D02*
D03*
D81*
X101413Y180689D02*
D03*
X93933D02*
D03*
Y191516D02*
D03*
X97673D02*
D03*
X101413D02*
D03*
D82*
X174724Y193622D02*
D03*
Y191063D02*
D03*
Y188504D02*
D03*
Y185945D02*
D03*
Y183386D02*
D03*
D83*
X183504Y319823D02*
D03*
Y308209D02*
D03*
D84*
X177598Y314016D02*
D03*
X189409D02*
D03*
D85*
X13701Y65498D02*
D03*
X19410D02*
D03*
X180059Y210551D02*
D03*
X174350D02*
D03*
X179764Y167087D02*
D03*
X174055D02*
D03*
X51476Y65498D02*
D03*
X45768D02*
D03*
X113760D02*
D03*
X119468D02*
D03*
X79311Y65669D02*
D03*
X85020D02*
D03*
X144193Y65498D02*
D03*
X149902D02*
D03*
D86*
X96799Y150343D02*
D03*
Y148768D02*
D03*
Y147193D02*
D03*
Y145618D02*
D03*
Y144043D02*
D03*
Y142469D02*
D03*
Y140894D02*
D03*
Y139319D02*
D03*
Y137744D02*
D03*
Y136169D02*
D03*
Y134595D02*
D03*
Y133020D02*
D03*
X119634D02*
D03*
Y134595D02*
D03*
Y136169D02*
D03*
Y137744D02*
D03*
Y139319D02*
D03*
Y140894D02*
D03*
Y142469D02*
D03*
Y144043D02*
D03*
Y145618D02*
D03*
Y147193D02*
D03*
Y148768D02*
D03*
Y150343D02*
D03*
D87*
X99555Y130264D02*
D03*
X101130D02*
D03*
X102705D02*
D03*
X104279D02*
D03*
X105854D02*
D03*
X107429D02*
D03*
X109004D02*
D03*
X110579D02*
D03*
X112154D02*
D03*
X113728D02*
D03*
X115303D02*
D03*
X116878D02*
D03*
Y153098D02*
D03*
X115303D02*
D03*
X113728D02*
D03*
X112154D02*
D03*
X110579D02*
D03*
X109004D02*
D03*
X107429D02*
D03*
X105854D02*
D03*
X104279D02*
D03*
X102705D02*
D03*
X101130D02*
D03*
X99555D02*
D03*
D88*
X108217Y141681D02*
D03*
D89*
X161201Y146221D02*
D03*
Y144252D02*
D03*
Y142283D02*
D03*
Y140315D02*
D03*
Y138347D02*
D03*
X176358D02*
D03*
Y140315D02*
D03*
Y142283D02*
D03*
Y144252D02*
D03*
Y146221D02*
D03*
D90*
X164842Y134705D02*
D03*
X166811D02*
D03*
X168780D02*
D03*
X170748D02*
D03*
X172717D02*
D03*
Y149862D02*
D03*
X170748D02*
D03*
X168780D02*
D03*
X166811D02*
D03*
X164842D02*
D03*
D91*
X168780Y142283D02*
D03*
D92*
X95473Y171850D02*
D03*
Y165157D02*
D03*
X86811Y171850D02*
D03*
Y165157D02*
D03*
D93*
X97716Y116244D02*
D03*
Y120181D02*
D03*
X101130Y116244D02*
D03*
Y120181D02*
D03*
X112756Y164724D02*
D03*
Y160787D02*
D03*
X109004Y164650D02*
D03*
Y160713D02*
D03*
X109724Y116244D02*
D03*
Y120181D02*
D03*
X106217Y116244D02*
D03*
Y120181D02*
D03*
X116740Y116213D02*
D03*
Y120150D02*
D03*
X113232Y116213D02*
D03*
Y120150D02*
D03*
X120248Y116213D02*
D03*
Y120150D02*
D03*
D94*
X130008Y137744D02*
D03*
X136425D02*
D03*
D95*
X133185Y142181D02*
D03*
X129248D02*
D03*
X133185Y133181D02*
D03*
X129248D02*
D03*
D96*
X30764Y278228D02*
D03*
X8764Y267205D02*
D03*
Y278228D02*
D03*
X30764Y267205D02*
D03*
D97*
X135559Y160061D02*
D03*
X132016D02*
D03*
D98*
X133787Y181912D02*
D03*
D99*
X136969Y194665D02*
D03*
X133228Y204705D02*
D03*
X140709D02*
D03*
X137047Y216299D02*
D03*
X133307Y226339D02*
D03*
X140787D02*
D03*
D100*
X124685Y200157D02*
D03*
X125827Y221260D02*
D03*
D101*
X124685Y194547D02*
D03*
X122717D02*
D03*
X126654D02*
D03*
X124685Y205768D02*
D03*
X122717D02*
D03*
X126654D02*
D03*
X125827Y215650D02*
D03*
X123858D02*
D03*
X127795D02*
D03*
X125827Y226870D02*
D03*
X123858D02*
D03*
X127795D02*
D03*
D102*
X154331Y279646D02*
D03*
Y284646D02*
D03*
Y289646D02*
D03*
Y294646D02*
D03*
Y299646D02*
D03*
Y274646D02*
D03*
Y269646D02*
D03*
D103*
X54331Y249646D02*
D03*
X59331D02*
D03*
X64331D02*
D03*
X69331D02*
D03*
X74331D02*
D03*
X99331D02*
D03*
X94331D02*
D03*
X89331D02*
D03*
X84331D02*
D03*
X79331D02*
D03*
X129331D02*
D03*
X134331D02*
D03*
X139331D02*
D03*
X144331D02*
D03*
X149331D02*
D03*
X124331D02*
D03*
X119331D02*
D03*
X114331D02*
D03*
X109331D02*
D03*
X104331D02*
D03*
Y319646D02*
D03*
X109331D02*
D03*
X114331D02*
D03*
X119331D02*
D03*
X124331D02*
D03*
X149331D02*
D03*
X144331D02*
D03*
X139331D02*
D03*
X134331D02*
D03*
X129331D02*
D03*
X79331D02*
D03*
X84331D02*
D03*
X89331D02*
D03*
X94331D02*
D03*
X99331D02*
D03*
X74331D02*
D03*
X69331D02*
D03*
X64331D02*
D03*
X59331D02*
D03*
X54331D02*
D03*
D104*
X119331Y332953D02*
X119409Y333032D01*
X129213D01*
X129291Y333110D01*
Y327205D02*
X129311Y327185D01*
Y319665D02*
Y327185D01*
Y319665D02*
X129331Y319646D01*
X109213Y227008D02*
X112953D01*
X116102Y184449D02*
Y223858D01*
X112953Y227008D02*
X116102Y223858D01*
X180669Y51772D02*
Y84134D01*
X136221Y120354D02*
X136425D01*
Y93079D02*
Y120354D01*
X128622Y85276D02*
X136425Y93079D01*
X111653Y180000D02*
X116575Y175079D01*
X119331Y289213D02*
Y319646D01*
X109331Y279213D02*
X119331Y289213D01*
X109331Y249646D02*
Y279213D01*
X119331Y328110D02*
Y332953D01*
Y319646D02*
Y328110D01*
X102047Y227008D02*
X109213D01*
X109370Y227165D01*
Y231890D01*
X98740Y235630D02*
X109370D01*
X98740D02*
Y239370D01*
X109370Y235630D02*
Y239370D01*
X119567Y235689D02*
X119626Y235748D01*
X109429Y235689D02*
X119567D01*
X109370Y235630D02*
X109429Y235689D01*
X119626Y235748D02*
Y240669D01*
X119371Y240925D02*
X119626Y240669D01*
X115689Y240925D02*
X119371D01*
X109331Y247284D02*
X115689Y240925D01*
X109331Y247284D02*
Y249646D01*
X92441Y217402D02*
X102047Y227008D01*
X111653Y180000D02*
X116102Y184449D01*
X16339Y140827D02*
X16496Y140709D01*
X65748Y136378D02*
X65905D01*
X136323Y137642D02*
X136425Y137744D01*
X131496Y148622D02*
X136425Y143692D01*
Y137744D02*
Y143692D01*
X136221Y120354D02*
X136323Y120457D01*
Y137642D01*
X116575Y164570D02*
Y175079D01*
X108268Y180000D02*
X111653D01*
X112756Y160787D02*
X114291Y162323D01*
X112681Y160713D02*
X112756Y160787D01*
X114291Y162323D02*
X114327D01*
X109004Y160713D02*
X112681D01*
X164724Y183268D02*
X164842Y183386D01*
X174724D01*
X147520Y193228D02*
X147638Y193346D01*
X155709Y160646D02*
Y180984D01*
X160669Y185945D01*
X174724D01*
X158583Y188504D02*
X174724D01*
X148228Y178150D02*
X158583Y188504D01*
X148228Y160646D02*
Y178150D01*
X128622Y84173D02*
Y85276D01*
X160591Y31693D02*
X180669Y51772D01*
X114327Y162323D02*
X116575Y164570D01*
X89331Y184567D02*
X98323D01*
X101413Y181476D01*
Y180689D02*
Y181476D01*
X81024Y176260D02*
X89331Y184567D01*
X86260Y171299D02*
X86811Y171850D01*
X81024Y171299D02*
X86260D01*
X81024D02*
Y176260D01*
X127521Y117046D02*
X132322D01*
X127520Y117047D02*
X127521Y117046D01*
X128622Y84173D02*
X128661Y84134D01*
X19291Y27402D02*
X51874D01*
X84456D01*
X117038D01*
X149621D01*
X154665Y84134D02*
X180669D01*
X128661D02*
X154665D01*
D105*
X31850Y301142D02*
D03*
X182992Y272874D02*
D03*
X64882Y68386D02*
D03*
X152717Y121102D02*
D03*
D106*
X15590Y228504D02*
D03*
Y238504D02*
D03*
Y248504D02*
D03*
X14921Y95512D02*
D03*
Y105512D02*
D03*
X149621Y47402D02*
D03*
Y37402D02*
D03*
Y27402D02*
D03*
X117038Y47402D02*
D03*
Y37402D02*
D03*
Y27402D02*
D03*
X84456Y47402D02*
D03*
Y37402D02*
D03*
Y27402D02*
D03*
X51874Y47402D02*
D03*
Y37402D02*
D03*
Y27402D02*
D03*
X19291Y47402D02*
D03*
Y37402D02*
D03*
Y27402D02*
D03*
X182165Y37543D02*
D03*
Y27543D02*
D03*
X167598Y260236D02*
D03*
Y250236D02*
D03*
X177598Y260236D02*
D03*
Y250236D02*
D03*
X187598Y260236D02*
D03*
Y250236D02*
D03*
X188031Y233858D02*
D03*
Y223858D02*
D03*
D107*
X185354Y202284D02*
D03*
Y174724D02*
D03*
D108*
X174724Y198346D02*
D03*
Y178661D02*
D03*
D109*
X166535Y233071D02*
D03*
X87283Y146535D02*
D03*
X92768Y136169D02*
D03*
X187008Y192126D02*
D03*
X181890Y161417D02*
D03*
Y120472D02*
D03*
X187008Y89764D02*
D03*
Y69291D02*
D03*
Y48819D02*
D03*
X181890Y18110D02*
D03*
X171653Y222835D02*
D03*
Y202362D02*
D03*
X176772Y151181D02*
D03*
Y130709D02*
D03*
X171653Y79527D02*
D03*
X176772Y69291D02*
D03*
X171653Y38583D02*
D03*
Y18110D02*
D03*
X161417Y243307D02*
D03*
X166535Y212598D02*
D03*
X161417Y181890D02*
D03*
Y100000D02*
D03*
X166535Y89764D02*
D03*
X161417Y79527D02*
D03*
X166535Y48819D02*
D03*
X161417Y38583D02*
D03*
Y18110D02*
D03*
X156299Y233071D02*
D03*
Y48819D02*
D03*
X151181Y18110D02*
D03*
X140945Y243307D02*
D03*
X146063Y233071D02*
D03*
X140945Y181890D02*
D03*
Y140945D02*
D03*
Y100000D02*
D03*
X146063Y89764D02*
D03*
X140945Y79527D02*
D03*
Y38583D02*
D03*
Y18110D02*
D03*
X135827Y48819D02*
D03*
X130709Y38583D02*
D03*
Y18110D02*
D03*
X125591Y69291D02*
D03*
Y48819D02*
D03*
X120472Y18110D02*
D03*
X115354Y69291D02*
D03*
X110236Y38583D02*
D03*
Y18110D02*
D03*
X100000Y243307D02*
D03*
Y202362D02*
D03*
X105118Y192126D02*
D03*
X100000Y38583D02*
D03*
Y18110D02*
D03*
X89764Y243307D02*
D03*
X94882Y233071D02*
D03*
X89764Y18110D02*
D03*
X79527Y161417D02*
D03*
Y120472D02*
D03*
X84646Y110236D02*
D03*
X79527Y18110D02*
D03*
X69291Y243307D02*
D03*
X74409Y130709D02*
D03*
X69291Y120472D02*
D03*
X74409Y89764D02*
D03*
Y48819D02*
D03*
X69291Y38583D02*
D03*
Y18110D02*
D03*
X59055Y202362D02*
D03*
Y161417D02*
D03*
X64173Y110236D02*
D03*
Y48819D02*
D03*
X59055Y38583D02*
D03*
Y18110D02*
D03*
X53937Y171653D02*
D03*
X48819Y18110D02*
D03*
X38583Y202362D02*
D03*
X43701Y171653D02*
D03*
Y110236D02*
D03*
Y69291D02*
D03*
Y48819D02*
D03*
X38583Y38583D02*
D03*
Y18110D02*
D03*
X28346Y243307D02*
D03*
X33465Y89764D02*
D03*
Y48819D02*
D03*
X28346Y38583D02*
D03*
Y18110D02*
D03*
X18110Y222835D02*
D03*
Y181890D02*
D03*
X23228Y110236D02*
D03*
Y89764D02*
D03*
X18110Y79527D02*
D03*
Y18110D02*
D03*
X12992Y192126D02*
D03*
Y69291D02*
D03*
Y48819D02*
D03*
X7874Y38583D02*
D03*
X12992Y28346D02*
D03*
X7874Y18110D02*
D03*
X192914Y330709D02*
D03*
Y299213D02*
D03*
X188977Y291339D02*
D03*
X192914Y283465D02*
D03*
Y267717D02*
D03*
X185040Y330709D02*
D03*
Y314961D02*
D03*
Y299213D02*
D03*
X181103Y291339D02*
D03*
X185040Y283465D02*
D03*
X177166Y330709D02*
D03*
Y299213D02*
D03*
X173229Y291339D02*
D03*
X177166Y283465D02*
D03*
X173229Y275591D02*
D03*
X177166Y267717D02*
D03*
X169291Y330709D02*
D03*
X165355Y322835D02*
D03*
X169291Y314961D02*
D03*
X165355Y307087D02*
D03*
Y291339D02*
D03*
Y275591D02*
D03*
X169291Y267717D02*
D03*
X161417Y330709D02*
D03*
X157481Y322835D02*
D03*
X161417Y314961D02*
D03*
X157481Y307087D02*
D03*
X161417Y299213D02*
D03*
Y283465D02*
D03*
Y267717D02*
D03*
X157481Y259843D02*
D03*
X153543Y330709D02*
D03*
Y314961D02*
D03*
X149607Y307087D02*
D03*
Y259843D02*
D03*
X145669Y330709D02*
D03*
X141733Y307087D02*
D03*
Y291339D02*
D03*
Y275591D02*
D03*
Y259843D02*
D03*
X137795Y330709D02*
D03*
X133858Y307087D02*
D03*
X137795Y299213D02*
D03*
X133858Y291339D02*
D03*
X137795Y283465D02*
D03*
X133858Y275591D02*
D03*
X137795Y267717D02*
D03*
X133858Y259843D02*
D03*
X125984Y307087D02*
D03*
X129921Y299213D02*
D03*
X125984Y291339D02*
D03*
X129921Y283465D02*
D03*
X125984Y275591D02*
D03*
X129921Y267717D02*
D03*
X125984Y259843D02*
D03*
X122047Y299213D02*
D03*
Y283465D02*
D03*
X118110Y275591D02*
D03*
X122047Y267717D02*
D03*
X118110Y259843D02*
D03*
X110236Y307087D02*
D03*
X114173Y299213D02*
D03*
X110236Y291339D02*
D03*
X114173Y267717D02*
D03*
X106299Y330709D02*
D03*
X102362Y307087D02*
D03*
X106299Y299213D02*
D03*
X102362Y291339D02*
D03*
X106299Y283465D02*
D03*
X102362Y275591D02*
D03*
X106299Y267717D02*
D03*
X102362Y259843D02*
D03*
X98425Y330709D02*
D03*
X94488Y307087D02*
D03*
X98425Y299213D02*
D03*
X94488Y291339D02*
D03*
X98425Y283465D02*
D03*
X94488Y275591D02*
D03*
X98425Y267717D02*
D03*
X94488Y259843D02*
D03*
X90551Y330709D02*
D03*
X86614Y307087D02*
D03*
X90551Y299213D02*
D03*
X86614Y291339D02*
D03*
X90551Y283465D02*
D03*
X86614Y275591D02*
D03*
X90551Y267717D02*
D03*
X86614Y259843D02*
D03*
X82677Y330709D02*
D03*
X78740Y307087D02*
D03*
X82677Y299213D02*
D03*
X78740Y291339D02*
D03*
X82677Y283465D02*
D03*
X78740Y275591D02*
D03*
X82677Y267717D02*
D03*
X78740Y259843D02*
D03*
X74803Y330709D02*
D03*
X70866Y307087D02*
D03*
X74803Y299213D02*
D03*
X70866Y291339D02*
D03*
X74803Y283465D02*
D03*
X70866Y275591D02*
D03*
X74803Y267717D02*
D03*
X70866Y259843D02*
D03*
X66929Y330709D02*
D03*
X62992Y307087D02*
D03*
X66929Y299213D02*
D03*
X62992Y291339D02*
D03*
X66929Y283465D02*
D03*
X62992Y275591D02*
D03*
X66929Y267717D02*
D03*
X62992Y259843D02*
D03*
X59055Y330709D02*
D03*
X55118Y307087D02*
D03*
X59055Y299213D02*
D03*
X55118Y291339D02*
D03*
X59055Y283465D02*
D03*
X55118Y275591D02*
D03*
X59055Y267717D02*
D03*
X55118Y259843D02*
D03*
X51181Y314961D02*
D03*
Y299213D02*
D03*
Y283465D02*
D03*
Y267717D02*
D03*
X47244Y259843D02*
D03*
X43307Y283465D02*
D03*
X35433D02*
D03*
X23622Y275591D02*
D03*
Y259843D02*
D03*
X15748Y275591D02*
D03*
X19685Y267717D02*
D03*
X15748Y259843D02*
D03*
X15472Y220748D02*
D03*
X48504Y249449D02*
D03*
X133110Y166417D02*
D03*
X187598Y43543D02*
D03*
X150394Y60866D02*
D03*
X117953Y59409D02*
D03*
X125590Y62479D02*
D03*
X83523Y59685D02*
D03*
X47126Y118307D02*
D03*
X32677Y198779D02*
D03*
X33937Y208701D02*
D03*
X43583Y207835D02*
D03*
X43780Y198661D02*
D03*
X16142Y202716D02*
D03*
X43110Y203307D02*
D03*
X32874Y203006D02*
D03*
X8071Y262126D02*
D03*
X29921D02*
D03*
X54125Y311890D02*
D03*
X84134Y311417D02*
D03*
X124055Y310630D02*
D03*
X149331Y312205D02*
D03*
X145905Y270276D02*
D03*
X145787Y275000D02*
D03*
X145591Y284842D02*
D03*
X145905Y294764D02*
D03*
X146181Y300000D02*
D03*
X149528Y256614D02*
D03*
X130246Y240866D02*
D03*
X65630Y219724D02*
D03*
X48228Y222008D02*
D03*
X54016Y166693D02*
D03*
X184173Y57559D02*
D03*
X187795Y54685D02*
D03*
X184015Y61142D02*
D03*
X72284Y228937D02*
D03*
X124252Y139763D02*
D03*
X86024Y236575D02*
D03*
X124134Y145512D02*
D03*
X80197Y236457D02*
D03*
X125815Y142469D02*
D03*
X140748Y129252D02*
D03*
X141614Y137008D02*
D03*
X141966Y133423D02*
D03*
X64949Y168650D02*
D03*
X67733Y171433D02*
D03*
X70433Y174134D02*
D03*
X67953Y155000D02*
D03*
X32126Y218583D02*
D03*
X92441Y133149D02*
D03*
X36496Y220197D02*
D03*
X53150Y220256D02*
D03*
X61575Y206457D02*
D03*
X65512Y206535D02*
D03*
X69331D02*
D03*
X78504Y191063D02*
D03*
X52008Y190551D02*
D03*
X46890Y143091D02*
D03*
X50354Y143150D02*
D03*
X50197Y148125D02*
D03*
X47047Y148189D02*
D03*
X50276Y133819D02*
D03*
X47165Y133858D02*
D03*
X66102Y123740D02*
D03*
X53642Y126181D02*
D03*
X46339Y235039D02*
D03*
X74331Y232874D02*
D03*
X25236Y171614D02*
D03*
X109665Y175787D02*
D03*
X105984D02*
D03*
X61929Y121260D02*
D03*
X59606Y142283D02*
D03*
X11036Y147102D02*
D03*
X98740Y231890D02*
D03*
X120248Y188476D02*
D03*
X87362Y156181D02*
D03*
X90039Y151142D02*
D03*
X89645Y154173D02*
D03*
X91890Y156732D02*
D03*
X73779Y204252D02*
D03*
X78268Y217795D02*
D03*
X12953Y140905D02*
D03*
X20276D02*
D03*
X16339Y140827D02*
D03*
X33347Y150315D02*
D03*
X38858Y151969D02*
D03*
X59655Y152047D02*
D03*
X122362Y127953D02*
D03*
X105089Y126339D02*
D03*
X100354Y218583D02*
D03*
X108345Y192047D02*
D03*
X17362Y153781D02*
D03*
X74331Y144803D02*
D03*
X103110Y106772D02*
D03*
X87441Y101457D02*
D03*
X73347Y101654D02*
D03*
X59331Y101260D02*
D03*
X46339Y101260D02*
D03*
X27815Y75433D02*
D03*
X19134Y60945D02*
D03*
X45827Y60748D02*
D03*
X94252Y74961D02*
D03*
X170591Y75551D02*
D03*
X182054Y45709D02*
D03*
X128701Y107480D02*
D03*
X146535Y97402D02*
D03*
X172874Y97756D02*
D03*
X194685Y144331D02*
D03*
X187835Y126063D02*
D03*
X191299Y125984D02*
D03*
X184685Y115512D02*
D03*
X157677Y115157D02*
D03*
X120039Y221378D02*
D03*
X119606Y200079D02*
D03*
X144567Y168937D02*
D03*
X143150Y172087D02*
D03*
X145315Y146299D02*
D03*
X131496Y148622D02*
D03*
X151969Y174961D02*
D03*
X164685Y170905D02*
D03*
X170709Y159961D02*
D03*
X174055Y167087D02*
D03*
X168268Y191575D02*
D03*
Y180354D02*
D03*
X152402Y149252D02*
D03*
Y143898D02*
D03*
X185236Y149055D02*
D03*
Y140276D02*
D03*
X49961Y152756D02*
D03*
X45984Y152835D02*
D03*
X148110Y214764D02*
D03*
X126929Y211929D02*
D03*
X129587Y205768D02*
D03*
X120748Y174094D02*
D03*
X101890Y175748D02*
D03*
X168425Y115236D02*
D03*
X164685Y159724D02*
D03*
X180748Y138347D02*
D03*
X100787Y103150D02*
D03*
X136221Y120354D02*
D03*
X61339Y156732D02*
D03*
X65748Y145119D02*
D03*
X97165Y152992D02*
D03*
X113661Y156378D02*
D03*
X112756Y160787D02*
D03*
X118050Y157620D02*
D03*
X132323Y128268D02*
D03*
X164724Y183268D02*
D03*
X147638Y193346D02*
D03*
X160591Y31693D02*
D03*
X116063Y80787D02*
D03*
X72323Y223071D02*
D03*
X91929D02*
D03*
X148382Y160646D02*
D03*
X155591D02*
D03*
X170236Y66102D02*
D03*
X132322Y117046D02*
D03*
X162716Y66339D02*
D03*
X102402Y66654D02*
D03*
X94693Y66425D02*
D03*
X36378Y66535D02*
D03*
X28858Y66575D02*
D03*
X174134Y115276D02*
D03*
X180669Y84134D02*
D03*
X97598Y120299D02*
D03*
X109665Y120240D02*
D03*
X106217Y120181D02*
D03*
X113232Y120240D02*
D03*
X116740Y120047D02*
D03*
X120248Y120150D02*
D03*
X101720Y148177D02*
D03*
X106051D02*
D03*
X110382D02*
D03*
X114713D02*
D03*
X101720Y143846D02*
D03*
X106051D02*
D03*
X110382D02*
D03*
X114713D02*
D03*
X101720Y139516D02*
D03*
X106051D02*
D03*
X110382D02*
D03*
X114713D02*
D03*
X101720Y135185D02*
D03*
X106051D02*
D03*
X110382D02*
D03*
X114713D02*
D03*
X166614Y144449D02*
D03*
X170945D02*
D03*
X166614Y140118D02*
D03*
X170945D02*
D03*
M02*
